<?xml version="1.0" encoding="utf-8"?>
<!-- Generator: Adobe Illustrator 23.0.0, SVG Export Plug-In . SVG Version: 6.00 Build 0)  -->
<svg version="1.1" id="Layer_1" xmlns="http://www.w3.org/2000/svg" xmlns:xlink="http://www.w3.org/1999/xlink" x="0px" y="0px"
	 viewBox="0 0 216 108" style="enable-background:new 0 0 216 108;" xml:space="preserve">
<style type="text/css">
	.st0{fill:none;stroke:#FFFFFF;stroke-width:1.2997;stroke-miterlimit:10;}
	.st1{clip-path:url(#SVGID_2_);fill:#FFFFFF;}
	.st2{clip-path:url(#SVGID_2_);}
	.st3{clip-path:url(#SVGID_4_);fill:#FFFFFF;}
	.st4{fill:#FFFFFF;}
	.st5{fill:none;stroke:#FFFFFF;stroke-width:0.6498;stroke-miterlimit:10;}
</style>
<g>
	<g>
		<rect x="2.4" y="2.3" class="st0" width="211.3" height="102.8"/>
		<g id="logo_shield_all_white_square_1_">
			<g>
				<defs>
					<rect id="SVGID_1_" x="128.8" y="19.4" width="64.5" height="68.6"/>
				</defs>
				<clipPath id="SVGID_2_">
					<use xlink:href="#SVGID_1_"  style="overflow:visible;"/>
				</clipPath>
				<rect x="128.8" y="83.7" class="st1" width="64.5" height="0.5"/>
				<g class="st2">
					<defs>
						<rect id="SVGID_3_" x="128.8" y="19.4" width="64.5" height="68.6"/>
					</defs>
					<clipPath id="SVGID_4_">
						<use xlink:href="#SVGID_3_"  style="overflow:visible;"/>
					</clipPath>
					<path class="st3" d="M192.2,86h1.1v0.3h-0.8v0.6h0.8V87h-0.8v0.7h0.8V88h-1.1V86z M191.6,86.3c-0.1-0.1-0.3-0.1-0.6-0.1
						c-0.5,0-0.8,0.3-0.8,0.8c0,0.5,0.3,0.8,0.8,0.8c0.2,0,0.2,0,0.3,0v-0.6h-0.4v-0.2h0.7v1c-0.1,0-0.3,0.1-0.6,0.1
						c-0.6,0-1.1-0.4-1.1-1c0-0.6,0.4-1,1.1-1c0.3,0,0.4,0,0.6,0.1L191.6,86.3z M188.4,86h1.1v0.3h-0.8v0.6h0.8V87h-0.8v0.7h0.8V88
						h-1.1V86z M186.9,86h0.3v1.8h0.8V88h-1.1V86z M185.3,86h0.3v1.8h0.8V88h-1.1V86z M183.9,85.9c0.6,0,1,0.4,1,1c0,0.6-0.4,1-1,1
						c-0.6,0-1-0.4-1-1C182.9,86.4,183.3,85.9,183.9,85.9 M183.9,87.7c0.5,0,0.7-0.4,0.7-0.8c0-0.4-0.2-0.8-0.7-0.8
						c-0.4,0-0.7,0.4-0.7,0.8C183.2,87.4,183.4,87.7,183.9,87.7 M182.6,86.3c-0.1-0.1-0.3-0.1-0.4-0.1c-0.5,0-0.8,0.3-0.8,0.8
						c0,0.5,0.3,0.8,0.8,0.8c0.1,0,0.3,0,0.4-0.1l0,0.3c-0.2,0.1-0.3,0.1-0.5,0.1c-0.6,0-1.1-0.4-1.1-1c0-0.6,0.4-1,1.1-1
						c0.2,0,0.3,0,0.5,0.1L182.6,86.3z M178.8,86h0.3v1.8h0.8V88h-1.1V86z M177.2,86h0.3l0.8,2h-0.3l-0.2-0.5h-1l-0.2,0.5h-0.3
						L177.2,86z M177.4,86.2l-0.4,1h0.8L177.4,86.2z M176.2,86.3c-0.1-0.1-0.3-0.1-0.4-0.1c-0.5,0-0.8,0.3-0.8,0.8
						c0,0.5,0.3,0.8,0.8,0.8c0.1,0,0.3,0,0.4-0.1l0,0.3c-0.2,0.1-0.3,0.1-0.5,0.1c-0.6,0-1.1-0.4-1.1-1c0-0.6,0.4-1,1.1-1
						c0.2,0,0.3,0,0.5,0.1L176.2,86.3z M173.9,86h0.3v2h-0.3V86z M171.7,86h0.6c0.6,0,1.1,0.4,1.1,1c0,0.7-0.4,1-1.1,1h-0.6V86z
						 M172,87.7h0.3c0.5,0,0.8-0.2,0.8-0.8c0-0.5-0.3-0.7-0.7-0.7H172V87.7z M170.1,86h1.1v0.3h-0.8v0.6h0.8V87h-0.8v0.7h0.8V88
						h-1.1V86z M167.3,86h0.5l0.6,1.7L169,86h0.5v2h-0.3v-1.7h0l-0.7,1.7h-0.3l-0.7-1.7h0V88h-0.3V86z M164.8,86h0.3v1.8h0.8V88
						h-1.1V86z M163.2,86h1.1v0.3h-0.8v0.6h0.8V87h-0.8v0.7h0.8V88h-1.1V86z M160.4,86h0.5l0.6,1.7l0.6-1.7h0.5v2h-0.3v-1.7h0
						l-0.7,1.7h-0.3l-0.7-1.7h0V88h-0.3V86z M157.6,86h0.5l0.6,1.7l0.6-1.7h0.5v2h-0.3v-1.7h0l-0.7,1.7h-0.3l-0.7-1.7h0V88h-0.3V86z
						 M156.7,86h0.3v2h-0.3V86z M154.7,86h0.3v0.9l0.9-0.9h0.4l-0.9,0.9l1,1.1h-0.4l-0.9-1v1h-0.3V86z M152.4,87.1l-0.8-1.2h0.3
						l0.6,0.9l0.6-0.9h0.3l-0.8,1.2V88h-0.3V87.1z M150.1,86h1.1v0.3h-0.8v0.6h0.8V87h-0.8v0.7h0.8V88h-1.1V86z M147.9,86h0.4
						l0.9,1.6h0V86h0.3v2h-0.4l-0.9-1.6h0V88h-0.3V86z M145.8,86h0.6c0.6,0,1.1,0.4,1.1,1c0,0.7-0.4,1-1.1,1h-0.6V86z M146.1,87.7
						h0.3c0.5,0,0.8-0.2,0.8-0.8c0-0.5-0.3-0.7-0.7-0.7h-0.3V87.7z M144.9,86h0.3v2h-0.3V86z M144.3,86.3c-0.1-0.1-0.2-0.1-0.4-0.1
						c-0.2,0-0.4,0.1-0.4,0.3c0,0.4,0.9,0.3,0.9,1c0,0.4-0.3,0.6-0.7,0.6c-0.1,0-0.3,0-0.4-0.1l0-0.3c0.1,0,0.3,0.1,0.4,0.1
						c0.2,0,0.4-0.1,0.4-0.3c0-0.4-0.9-0.3-0.9-0.9c0-0.4,0.3-0.5,0.6-0.5c0.1,0,0.3,0,0.4,0.1L144.3,86.3z M141,86h1.1v0.3h-0.8
						v0.6h0.7V87h-0.7V88H141V86z M139.5,85.9c0.6,0,1,0.4,1,1c0,0.6-0.4,1-1,1c-0.6,0-1-0.4-1-1C138.6,86.4,138.9,85.9,139.5,85.9
						 M139.5,87.7c0.5,0,0.7-0.4,0.7-0.8c0-0.4-0.2-0.8-0.7-0.8c-0.4,0-0.7,0.4-0.7,0.8C138.9,87.4,139.1,87.7,139.5,87.7 M136.1,86
						h1.1v0.3h-0.8v0.6h0.8V87h-0.8v0.7h0.8V88h-1.1V86z M133.3,86h0.5l0.6,1.7L135,86h0.5v2h-0.3v-1.7h0l-0.7,1.7h-0.3l-0.7-1.7h0
						V88h-0.3V86z M131.8,85.9c0.6,0,1,0.4,1,1c0,0.6-0.4,1-1,1c-0.6,0-1-0.4-1-1C130.9,86.4,131.2,85.9,131.8,85.9 M131.8,87.7
						c0.5,0,0.7-0.4,0.7-0.8c0-0.4-0.2-0.8-0.7-0.8c-0.4,0-0.7,0.4-0.7,0.8C131.2,87.4,131.4,87.7,131.8,87.7 M128.8,86h0.3v0.8h1
						V86h0.3v2h-0.3V87h-1V88h-0.3V86z M190.8,75.3l0.9,2.6c0,0.1,0,0.2-0.1,0.3c-0.1,0.1-0.2,0.1-0.3,0.1c-0.1,0-0.2,0-0.3,0l0,0.5
						c0.2,0,0.3,0.1,0.4,0.1c0.3,0,0.5-0.1,0.7-0.3c0.1-0.1,0.2-0.4,0.3-0.7l0.9-2.4h-0.6l-0.6,1.8h0l-0.6-1.8H190.8z M189.5,77.6
						c0.1,0.1,0.3,0.2,0.6,0.2c0.2,0,0.3,0,0.5-0.1l0-0.5c-0.1,0-0.2,0.1-0.3,0.1c-0.2,0-0.3-0.1-0.3-0.4v-1.1h0.6v-0.5h-0.6v-0.7
						l-0.6,0.2v0.5h-0.5v0.5h0.5V77C189.3,77.3,189.4,77.5,189.5,77.6 M188.4,74.3h-0.6v0.6h0.6V74.3z M188.4,75.3h-0.6v2.4h0.6
						V75.3z M186.4,75.3c-0.3,0-0.5,0.1-0.7,0.2c-0.2,0.1-0.3,0.3-0.3,0.6c0,0.3,0.1,0.4,0.3,0.6c0,0,0.2,0.1,0.5,0.2
						c0.2,0.1,0.3,0.2,0.3,0.3c0,0.1,0,0.2-0.1,0.2c-0.1,0-0.2,0.1-0.3,0.1c-0.2,0-0.4-0.1-0.6-0.2l0,0.5c0.3,0.1,0.5,0.1,0.7,0.1
						c0.3,0,0.5-0.1,0.7-0.2c0.2-0.1,0.3-0.3,0.3-0.6c0-0.3-0.1-0.4-0.3-0.6c-0.1-0.1-0.3-0.1-0.5-0.2c-0.2-0.1-0.3-0.1-0.3-0.2
						c0-0.2,0.1-0.3,0.4-0.3c0.2,0,0.4,0,0.6,0.1l0-0.5C186.8,75.3,186.5,75.3,186.4,75.3 M184.2,77.8v-0.9c0-0.3,0-0.5,0.1-0.6
						c0.1-0.2,0.2-0.4,0.4-0.4c0.1,0,0.2,0,0.3,0.1v-0.6c0,0-0.1,0-0.2,0c-0.2,0-0.3,0.1-0.5,0.2c-0.1,0.1-0.2,0.3-0.2,0.4h0v-0.6
						h-0.6v2.4H184.2z M182,77.4c-0.2,0-0.4-0.1-0.5-0.2c-0.1-0.1-0.2-0.3-0.2-0.5h1.7c0-0.5-0.1-0.8-0.2-1.1
						c-0.2-0.3-0.5-0.4-0.9-0.4c-0.4,0-0.6,0.1-0.8,0.4c-0.2,0.2-0.3,0.5-0.3,0.9c0,0.4,0.1,0.7,0.3,0.9c0.2,0.2,0.5,0.3,0.9,0.3
						c0.3,0,0.6-0.1,0.8-0.2v-0.5C182.5,77.3,182.3,77.4,182,77.4 M181.9,75.8c0.3,0,0.5,0.2,0.5,0.6h-1.1
						C181.4,75.9,181.6,75.8,181.9,75.8 M179.6,77.8l0.9-2.4h-0.6l-0.6,1.8h0l-0.6-1.8H178l0.9,2.4H179.6z M177.5,74.3h-0.6v0.6h0.6
						V74.3z M177.5,75.3h-0.6v2.4h0.6V75.3z M174.6,77.8v-1.2c0-0.2,0-0.4,0.1-0.5c0.1-0.2,0.2-0.3,0.4-0.3c0.2,0,0.3,0.1,0.4,0.2
						c0,0.1,0.1,0.2,0.1,0.5v1.3h0.6v-1.5c0-0.3-0.1-0.5-0.2-0.7c-0.1-0.2-0.4-0.3-0.6-0.3c-0.3,0-0.6,0.1-0.8,0.4h0v-0.3h-0.6v2.4
						H174.6z M171.8,77.8c0.9,0,1.3-0.4,1.3-1.2v-2.1h-0.7v1.9c0,0.6-0.2,0.9-0.7,0.9c-0.5,0-0.7-0.3-0.7-0.9v-1.9h-0.7v2.1
						C170.5,77.4,170.9,77.8,171.8,77.8 M167.1,77.8v-1.2c0-0.2,0-0.4,0.1-0.5c0.1-0.2,0.2-0.3,0.4-0.3c0.2,0,0.3,0.1,0.4,0.2
						c0,0.1,0.1,0.2,0.1,0.5v1.3h0.6v-1.5c0-0.3-0.1-0.5-0.2-0.7c-0.1-0.2-0.4-0.3-0.6-0.3c-0.3,0-0.6,0.1-0.8,0.4h0v-0.3h-0.6v2.4
						H167.1z M163.7,77.5c0.2,0.2,0.5,0.4,0.9,0.4c0.4,0,0.7-0.1,0.9-0.4c0.2-0.2,0.3-0.5,0.3-0.9c0-0.4-0.1-0.7-0.4-0.9
						c-0.2-0.2-0.5-0.3-0.9-0.3s-0.7,0.1-0.9,0.3c-0.2,0.2-0.4,0.6-0.4,0.9C163.4,76.9,163.5,77.2,163.7,77.5 M164.2,76
						c0.1-0.2,0.3-0.2,0.5-0.2s0.3,0.1,0.5,0.2c0.1,0.1,0.2,0.3,0.2,0.5c0,0.6-0.2,0.8-0.6,0.8c-0.4,0-0.6-0.3-0.6-0.8
						C164.1,76.3,164.1,76.1,164.2,76 M162.2,75.3c-0.3,0-0.5,0.1-0.7,0.2c-0.2,0.1-0.3,0.3-0.3,0.6c0,0.3,0.1,0.4,0.3,0.6
						c0,0,0.2,0.1,0.5,0.2c0.2,0.1,0.3,0.2,0.3,0.3c0,0.1,0,0.2-0.1,0.2c-0.1,0-0.2,0.1-0.3,0.1c-0.2,0-0.4-0.1-0.6-0.2l0,0.5
						c0.3,0.1,0.5,0.1,0.7,0.1c0.3,0,0.5-0.1,0.7-0.2c0.2-0.1,0.3-0.3,0.3-0.6c0-0.3-0.1-0.4-0.3-0.6c-0.1-0.1-0.3-0.1-0.5-0.2
						c-0.2-0.1-0.3-0.1-0.3-0.2c0-0.2,0.1-0.3,0.4-0.3c0.2,0,0.4,0,0.6,0.1l0-0.5C162.6,75.3,162.4,75.3,162.2,75.3 M160,77.8v-0.9
						c0-0.3,0-0.5,0.1-0.6c0.1-0.2,0.2-0.4,0.4-0.4c0.1,0,0.2,0,0.3,0.1v-0.6c0,0-0.1,0-0.2,0c-0.2,0-0.3,0.1-0.5,0.2
						c-0.1,0.1-0.2,0.3-0.2,0.4h0v-0.6h-0.6v2.4H160z M157.8,77.4c-0.2,0-0.4-0.1-0.5-0.2c-0.1-0.1-0.2-0.3-0.2-0.5h1.7
						c0-0.5-0.1-0.8-0.2-1.1c-0.2-0.3-0.5-0.4-0.9-0.4c-0.4,0-0.6,0.1-0.8,0.4c-0.2,0.2-0.3,0.5-0.3,0.9c0,0.4,0.1,0.7,0.3,0.9
						c0.2,0.2,0.5,0.3,0.9,0.3c0.3,0,0.6-0.1,0.8-0.2v-0.5C158.4,77.3,158.1,77.4,157.8,77.4 M157.7,75.8c0.3,0,0.5,0.2,0.5,0.6
						h-1.1C157.2,75.9,157.4,75.8,157.7,75.8 M155.7,77.8v-2h0.6v-0.5h-0.6V75c0-0.2,0.1-0.4,0.3-0.4c0.1,0,0.2,0,0.3,0.1l0.1-0.5
						c-0.2,0-0.3-0.1-0.5-0.1c-0.2,0-0.4,0.1-0.6,0.2c-0.1,0.2-0.2,0.4-0.2,0.6v0.3h-0.5v0.5h0.5v2H155.7z M153.7,77.8v-2h0.6v-0.5
						h-0.6V75c0-0.2,0.1-0.4,0.3-0.4c0.1,0,0.2,0,0.3,0.1l0.1-0.5c-0.2,0-0.3-0.1-0.5-0.1c-0.2,0-0.4,0.1-0.6,0.2
						c-0.1,0.2-0.2,0.4-0.2,0.6v0.3h-0.5v0.5h0.5v2H153.7z M151.3,77.4c-0.2,0-0.4-0.1-0.5-0.2c-0.1-0.1-0.2-0.3-0.2-0.5h1.7
						c0-0.5-0.1-0.8-0.2-1.1c-0.2-0.3-0.5-0.4-0.9-0.4c-0.4,0-0.6,0.1-0.8,0.4c-0.2,0.2-0.3,0.5-0.3,0.9c0,0.4,0.1,0.7,0.3,0.9
						c0.2,0.2,0.5,0.3,0.9,0.3c0.3,0,0.6-0.1,0.8-0.2v-0.5C151.8,77.3,151.5,77.4,151.3,77.4 M151.1,75.8c0.3,0,0.5,0.2,0.5,0.6
						h-1.1C150.6,75.9,150.8,75.8,151.1,75.8 M148.4,77.8c0.3,0,0.5-0.1,0.7-0.3c0.1-0.2,0.2-0.3,0.2-0.6v-2.5h-0.7v2.2
						c0,0.2,0,0.3-0.1,0.4c-0.1,0.1-0.2,0.2-0.4,0.2c-0.1,0-0.2,0-0.3-0.1v0.6C148.1,77.8,148.3,77.8,148.4,77.8 M145.6,75.3
						c-0.3,0-0.5,0.1-0.7,0.2c-0.2,0.1-0.3,0.3-0.3,0.6c0,0.3,0.1,0.4,0.3,0.6c0,0,0.2,0.1,0.5,0.2c0.2,0.1,0.3,0.2,0.3,0.3
						c0,0.1,0,0.2-0.1,0.2c-0.1,0-0.2,0.1-0.3,0.1c-0.2,0-0.4-0.1-0.6-0.2l0,0.5c0.3,0.1,0.5,0.1,0.7,0.1c0.3,0,0.5-0.1,0.7-0.2
						c0.2-0.1,0.3-0.3,0.3-0.6c0-0.3-0.1-0.4-0.3-0.6c-0.1-0.1-0.3-0.1-0.5-0.2c-0.2-0.1-0.3-0.1-0.3-0.2c0-0.2,0.1-0.3,0.4-0.3
						c0.2,0,0.4,0,0.6,0.1l0-0.5C146,75.3,145.7,75.3,145.6,75.3 M142.9,75.8c0.2,0,0.3,0,0.4,0.1c0.1,0.1,0.1,0.2,0.1,0.4h-0.3
						c-0.4,0-0.6,0-0.8,0.1c-0.3,0.1-0.4,0.4-0.4,0.7c0,0.2,0.1,0.4,0.3,0.5c0.2,0.1,0.4,0.2,0.6,0.2c0.2,0,0.3,0,0.4-0.1
						s0.2-0.2,0.3-0.3h0c0,0.2,0,0.3,0,0.4h0.6c0-0.2,0-0.4,0-0.5c0-0.2,0-0.4,0-0.6v-0.3c0-0.4-0.1-0.6-0.2-0.8
						c-0.2-0.2-0.4-0.2-0.8-0.2c-0.3,0-0.6,0.1-0.8,0.2l0,0.5C142.4,75.8,142.6,75.8,142.9,75.8 M143.2,76.7h0.3
						c0,0.1,0,0.3-0.1,0.4c-0.1,0.2-0.3,0.3-0.5,0.3c-0.3,0-0.4-0.1-0.4-0.3C142.5,76.8,142.7,76.7,143.2,76.7 M138.4,77.8v-1.2
						c0-0.5,0.2-0.8,0.5-0.8c0.2,0,0.3,0.1,0.3,0.2c0,0.1,0,0.2,0,0.4v1.5h0.6v-1.2c0-0.5,0.2-0.8,0.5-0.8c0.2,0,0.3,0.1,0.3,0.2
						c0,0.1,0,0.2,0,0.4v1.5h0.6v-1.5c0-0.6-0.3-1-0.8-1c-0.2,0-0.3,0-0.4,0.1c-0.1,0.1-0.3,0.2-0.3,0.3c-0.1-0.3-0.4-0.4-0.7-0.4
						c-0.3,0-0.5,0.1-0.7,0.4h0v-0.3h-0.6v2.4H138.4z M135,77.5c0.2,0.2,0.5,0.4,0.9,0.4c0.4,0,0.7-0.1,0.9-0.4
						c0.2-0.2,0.3-0.5,0.3-0.9c0-0.4-0.1-0.7-0.4-0.9c-0.2-0.2-0.5-0.3-0.9-0.3c-0.4,0-0.7,0.1-0.9,0.3c-0.2,0.2-0.4,0.6-0.4,0.9
						C134.7,76.9,134.8,77.2,135,77.5 M135.5,76c0.1-0.2,0.3-0.2,0.5-0.2s0.3,0.1,0.5,0.2c0.1,0.1,0.2,0.3,0.2,0.5
						c0,0.6-0.2,0.8-0.6,0.8c-0.4,0-0.6-0.3-0.6-0.8C135.3,76.3,135.4,76.1,135.5,76 M132.5,77.8v-1.2c0-0.2,0-0.4,0.1-0.5
						c0.1-0.2,0.2-0.3,0.4-0.3c0.2,0,0.3,0.1,0.4,0.2c0,0.1,0.1,0.2,0.1,0.5v1.3h0.6v-1.5c0-0.3-0.1-0.5-0.2-0.7
						c-0.1-0.2-0.4-0.3-0.6-0.3c-0.3,0-0.6,0.1-0.8,0.4v-1.4h-0.6v3.5H132.5z M130.4,77.8V75h0.9v-0.5h-2.6V75h0.9v2.8H130.4z
						 M184.6,71.4h-1v1h-0.5v-1h-1v-0.5h1v-1h0.5v1h1V71.4z M178.5,69.9l0.9,2.6c0,0.1,0,0.2-0.1,0.3c-0.1,0.1-0.2,0.1-0.3,0.1
						c-0.1,0-0.2,0-0.3,0l0,0.5c0.2,0,0.3,0.1,0.4,0.1c0.3,0,0.5-0.1,0.7-0.3c0.1-0.1,0.2-0.4,0.3-0.7l0.9-2.4h-0.6l-0.6,1.8h0
						l-0.6-1.8H178.5z M177.2,72.2c0.1,0.1,0.3,0.2,0.6,0.2c0.2,0,0.3,0,0.5-0.1l0-0.5c-0.1,0-0.2,0.1-0.3,0.1
						c-0.2,0-0.3-0.1-0.3-0.4v-1.1h0.6v-0.5h-0.6v-0.7l-0.6,0.2v0.5h-0.5v0.5h0.5v1.2C177,71.9,177.1,72.1,177.2,72.2 M176.1,68.9
						h-0.6v0.6h0.6V68.9z M176.1,69.9h-0.6v2.4h0.6V69.9z M174.1,69.9c-0.3,0-0.5,0.1-0.7,0.2c-0.2,0.1-0.3,0.3-0.3,0.6
						c0,0.3,0.1,0.4,0.3,0.6c0,0,0.2,0.1,0.5,0.2c0.2,0.1,0.3,0.2,0.3,0.3c0,0.1,0,0.2-0.1,0.2c-0.1,0-0.2,0.1-0.3,0.1
						c-0.2,0-0.4-0.1-0.6-0.2l0,0.5c0.3,0.1,0.5,0.1,0.7,0.1c0.3,0,0.5-0.1,0.7-0.2c0.2-0.1,0.3-0.3,0.3-0.6c0-0.3-0.1-0.4-0.3-0.6
						c-0.1-0.1-0.3-0.1-0.5-0.2c-0.2-0.1-0.3-0.1-0.3-0.2c0-0.2,0.1-0.3,0.4-0.3c0.2,0,0.4,0,0.6,0.1l0-0.5
						C174.5,69.9,174.2,69.9,174.1,69.9 M171.9,72.4v-0.9c0-0.3,0-0.5,0.1-0.6c0.1-0.2,0.2-0.4,0.4-0.4c0.1,0,0.2,0,0.3,0.1v-0.6
						c0,0-0.1,0-0.2,0c-0.2,0-0.3,0.1-0.5,0.2c-0.1,0.1-0.2,0.3-0.2,0.4h0v-0.6h-0.6v2.4H171.9z M169.7,72c-0.2,0-0.4-0.1-0.5-0.2
						c-0.1-0.1-0.2-0.3-0.2-0.5h1.7c0-0.5-0.1-0.8-0.2-1.1c-0.2-0.3-0.5-0.4-0.9-0.4c-0.4,0-0.6,0.1-0.8,0.4
						c-0.2,0.2-0.3,0.5-0.3,0.9c0,0.4,0.1,0.7,0.3,0.9c0.2,0.2,0.5,0.3,0.9,0.3c0.3,0,0.6-0.1,0.8-0.2v-0.5
						C170.2,71.9,170,72,169.7,72 M169.6,70.4c0.3,0,0.5,0.2,0.5,0.6H169C169.1,70.5,169.2,70.4,169.6,70.4 M167.3,72.4l0.9-2.4
						h-0.6l-0.6,1.8h0l-0.6-1.8h-0.7l0.9,2.4H167.3z M165.2,68.9h-0.6v0.6h0.6V68.9z M165.2,69.9h-0.6v2.4h0.6V69.9z M162.3,72.4
						v-1.2c0-0.2,0-0.4,0.1-0.5c0.1-0.2,0.2-0.3,0.4-0.3c0.2,0,0.3,0.1,0.4,0.2c0,0.1,0.1,0.2,0.1,0.5v1.3h0.6v-1.5
						c0-0.3-0.1-0.5-0.2-0.7c-0.1-0.2-0.4-0.3-0.6-0.3c-0.3,0-0.6,0.1-0.8,0.4h0v-0.3h-0.6v2.4H162.3z M159.5,72.4
						c0.9,0,1.3-0.4,1.3-1.2v-2.1h-0.7V71c0,0.6-0.2,0.9-0.7,0.9c-0.5,0-0.7-0.3-0.7-0.9v-1.9h-0.7v2.1
						C158.2,72,158.6,72.4,159.5,72.4 M155.3,70.4c0.2,0,0.3,0,0.4,0.1c0.1,0.1,0.1,0.2,0.1,0.4h-0.3c-0.4,0-0.6,0-0.8,0.1
						c-0.3,0.1-0.4,0.4-0.4,0.7c0,0.2,0.1,0.4,0.3,0.5c0.2,0.1,0.4,0.2,0.6,0.2c0.2,0,0.3,0,0.4-0.1c0.1-0.1,0.2-0.2,0.3-0.3h0
						c0,0.2,0,0.3,0,0.4h0.6c0-0.2,0-0.4,0-0.5c0-0.2,0-0.4,0-0.6v-0.3c0-0.4-0.1-0.6-0.2-0.8c-0.2-0.2-0.4-0.2-0.8-0.2
						c-0.3,0-0.6,0.1-0.8,0.2l0,0.5C154.8,70.4,155.1,70.4,155.3,70.4 M155.6,71.3h0.3c0,0.1,0,0.3-0.1,0.4
						c-0.1,0.2-0.3,0.3-0.5,0.3c-0.3,0-0.4-0.1-0.4-0.3C154.9,71.4,155.2,71.3,155.6,71.3 M153.7,68.9h-0.6v0.6h0.6V68.9z
						 M153.7,69.9h-0.6v2.4h0.6V69.9z M150.8,72.4v-1.2c0-0.2,0-0.4,0.1-0.5c0.1-0.2,0.2-0.3,0.4-0.3c0.2,0,0.3,0.1,0.4,0.2
						c0,0.1,0.1,0.2,0.1,0.5v1.3h0.6v-1.5c0-0.3-0.1-0.5-0.2-0.7c-0.1-0.2-0.4-0.3-0.6-0.3c-0.3,0-0.6,0.1-0.8,0.4v-1.4h-0.6v3.5
						H150.8z M147.8,73.4v-1.3c0.2,0.2,0.4,0.3,0.7,0.3c0.4,0,0.6-0.1,0.8-0.4c0.2-0.2,0.2-0.5,0.2-0.9c0-0.4-0.1-0.7-0.2-0.9
						c-0.2-0.3-0.4-0.4-0.8-0.4c-0.3,0-0.6,0.1-0.8,0.4h0v-0.3h-0.6v3.4H147.8z M148.8,70.6c0.1,0.1,0.1,0.3,0.1,0.5
						c0,0.2,0,0.4-0.1,0.5c-0.1,0.2-0.2,0.3-0.4,0.3c-0.2,0-0.3-0.1-0.4-0.3c-0.1-0.1-0.1-0.3-0.1-0.5c0-0.2,0-0.4,0.1-0.5
						c0.1-0.2,0.2-0.3,0.4-0.3S148.7,70.5,148.8,70.6 M146.5,68.8h-0.6v3.5h0.6V68.8z M144.2,72c-0.2,0-0.4-0.1-0.5-0.2
						c-0.1-0.1-0.2-0.3-0.2-0.5h1.7c0-0.5-0.1-0.8-0.2-1.1c-0.2-0.3-0.5-0.4-0.9-0.4c-0.4,0-0.6,0.1-0.8,0.4
						c-0.2,0.2-0.3,0.5-0.3,0.9c0,0.4,0.1,0.7,0.3,0.9c0.2,0.2,0.5,0.3,0.9,0.3c0.3,0,0.6-0.1,0.8-0.2v-0.5
						C144.8,71.9,144.5,72,144.2,72 M144.1,70.4c0.3,0,0.5,0.2,0.5,0.6h-1.1C143.6,70.5,143.8,70.4,144.1,70.4 M142.4,72.4v-3.5
						h-0.6v1.4c-0.2-0.2-0.4-0.3-0.7-0.3c-0.4,0-0.6,0.1-0.8,0.4c-0.2,0.2-0.2,0.5-0.2,0.9c0,0.4,0.1,0.7,0.2,0.9
						c0.2,0.3,0.4,0.4,0.8,0.4c0.3,0,0.6-0.1,0.7-0.3h0v0.3H142.4z M140.7,70.6c0.1-0.2,0.2-0.3,0.4-0.3c0.2,0,0.3,0.1,0.4,0.3
						c0.1,0.1,0.1,0.3,0.1,0.5c0,0.2,0,0.4-0.1,0.5c-0.1,0.2-0.2,0.3-0.4,0.3c-0.2,0-0.3-0.1-0.4-0.3c-0.1-0.1-0.1-0.3-0.1-0.5
						C140.6,71,140.7,70.8,140.7,70.6 M138.3,70.4c0.2,0,0.3,0,0.4,0.1c0.1,0.1,0.1,0.2,0.1,0.4h-0.3c-0.4,0-0.6,0-0.8,0.1
						c-0.3,0.1-0.4,0.4-0.4,0.7c0,0.2,0.1,0.4,0.3,0.5c0.2,0.1,0.4,0.2,0.6,0.2c0.2,0,0.3,0,0.4-0.1s0.2-0.2,0.3-0.3h0
						c0,0.2,0,0.3,0,0.4h0.6c0-0.2,0-0.4,0-0.5c0-0.2,0-0.4,0-0.6v-0.3c0-0.4-0.1-0.6-0.2-0.8c-0.2-0.2-0.4-0.2-0.8-0.2
						c-0.3,0-0.6,0.1-0.8,0.2l0,0.5C137.8,70.4,138,70.4,138.3,70.4 M138.6,71.3h0.3c0,0.1,0,0.3-0.1,0.4c-0.1,0.2-0.3,0.3-0.5,0.3
						c-0.3,0-0.4-0.1-0.4-0.3C137.9,71.4,138.1,71.3,138.6,71.3 M136.7,68.8h-0.6v3.5h0.6V68.8z M135.3,68.9h-0.6v0.6h0.6V68.9z
						 M135.3,69.9h-0.6v2.4h0.6V69.9z M132.4,72.4v-1.2c0-0.2,0-0.4,0.1-0.5c0.1-0.2,0.2-0.3,0.4-0.3c0.2,0,0.3,0.1,0.4,0.2
						c0,0.1,0.1,0.2,0.1,0.5v1.3h0.6v-1.5c0-0.3-0.1-0.5-0.2-0.7c-0.1-0.2-0.4-0.3-0.6-0.3c-0.3,0-0.6,0.1-0.8,0.4v-1.4h-0.6v3.5
						H132.4z M129.7,72.4v-1.3h0.3c0.4,0,0.7-0.1,0.9-0.2c0.2-0.2,0.4-0.5,0.4-0.8c0-0.7-0.5-1-1.4-1H129v3.3H129.7z M129.9,69.6
						c0.4,0,0.6,0.2,0.6,0.5c0,0.3-0.2,0.5-0.6,0.5h-0.2v-1H129.9z M185.9,56.6h2v1.1h0c0.7-0.9,1.6-1.3,2.7-1.3
						c1.9,0,2.8,1.4,2.8,3.2v5.1h-2.1v-4.3c0-1,0-2.3-1.4-2.3c-1.5,0-1.9,1.7-1.9,2.7v4h-2.1V56.6z M180.4,63.2c-1.6,0-2-1.5-2-2.8
						c0-1.2,0.7-2.4,2-2.4c1.4,0,2.1,1.2,2.1,2.4C182.4,61.8,182,63.2,180.4,63.2 M180.4,56.4c-2.4,0-4.2,1.6-4.2,4.3
						c0,2.3,1.6,4.2,4.2,4.2c2.7,0,4.3-1.9,4.3-4.2C184.6,58,182.8,56.4,180.4,56.4 M174.8,56.7c-0.7-0.1-1.3-0.3-2.3-0.3
						c-1.7,0-3.2,0.8-3.2,2.5c0,2.9,3.7,1.8,3.7,3.4c0,0.8-0.9,1-1.4,1c-0.7,0-1.4-0.2-2.1-0.5l-0.1,1.7c0.8,0.2,1.6,0.3,2.4,0.3
						c1.7,0,3.4-0.8,3.4-2.6c0-2.9-3.7-2.1-3.7-3.4c0-0.7,0.7-0.9,1.2-0.9c0.8,0,1.2,0.1,1.9,0.3L174.8,56.7z M163.8,64.7h2.1v-3
						c0-1.2,0-3.3,1.7-3.3c0.4,0,0.8,0.1,0.9,0.2v-2.1c-0.2-0.1-0.4-0.1-0.6-0.1c-1.3,0-2.1,1.3-2.2,2h0v-1.8h-1.9V64.7z
						 M157.1,59.8c0.1-1.1,0.7-1.9,1.9-1.9c1.2,0,1.7,0.9,1.7,1.9H157.1z M162.2,62.5c-0.8,0.4-1.7,0.8-2.7,0.8
						c-1.3,0-2.2-0.7-2.3-2h5.6c0-2.8-0.9-4.9-3.9-4.9c-2.5,0-3.8,1.9-3.8,4.3c0,2.7,1.6,4.2,4.2,4.2c1.1,0,2-0.2,2.8-0.6V62.5z
						 M150.7,64.7h2.1v-6.6h1.8v-1.5h-1.8v-1c0-0.6,0.2-1.2,0.9-1.2c0.5,0,0.7,0.2,0.9,0.3l0.2-1.8c-0.4-0.1-1-0.2-1.5-0.2
						c-1.7,0-2.6,1.1-2.6,2.8v1.1h-1.6v1.5h1.6V64.7z M144.7,64.7h2.1v-6.6h1.8v-1.5h-1.8v-1c0-0.6,0.2-1.2,0.9-1.2
						c0.5,0,0.7,0.2,0.9,0.3l0.2-1.8c-0.4-0.1-1-0.2-1.5-0.2c-1.7,0-2.6,1.1-2.6,2.8v1.1h-1.6v1.5h1.6V64.7z M136.9,59.8
						c0.1-1.1,0.7-1.9,1.9-1.9c1.2,0,1.7,0.9,1.7,1.9H136.9z M141.9,62.5c-0.8,0.4-1.7,0.8-2.7,0.8c-1.3,0-2.2-0.7-2.3-2h5.6
						c0-2.8-0.9-4.9-3.9-4.9c-2.5,0-3.8,1.9-3.8,4.3c0,2.7,1.6,4.2,4.2,4.2c1.1,0,2-0.2,2.8-0.6V62.5z M128.8,64.7
						c0.6,0.2,1.1,0.2,1.7,0.2c2.3,0,3-1.6,3-2.8v-9h-2.2v8c0,0.8,0,1.9-1.4,1.9c-0.4,0-0.8-0.1-1.1-0.2V64.7z"/>
					<polygon class="st3" points="169.6,46.6 170,46.6 170.7,48.4 171.4,46.6 171.7,46.6 171.7,48.6 171.5,48.6 171.5,46.8 
						171.5,46.8 170.8,48.6 170.6,48.6 169.9,46.8 169.8,46.8 169.8,48.6 169.6,48.6 					"/>
					<polygon class="st3" points="168.6,46.8 168,46.8 168,46.6 169.4,46.6 169.4,46.8 168.8,46.8 168.8,48.6 168.6,48.6 					"/>
					<path class="st3" d="M147.2,19.5V28h16.9v7.4c0,2.3-1.9,4.3-4.3,4.3s-4.3-1.9-4.3-4.3v-2.5h-8.4v2.5c0,3.1,1.1,6,3,8.2
						c0,0,3.2,4.1,9.6,5.5c6.4-1.5,9.6-5.5,9.6-5.5c1.9-2.2,3-5.1,3-8.2V19.5H147.2z"/>
				</g>
			</g>
		</g>
		<g>
			<g>
				<path class="st4" d="M78.6,22.9H79c0.5,0,0.9-0.2,0.9-0.6c0-0.3-0.2-0.7-0.9-0.7c-0.2,0-0.3,0-0.5,0V22.9z M78.6,25.1h-0.7v-3.9
					c0.3-0.1,0.6-0.1,1.1-0.1c0.6,0,1,0.1,1.2,0.3c0.2,0.2,0.3,0.4,0.3,0.8c0,0.5-0.3,0.8-0.8,0.9v0c0.3,0.1,0.5,0.4,0.6,0.9
					c0.1,0.6,0.2,0.8,0.2,1H80c-0.1-0.1-0.2-0.5-0.2-1c-0.1-0.5-0.3-0.7-0.8-0.7h-0.4L78.6,25.1L78.6,25.1z M79.2,20.2
					c-1.5,0-2.8,1.3-2.8,2.9s1.2,2.9,2.8,2.9s2.8-1.3,2.8-2.9S80.8,20.2,79.2,20.2L79.2,20.2z M79.2,19.6c1.9,0,3.4,1.5,3.4,3.5
					c0,2-1.5,3.5-3.5,3.5c-1.9,0-3.5-1.5-3.5-3.5C75.7,21.1,77.3,19.6,79.2,19.6L79.2,19.6z"/>
				<path class="st4" d="M29.5,81.7l-0.6-3.4c-0.2-1-0.4-2.5-0.5-3.6h-0.1c-0.2,1.1-0.4,2.7-0.6,3.6l-0.6,3.4H29.5z M26.8,84
					L26,87.8h-2.8l3.5-15.9h3.4l3.2,15.9h-2.8L29.8,84H26.8z"/>
				<path class="st4" d="M39.7,80.7c0-0.2,0-0.5,0-0.7c-0.1-0.8-0.5-1.5-1.2-1.5c-1.1,0-1.6,1.7-1.6,3.6c0,2.2,0.6,3.5,1.5,3.5
					c0.4,0,0.9-0.2,1.2-1.1c0.1-0.2,0.1-0.4,0.1-0.7L39.7,80.7z M42.5,71.5v13c0,1,0.1,2.3,0.1,3.3h-2.5L40,86.5h-0.1
					c-0.4,0.8-1.3,1.5-2.4,1.5C35.2,88,34,85.3,34,82c0-4,1.8-6,3.7-6c1,0,1.6,0.5,2,1.2h0.1v-5.8H42.5z"/>
				<path class="st4" d="M48.5,85.8c1.1,0,1.4-2.1,1.4-3.8c0-1.6-0.3-3.7-1.4-3.7c-1.2,0-1.5,2.1-1.5,3.7C47,84,47.3,85.8,48.5,85.8
					L48.5,85.8z M48.5,88c-2.6,0-4.3-2.1-4.3-5.9c0-4.1,2.1-6,4.4-6c2.6,0,4.2,2.2,4.2,5.9C52.8,86.8,50.2,88,48.5,88L48.5,88z"/>
				<path class="st4" d="M57.2,83.7c0,0.3,0.1,0.5,0.1,0.7c0.3,1,0.8,1.2,1.2,1.2c1.1,0,1.5-1.4,1.5-3.7c0-2.1-0.5-3.4-1.6-3.4
					c-0.5,0-1,0.6-1.1,1.2c-0.1,0.2-0.1,0.5-0.1,0.7V83.7z M54.4,71.5h2.9v6h0.1c0.6-0.9,1.3-1.4,2.4-1.4c2.2,0,3.2,2.4,3.2,5.7
					c0,4.1-1.6,6.2-3.7,6.2c-1,0-1.7-0.5-2.3-1.6h-0.1l-0.2,1.4h-2.4c0-1,0.1-2.3,0.1-3.3L54.4,71.5L54.4,71.5z"/>
				<path class="st4" d="M69.8,81c0-1.6-0.5-2.8-1.4-2.8c-1,0-1.5,1.5-1.5,2.8H69.8z M66.9,83c0,2.1,1.1,2.8,2.5,2.8
					c0.9,0,1.6-0.2,2.1-0.4l0.4,2.1c-0.8,0.3-1.9,0.5-3.1,0.5c-3.1,0-4.7-2.1-4.7-5.7c0-3.9,1.9-6.2,4.5-6.2c2.4,0,3.8,2.1,3.8,5.4
					c0,0.8,0,1.2-0.1,1.5L66.9,83z"/>
				<polygon class="st4" points="54.1,19.4 72.5,19.4 72.5,63.4 				"/>
				<polygon class="st4" points="41.2,19.4 22.8,19.4 22.8,63.4 				"/>
				<polygon class="st4" points="47.6,35.6 59.4,63.4 51.7,63.4 48.2,54.5 39.6,54.5 				"/>
			</g>
		</g>
		<line class="st5" x1="108.1" y1="19.8" x2="108.1" y2="88.4"/>
	</g>
</g>
</svg>
