<?xml version="1.0" encoding="utf-8"?>
<!-- Generator: Adobe Illustrator 23.0.0, SVG Export Plug-In . SVG Version: 6.00 Build 0)  -->
<svg version="1.1" id="Layer_1" xmlns="http://www.w3.org/2000/svg" xmlns:xlink="http://www.w3.org/1999/xlink" x="0px" y="0px"
	 viewBox="0 0 72 72" style="enable-background:new 0 0 72 72;" xml:space="preserve">
<style type="text/css">
	.st0{fill:#579BCA;}
</style>
<g>
	<path class="st0" d="M35.81,51.75L35.81,51.75c-0.73,0-1.42-0.32-1.89-0.87L16.17,29.95c-0.62-0.74-0.76-1.77-0.36-2.65
		c0.41-0.87,1.28-1.44,2.25-1.44h7.64V10.2c0-1.37,1.11-2.48,2.48-2.48h15.37c1.37,0,2.48,1.11,2.48,2.48v15.67h7.64
		c0.97,0,1.85,0.56,2.25,1.44c0.41,0.88,0.26,1.91-0.36,2.65L37.7,50.88C37.22,51.43,36.54,51.75,35.81,51.75z M23.41,30.82
		l12.4,14.62L48.3,30.82h-4.74c-1.37,0-2.48-1.11-2.48-2.48V12.68H30.66v15.67c0,1.37-1.11,2.48-2.48,2.48H23.41z"/>
	<path class="st0" d="M64.31,64.28H7.55c-3.96,0-7.18-3.22-7.18-7.18V45.76c0-3.96,3.22-7.18,7.18-7.18h10.52
		c1.37,0,2.48,1.11,2.48,2.48s-1.11,2.48-2.48,2.48H7.55c-1.23,0-2.22,1-2.22,2.22V57.1c0,1.23,1,2.22,2.22,2.22h56.76
		c1.23,0,2.23-1,2.23-2.22V45.76c0-1.23-1-2.22-2.23-2.22H53.82c-1.37,0-2.48-1.11-2.48-2.48s1.11-2.48,2.48-2.48h10.49
		c3.96,0,7.18,3.22,7.18,7.18V57.1C71.49,61.06,68.27,64.28,64.31,64.28z"/>
</g>
</svg>
