<?xml version="1.0" encoding="utf-8"?>
<!-- Generator: Adobe Illustrator 23.0.0, SVG Export Plug-In . SVG Version: 6.00 Build 0)  -->
<svg version="1.1" id="Layer_1" xmlns="http://www.w3.org/2000/svg" xmlns:xlink="http://www.w3.org/1999/xlink" x="0px" y="0px"
	 viewBox="0 0 72 72" style="enable-background:new 0 0 72 72;" xml:space="preserve">
<style type="text/css">
	.st0{fill:#579BCA;}
</style>
<g>
	<path class="st0" d="M19.44,7.32c1.01-0.94,2.12-1.84,3.34-2.68c1.22-0.85,2.55-1.59,4-2.24c1.45-0.65,3.01-1.16,4.68-1.54
		c1.67-0.37,3.49-0.56,5.44-0.56c2.57,0,4.95,0.37,7.15,1.12c2.19,0.75,4.09,1.8,5.68,3.17c1.59,1.37,2.85,3.02,3.76,4.98
		c0.91,1.95,1.36,4.14,1.36,6.58c0,2.47-0.36,4.6-1.1,6.39c-0.73,1.79-1.66,3.36-2.78,4.71c-1.12,1.35-2.34,2.52-3.66,3.51
		c-1.32,0.99-2.56,1.93-3.73,2.8c-1.17,0.88-2.17,1.76-3,2.63c-0.83,0.88-1.31,1.85-1.44,2.93l-0.88,7.46h-5.95l-0.58-8.1
		c-0.13-1.46,0.15-2.74,0.83-3.83c0.68-1.09,1.58-2.11,2.68-3.07c1.1-0.96,2.32-1.9,3.66-2.83c1.33-0.93,2.58-1.96,3.73-3.1
		c1.15-1.14,2.12-2.43,2.9-3.88c0.78-1.45,1.17-3.18,1.17-5.19c0-1.4-0.28-2.67-0.83-3.8c-0.55-1.14-1.3-2.1-2.24-2.9
		c-0.94-0.8-2.06-1.41-3.34-1.83c-1.28-0.42-2.66-0.63-4.12-0.63c-1.98,0-3.68,0.24-5.1,0.73c-1.41,0.49-2.61,1.03-3.58,1.61
		c-0.98,0.58-1.76,1.12-2.37,1.61c-0.6,0.49-1.1,0.73-1.49,0.73c-0.81,0-1.45-0.37-1.9-1.12L19.44,7.32z M28.95,65.6
		c0-0.84,0.15-1.64,0.46-2.39c0.31-0.75,0.73-1.4,1.27-1.95c0.54-0.55,1.18-0.99,1.93-1.32c0.75-0.32,1.54-0.49,2.39-0.49
		c0.84,0,1.64,0.16,2.39,0.49c0.75,0.33,1.4,0.76,1.95,1.32c0.55,0.55,0.99,1.2,1.32,1.95c0.32,0.75,0.49,1.55,0.49,2.39
		c0,0.88-0.16,1.68-0.49,2.41c-0.32,0.73-0.76,1.38-1.32,1.93c-0.55,0.55-1.2,0.98-1.95,1.29c-0.75,0.31-1.55,0.46-2.39,0.46
		c-0.85,0-1.64-0.15-2.39-0.46c-0.75-0.31-1.39-0.74-1.93-1.29c-0.54-0.55-0.96-1.2-1.27-1.93S28.95,66.48,28.95,65.6z"/>
</g>
</svg>
