<svg id="Layer_1" data-name="Layer 1" xmlns="http://www.w3.org/2000/svg" viewBox="0 0 140.33 5.67"><defs><style>.cls-1{fill:#fff;}</style></defs><title>graphic-dotted-line</title><circle class="cls-1" cx="3" cy="3" r="2"/><circle class="cls-1" cx="10.2" cy="3" r="2"/><circle class="cls-1" cx="17.8" cy="3" r="2"/><circle class="cls-1" cx="25.8" cy="3" r="2"/><circle class="cls-1" cx="31.4" cy="3" r="2"/><path class="cls-1" d="M41,1a2,2,0,0,0-1.2.41A2,2,0,0,0,38.6,1a2,2,0,0,0-1.4.57,2,2,0,1,0,0,2.86A2,2,0,0,0,38.6,5a2,2,0,0,0,1.2-.41A2,2,0,0,0,41,5h99.52V1Z"/></svg>