<svg id="Layer_37" data-name="Layer 37" xmlns="http://www.w3.org/2000/svg" viewBox="0 0 50 50"><defs><style>.cls-1{fill:#fff;}</style></defs><title>icon-my-care-360</title><path class="cls-1" d="M44.23,15.45a2.27,2.27,0,0,1,2.92,1.37h0a2.34,2.34,0,0,1-1.36,3,2.27,2.27,0,0,1-2.91-1.37v0A2.33,2.33,0,0,1,44.23,15.45Z"/><path class="cls-1" d="M40,11.92A2.27,2.27,0,0,1,42.58,10h0a2.3,2.3,0,0,1,1.89,2.64,2.27,2.27,0,0,1-2.58,1.91h0A2.3,2.3,0,0,1,40,11.92Z"/><path class="cls-1" d="M39.16,5.85a2.33,2.33,0,0,1,.43,3.25,2.24,2.24,0,0,1-3.13.48l-.06,0A2.32,2.32,0,0,1,36,6.3a2.25,2.25,0,0,1,3.14-.49Z"/><path class="cls-1" d="M30.06,3.14a2.25,2.25,0,0,1,3.13-.54l0,0a2.34,2.34,0,0,1,.5,3.22,2.24,2.24,0,0,1-3.13.53l0,0A2.33,2.33,0,0,1,30.06,3.14Z"/><path class="cls-1" d="M24.94,1a2.28,2.28,0,0,1,2.27,2.29h0a2.27,2.27,0,1,1-4.53.07V3.3A2.28,2.28,0,0,1,24.93,1Z"/><path class="cls-1" d="M44.23,22.46a2.25,2.25,0,0,1,3-1l0,0a2.32,2.32,0,0,1,1,3.1,2.25,2.25,0,0,1-3,1l0,0A2.31,2.31,0,0,1,44.23,22.46Z"/><path class="cls-1" d="M46.33,26.9a2.32,2.32,0,0,1,1.8,2.72,2.29,2.29,0,0,1-2.67,1.83h0a2.32,2.32,0,0,1,.87-4.55Z"/><path class="cls-1" d="M45.27,32.11a2.3,2.3,0,0,1,1.09,3.07h0a2.25,2.25,0,0,1-3,1.15l-.08,0a2.31,2.31,0,0,1,1.94-4.19Z"/><path class="cls-1" d="M1.32,24.82c0-.08,0-.14,0-.22s0-.14,0-.22a.45.45,0,0,1,0-.23c0-.08,0-.13,0-.22v-.22c0-.08,0-.14,0-.22v-.22c0-.09,0-.14,0-.2v-.22c0-.08,0-.14,0-.19v-.22a.46.46,0,0,1,.05-.2V22a.31.31,0,0,1,.06-.19V21.6a.41.41,0,0,1,.05-.19v-.22a.46.46,0,0,1,0-.2.83.83,0,0,1,0-.22.33.33,0,0,1,.06-.19.53.53,0,0,1,0-.22.36.36,0,0,1,.06-.2.42.42,0,0,1,0-.22,1.33,1.33,0,0,0,0-.19.61.61,0,0,1,0-.23A1.05,1.05,0,0,0,2,19.33a.78.78,0,0,1,0-.22,1.67,1.67,0,0,1,.08-.2c0-.08,0-.13,0-.22s.05-.14.08-.19,0-.14,0-.2,0-.13.08-.19a.63.63,0,0,0,0-.19s0-.06.08-.12a1.8,1.8,0,0,1,0-.19,1.54,1.54,0,0,0,.08-.19c0-.06,0-.14.06-.2s0-.14.08-.19,0-.14.06-.2,0-.13.08-.19a1.05,1.05,0,0,1,.05-.19,1.67,1.67,0,0,0,.08-.2c0-.05,0-.14.06-.19a2,2,0,0,1,.11-.2,1.8,1.8,0,0,1,0-.19,1.18,1.18,0,0,1,.11-.19c0-.06,0-.14.06-.2a1.14,1.14,0,0,0,.1-.19,1.62,1.62,0,0,1,.06-.22,2,2,0,0,0,.11-.2c0-.05,0-.14.08-.19s.08-.11.11-.17.05-.14.08-.19S4,14,4,14s0-.14.08-.19.08-.11.11-.17a1.54,1.54,0,0,0,.08-.19c0-.06.08-.11.11-.17s.06-.14.08-.19.09-.11.11-.17.06-.14.08-.19a.79.79,0,0,1,.14-.17c0-.06.06-.14.08-.19A.79.79,0,0,1,5,12.15c0-.06,0-.14.08-.2a.7.7,0,0,1,.14-.16.56.56,0,0,1,.11-.2.65.65,0,0,1,.13-.16.78.78,0,0,1,.11-.2.7.7,0,0,1,.14-.16,2,2,0,0,1,.11-.2s.08-.11.13-.16a1,1,0,0,1,.11-.17c.06,0,.08-.11.14-.17a.57.57,0,0,1,.11-.16l.13-.14c0-.06.09-.11.11-.17l.14-.14L6.8,9.6l.14-.14c0-.06.08-.11.1-.17a2.09,2.09,0,0,0,.17-.14A.64.64,0,0,0,7.32,9a2,2,0,0,1,.16-.14c.06-.06.08-.11.14-.17a2,2,0,0,0,.16-.14c.06,0,.08-.11.14-.16a2,2,0,0,1,.16-.14c.06-.06.08-.11.14-.17a2,2,0,0,0,.16-.14c.06,0,.08-.11.14-.16s.11-.08.16-.14.08-.11.14-.17A2,2,0,0,0,9,7.32c.06-.05.08-.11.14-.16a.42.42,0,0,1,.16-.11c.06-.06.08-.11.14-.17a.57.57,0,0,1,.16-.11c.06-.06.08-.11.14-.14a.91.91,0,0,1,.16-.11c.06,0,.08-.11.14-.14a.91.91,0,0,1,.16-.11c.06,0,.08-.11.14-.14A.91.91,0,0,1,10.48,6a.79.79,0,0,1,.17-.14.64.64,0,0,1,.16-.11A1.07,1.07,0,0,1,11,5.63a.52.52,0,0,1,.19-.11,2.09,2.09,0,0,0,.17-.14l.19-.11a2,2,0,0,0,.16-.14A1.18,1.18,0,0,0,11.87,5,2.09,2.09,0,0,0,12,4.88l.19-.08a2,2,0,0,0,.16-.14l.19-.08a.75.75,0,0,0,.17-.14l.19-.08a1.53,1.53,0,0,1,.16-.11l.19-.09c.06,0,.11-.08.17-.11L13.65,4l.16-.11L14,3.78c.06,0,.11-.09.16-.12l.2-.08c.05,0,.1-.08.16-.11l.19-.08a.72.72,0,0,1,.19-.11l.19-.09.19-.11A.45.45,0,0,1,15.47,3a.93.93,0,0,1,.19-.11c.06,0,.14,0,.2-.06a1.18,1.18,0,0,1,.19-.11c.05,0,.13,0,.19-.06l.19-.08a1.05,1.05,0,0,1,.19,0,1.11,1.11,0,0,1,.19-.09A1.33,1.33,0,0,1,17,2.42a1.63,1.63,0,0,1,.19-.09,2.26,2.26,0,0,1,2.88,1.39l0,0a2.31,2.31,0,0,1-1.42,2.94.3.3,0,0,1-.16,0l-.17.08h-.08l-.14.09A1,1,0,0,1,18,7l-.14.09a1,1,0,0,0-.16,0,.64.64,0,0,1-.14.08c-.05,0-.11,0-.16.06a.64.64,0,0,1-.14.08s-.11,0-.16.06l-.14.08c-.05,0-.11,0-.16.06a1,1,0,0,0-.14.08c-.05,0-.11,0-.16.06a1,1,0,0,0-.14.08,1,1,0,0,1-.16,0L16,7.88a1,1,0,0,1-.16,0L15.72,8a.44.44,0,0,1-.16.06c-.06,0-.08.08-.14.11l-.16.08c-.06,0-.08.09-.14.11L15,8.49c-.06,0-.08.08-.14.11l-.16.08c-.06,0-.08.08-.14.11a.38.38,0,0,0-.13.09c-.06,0-.09.08-.14.11l-.14.08s-.08.08-.13.11l-.14.08c-.05,0-.08.09-.14.11a1,1,0,0,0-.13.09c-.06,0-.08.08-.14.11a.57.57,0,0,0-.13.08.37.37,0,0,0-.11.11l-.14.09c-.05,0-.08.08-.11.11L12.8,10l-.1.11-.14.08-.11.12a.36.36,0,0,0-.14.11.69.69,0,0,0-.11.13.49.49,0,0,0-.13.12s-.08.08-.11.13a.53.53,0,0,0-.14.12.33.33,0,0,1-.11.13.69.69,0,0,0-.13.11.53.53,0,0,1-.11.14.49.49,0,0,1-.14.11.38.38,0,0,1-.11.14.28.28,0,0,1-.13.11.53.53,0,0,1-.11.14.26.26,0,0,1-.14.11.38.38,0,0,1-.11.14.28.28,0,0,1-.13.11.53.53,0,0,1-.11.14c0,.06-.09.08-.11.11s-.06.09-.08.14-.09.08-.11.11a.42.42,0,0,1-.09.14c0,.06-.08.08-.1.11a.67.67,0,0,1-.09.14c0,.06-.08.08-.11.11a.39.39,0,0,1-.08.14c0,.06-.08.08-.11.14a.5.5,0,0,1-.08.14c0,.05-.08.08-.11.14a.57.57,0,0,1-.08.13c0,.06-.08.09-.11.14a.64.64,0,0,1-.08.14c0,.06-.08.08-.11.14a.64.64,0,0,1-.08.14c0,.05-.08.08-.11.14l-.08.16c0,.06-.08.09-.11.14l-.08.17a.76.76,0,0,1-.11.14c0,.05,0,.11-.08.16a.53.53,0,0,1-.11.14c0,.06,0,.11-.06.17a.36.36,0,0,1-.11.14,1,1,0,0,1,0,.16c0,.06-.06.09-.08.14s0,.11-.06.17,0,.08-.08.14a1,1,0,0,0,0,.16c0,.06-.06.09-.09.14a1.09,1.09,0,0,1,0,.17L7.57,17s0,.11-.06.16a.39.39,0,0,1-.08.14,1.09,1.09,0,0,0,0,.17,1,1,0,0,1-.08.14c0,.05,0,.11-.06.16a.64.64,0,0,1-.08.14c0,.06,0,.11-.06.17a.5.5,0,0,1-.08.14,1,1,0,0,1,0,.16l-.08.17a.32.32,0,0,0,0,.17l-.08.16c0,.06,0,.11,0,.17a.34.34,0,0,0,0,.17c0,.05,0,.11,0,.16a.49.49,0,0,0-.06.17c0,.05,0,.11,0,.16a.49.49,0,0,0-.06.17.33.33,0,0,1,0,.17.44.44,0,0,0-.06.16.25.25,0,0,1,0,.17,1.09,1.09,0,0,1,0,.17.45.45,0,0,1,0,.16.34.34,0,0,1,0,.17.41.41,0,0,1,0,.16.48.48,0,0,1,0,.17.47.47,0,0,1,0,.17.44.44,0,0,1-.06.16v.17a.34.34,0,0,1,0,.17v.16a.35.35,0,0,1-.06.17v.17c0,.05,0,.11,0,.16v.17c0,.06,0,.11,0,.17v.16c0,.06,0,.11,0,.17v.17c0,.05,0,.11,0,.16v.17c0,.05,0,.11,0,.16v.17c0,.06,0,.11,0,.17v.16c0,.06,0,.11,0,.17s0,.11,0,.17,0,.11,0,.16,0,.11,0,.17a.23.23,0,0,1,0,.16c0,.06,0,.11,0,.17a.26.26,0,0,1,0,.17c0,.05,0,.11,0,.16v.17c0,.05,0,.11,0,.17v.16c0,.06,0,.11,0,.17v.17c0,.05,0,.11,0,.16v.17c0,.06,0,.11,0,.17v.16c0,.06,0,.11,0,.17v.16c0,.06,0,.12,0,.17v.17a.44.44,0,0,0,.06.16v.17a1.09,1.09,0,0,1,0,.17v.16c0,.06,0,.11.06.17a.22.22,0,0,0,0,.16.84.84,0,0,0,0,.17.47.47,0,0,0,0,.17.33.33,0,0,1,0,.16.47.47,0,0,0,0,.17.34.34,0,0,1,0,.17.23.23,0,0,1,0,.16.49.49,0,0,1,.06.17.32.32,0,0,1,0,.17.44.44,0,0,1,.06.16.32.32,0,0,1,0,.17.52.52,0,0,1,.06.16.51.51,0,0,1,0,.17.48.48,0,0,1,0,.17.45.45,0,0,1,0,.16l.08.17a.47.47,0,0,1,0,.17l.08.16a1.09,1.09,0,0,1,0,.17A.64.64,0,0,0,7.1,32s0,.11.06.16l.08.14c0,.06,0,.11.06.17s0,.08.08.14a1,1,0,0,0,0,.16c0,.06.06.09.08.14s0,.11.06.17l.08.14a1,1,0,0,1,0,.16c0,.06.06.09.09.14a1.09,1.09,0,0,0,0,.17.64.64,0,0,1,.08.14S8,34,8,34a.64.64,0,0,0,.08.14,1.09,1.09,0,0,1,0,.17.76.76,0,0,0,.11.14.52.52,0,0,1,.06.16c0,.06.08.09.11.14l.08.17c0,.05.08.08.11.14l.08.16c0,.06.08.09.11.14l.08.17c0,.05.08.08.11.14a1,1,0,0,0,.08.14c0,.05.08.08.11.13a.64.64,0,0,0,.08.14c0,.06.08.09.11.14a.64.64,0,0,0,.08.14c0,.06.08.08.11.14a.64.64,0,0,0,.08.14c0,.05.09.08.11.14a1,1,0,0,0,.08.14c0,.05.09.08.11.11l.09.13c0,.06.08.09.1.12l.09.13.11.12a.91.91,0,0,0,.08.13l.11.11a.3.3,0,0,0,.11.14.45.45,0,0,0,.13.11.53.53,0,0,0,.11.14c.06,0,.08.09.14.11a.3.3,0,0,0,.11.14.69.69,0,0,1,.13.11.53.53,0,0,0,.11.14l.14.11a.76.76,0,0,1,.11.14.47.47,0,0,1,.13.11.3.3,0,0,1,.11.14l.14.11a.3.3,0,0,1,.11.14.47.47,0,0,1,.13.11.22.22,0,0,1,.11.14.53.53,0,0,1,.14.11.57.57,0,0,1,.11.11l.14.09c.05,0,.08.08.1.11l.14.08.11.11.14.08c.05,0,.08.09.11.11a1,1,0,0,1,.13.09c.06,0,.08.08.14.11a.57.57,0,0,1,.13.08c.06,0,.09.08.14.11A.42.42,0,0,1,14,41s.08.08.13.11l.14.08c.05,0,.08.08.14.11a.57.57,0,0,1,.13.08c.06,0,.08.09.14.11l.16.09c.06,0,.08.08.14.11l.16.08.14.11c.05,0,.11,0,.16.09a.36.36,0,0,1,.14.11,1,1,0,0,0,.16.05l.14.11c.05,0,.11,0,.16.06l.14.08c.05,0,.11,0,.16.06a1,1,0,0,1,.14.08c.05,0,.11,0,.16.06a1,1,0,0,1,.14.08,1,1,0,0,0,.16.05c.11.06.19.12.3.17a1.6,1.6,0,0,1,.33.11,2.38,2.38,0,0,1,.44.25,4.31,4.31,0,0,1,.49.11,3.51,3.51,0,0,1,.6.33,2,2,0,0,1,.68.09,2.2,2.2,0,0,1,.76.39,2,2,0,0,1,.85,0,2.24,2.24,0,0,1,.95.44,2.2,2.2,0,0,1,1-.17,2.1,2.1,0,0,1,1.15.45,2.05,2.05,0,0,1,1.17-.39,2.27,2.27,0,0,1,1.39.41,2.46,2.46,0,0,1,1.26-.72,2.23,2.23,0,0,1,1.63.34,2.32,2.32,0,0,1,1.26-1.11,2.29,2.29,0,0,1,1.91.22A2.32,2.32,0,0,1,34.25,42a2.22,2.22,0,0,1,2.23,0,2.4,2.4,0,0,1,.77-2.14A2.24,2.24,0,0,1,40,39.73,2.31,2.31,0,0,1,40,37a2.25,2.25,0,0,1,3.14-.43l.06,0a2.34,2.34,0,0,1,.38,3.25,2.24,2.24,0,0,1-3.08.47,2.32,2.32,0,0,1-.36,3.13,2.25,2.25,0,0,1-2.59.23A2.29,2.29,0,0,1,36.4,46,2.24,2.24,0,0,1,34.11,46a2.24,2.24,0,0,1-3.46,1.5,2.25,2.25,0,0,1-3,1l-.3-.18a2.21,2.21,0,0,1-3,.25,2.19,2.19,0,0,1-2.62-.09,1.86,1.86,0,0,1-1.25.11,2.28,2.28,0,0,1-1-.44,2.7,2.7,0,0,1-1.06,0,2.26,2.26,0,0,1-.74-.38,2.32,2.32,0,0,1-.82-.14,3.6,3.6,0,0,1-.54-.31,2.41,2.41,0,0,1-.6-.16,3.87,3.87,0,0,1-.36-.2,1.34,1.34,0,0,1-.38-.14,1.18,1.18,0,0,0-.19-.11c-.05,0-.14,0-.19-.08l-.16-.11-.19-.09c-.06,0-.11-.08-.17-.11l-.19-.08-.16-.11L13.57,46c-.06,0-.11-.09-.17-.11l-.19-.09-.16-.11-.19-.08-.17-.14-.19-.08a1.07,1.07,0,0,1-.16-.14l-.19-.09A.7.7,0,0,1,12,45a.76.76,0,0,1-.19-.12.65.65,0,0,1-.16-.13,1.18,1.18,0,0,1-.19-.11l-.17-.14-.19-.11a2,2,0,0,0-.16-.14.64.64,0,0,1-.16-.11,2.09,2.09,0,0,0-.17-.14.91.91,0,0,1-.16-.11l-.14-.14-.16-.11L10,43.51l-.16-.11-.14-.14-.16-.11c-.06-.06-.08-.11-.14-.17a.91.91,0,0,0-.16-.11c-.06,0-.08-.11-.14-.17l-.16-.13c-.06-.06-.08-.11-.14-.17s-.11-.08-.16-.14-.08-.11-.14-.17L8.33,42c-.06-.06-.08-.11-.14-.17s-.11-.08-.16-.14-.08-.11-.14-.17l-.16-.13c-.06-.06-.08-.11-.14-.17s-.11-.08-.16-.14a.5.5,0,0,1-.11-.17l-.17-.13a.59.59,0,0,1-.1-.17c-.06-.06-.11-.08-.14-.14a.5.5,0,0,1-.11-.17s-.11-.08-.14-.13A1,1,0,0,1,6.55,40c0-.06-.1-.08-.13-.14a.5.5,0,0,1-.11-.17.73.73,0,0,1-.14-.16,1,1,0,0,1-.11-.17.65.65,0,0,1-.13-.16.56.56,0,0,1-.11-.2c-.06-.05-.08-.11-.14-.16a1.28,1.28,0,0,0-.11-.2c-.05-.05-.08-.11-.13-.17l-.11-.19c-.06-.05-.08-.11-.14-.17s-.05-.13-.08-.19S5,37.77,5,37.71s0-.13-.08-.19a.75.75,0,0,0-.14-.17,1.54,1.54,0,0,0-.08-.19c0-.06-.08-.11-.11-.17a1.54,1.54,0,0,0-.08-.19c0-.06-.08-.11-.11-.17a1.54,1.54,0,0,0-.08-.19c0-.06-.08-.11-.11-.17s0-.14-.08-.19S4,36,4,35.91s-.05-.14-.08-.19-.08-.11-.11-.17,0-.14-.08-.19a1.28,1.28,0,0,1-.11-.2A1.54,1.54,0,0,1,3.53,35l-.11-.19a.76.76,0,0,1-.06-.2l-.11-.19a1.46,1.46,0,0,0,0-.2A1.18,1.18,0,0,1,3.09,34a1.46,1.46,0,0,1,0-.2A1.11,1.11,0,0,1,3,33.61a1.33,1.33,0,0,0-.05-.19,1.67,1.67,0,0,1-.08-.2s0-.14-.06-.19a1.19,1.19,0,0,1-.08-.2,1.8,1.8,0,0,0-.05-.19,1.54,1.54,0,0,1-.08-.19c0-.06,0-.14-.06-.2s-.05-.14-.08-.19a.64.64,0,0,1,0-.2c0-.05,0-.13-.08-.19a.63.63,0,0,1,0-.19,1.67,1.67,0,0,0-.08-.2.63.63,0,0,1,0-.19,1.67,1.67,0,0,0-.08-.2.53.53,0,0,1,0-.22A.6.6,0,0,1,2,30.48a.83.83,0,0,1,0-.22.46.46,0,0,1-.05-.2.78.78,0,0,1,0-.22.45.45,0,0,1,0-.19.91.91,0,0,0,0-.23.41.41,0,0,1-.05-.19.83.83,0,0,0,0-.22.66.66,0,0,1-.06-.2v-.22a1.33,1.33,0,0,0,0-.19v-.22a1.46,1.46,0,0,1-.05-.2v-.22a.6.6,0,0,0-.06-.19v-.23c0-.05,0-.13,0-.19v-.22c0-.08,0-.14,0-.2v-.22c0-.08,0-.14,0-.22v-.22c0-.09,0-.14,0-.22a.91.91,0,0,1,0-.23c0-.08,0-.13,0-.22a.56.56,0,0,1,0-.22c0-.08,0-.14,0-.22S1.32,24.88,1.32,24.82Z"/></svg>