<?xml version="1.0" encoding="utf-8"?>
<!-- Generator: Adobe Illustrator 23.0.0, SVG Export Plug-In . SVG Version: 6.00 Build 0)  -->
<svg version="1.1" id="Layer_1" xmlns="http://www.w3.org/2000/svg" xmlns:xlink="http://www.w3.org/1999/xlink" x="0px" y="0px"
	 viewBox="0 0 72 72" style="enable-background:new 0 0 72 72;" xml:space="preserve">
<style type="text/css">
	.st0{fill:#FFFFFF;}
</style>
<g>
	<path class="st0" d="M35.8,51.8L35.8,51.8c-0.7,0-1.4-0.3-1.9-0.9L16.2,30c-0.6-0.7-0.8-1.8-0.4-2.6c0.4-0.9,1.3-1.4,2.3-1.4h7.6
		V10.2c0-1.4,1.1-2.5,2.5-2.5h15.4c1.4,0,2.5,1.1,2.5,2.5v15.7h7.6c1,0,1.8,0.6,2.2,1.4c0.4,0.9,0.3,1.9-0.4,2.6l-17.8,21
		C37.2,51.4,36.5,51.8,35.8,51.8z M23.4,30.8l12.4,14.6l12.5-14.6h-4.7c-1.4,0-2.5-1.1-2.5-2.5V12.7H30.7v15.7
		c0,1.4-1.1,2.5-2.5,2.5L23.4,30.8L23.4,30.8z"/>
	<path class="st0" d="M64.3,64.3H7.6c-4,0-7.2-3.2-7.2-7.2V45.8c0-4,3.2-7.2,7.2-7.2h10.5c1.4,0,2.5,1.1,2.5,2.5s-1.1,2.5-2.5,2.5
		H7.6c-1.2,0-2.2,1-2.2,2.2v11.3c0,1.2,1,2.2,2.2,2.2h56.8c1.2,0,2.2-1,2.2-2.2V45.8c0-1.2-1-2.2-2.2-2.2H53.8
		c-1.4,0-2.5-1.1-2.5-2.5s1.1-2.5,2.5-2.5h10.5c4,0,7.2,3.2,7.2,7.2v11.3C71.5,61.1,68.3,64.3,64.3,64.3z"/>
</g>
</svg>
