<svg id="Layer_24" data-name="Layer 24" xmlns="http://www.w3.org/2000/svg" viewBox="0 0 50 50"><defs><style>.cls-1,.cls-2{fill:none;stroke:#24a7df;}.cls-1{stroke-width:2px;}.cls-2{stroke-width:3px;}</style></defs><title>icon-leadership</title><path class="cls-1" d="M11.65,33.68A3,3,0,1,1,9.56,28l.1,0A12,12,0,0,0,17.08,12.7a3.05,3.05,0,1,1,5.74-2.08l0,.1a18.05,18.05,0,0,1-11.2,23Z"/><circle class="cls-2" cx="8.59" cy="17.86" r="4.37"/><path class="cls-1" d="M40,23.66a18.07,18.07,0,0,1-23-11.21,3.05,3.05,0,0,1,5.77-2A12,12,0,0,0,38,17.88a3.05,3.05,0,1,1,2.09,5.74Z"/><circle class="cls-2" cx="32.95" cy="9.04" r="4.37"/><path class="cls-1" d="M30.71,42.74a3.06,3.06,0,0,1-3.88-1.89A18.06,18.06,0,0,1,38,17.89h0a3.05,3.05,0,0,1,2,5.77,12,12,0,0,0-7.42,15.2,3.05,3.05,0,0,1-1.88,3.88Z"/><circle class="cls-2" cx="41.4" cy="34.18" r="4.37"/><path class="cls-1" d="M30.85,43A3.06,3.06,0,0,1,27,41.06a12,12,0,0,0-15.21-7.42,3.05,3.05,0,0,1-2-5.77A18,18,0,0,1,32.73,39.05v0A3.05,3.05,0,0,1,30.86,43Z"/><path class="cls-1" d="M16.73,26.83a17.93,17.93,0,0,0-5.32.35,19.31,19.31,0,0,1-2.19.95,2.61,2.61,0,0,0-1.64,2.92,3.18,3.18,0,0,0,3.59,2.74,2.29,2.29,0,0,0,.36-.07,19.71,19.71,0,0,1,2.14-.54,16.87,16.87,0,0,0,4.14-3,26.91,26.91,0,0,0,2.92-3.48C19.57,26.36,17.94,26.91,16.73,26.83Z"/><circle class="cls-2" cx="16.9" cy="41.62" r="4.37"/></svg>