<svg id="Layer_4" data-name="Layer 4" xmlns="http://www.w3.org/2000/svg" viewBox="0 0 50 50"><defs><style>.cls-1{fill:#24a7df;}</style></defs><title>icon-spotlight</title><path class="cls-1" d="M47.23,1.89a.94.94,0,0,0-1.16.23L25,26.22,3.93,2.12A1,1,0,0,0,2.58,2a.93.93,0,0,0-.31,1l9,39.52C11.41,46,18.41,47.94,25,47.94c6.76,0,13.61-1.87,13.77-5.45L47.73,3A1,1,0,0,0,47.23,1.89ZM23.72,27.69,13.86,39a7.11,7.11,0,0,0-1.27.83L5,6.29ZM25,29.17l7.33,8.4a31.73,31.73,0,0,0-7.33-.8,30.89,30.89,0,0,0-7.36.83ZM25,46c-7.23,0-11.84-2.17-11.84-3.65S17.77,38.71,25,38.71s11.84,2.17,11.84,3.65S32.23,46,25,46Zm12.41-6.23a7.94,7.94,0,0,0-1.34-.88L26.28,27.7,45,6.29Z"/></svg>