<svg id="Layer_2" data-name="Layer 2" xmlns="http://www.w3.org/2000/svg" viewBox="0 0 50 50"><defs><style>.cls-1{fill:#24a7df;}</style></defs><title>icon-resources</title><path class="cls-1" d="M27.2,27.42a2.62,2.62,0,1,1-2.62-2.62h0a2.6,2.6,0,0,1,2.62,2.59ZM14.1,42.76a2.62,2.62,0,1,0,2.62,2.62,2.62,2.62,0,0,0-2.62-2.62ZM3.77,24.8a2.62,2.62,0,0,0,0,5.24,2.66,2.66,0,0,0,2.62-2.62A2.6,2.6,0,0,0,3.8,24.8ZM14.1,18.89a2.62,2.62,0,1,0,2.62,2.62h0a2.56,2.56,0,0,0-2.5-2.62ZM24.58,1A2.65,2.65,0,0,0,22,3.62a2.62,2.62,0,1,0,5.23,0h0A2.65,2.65,0,0,0,24.58,1ZM35.13,18.89a2.62,2.62,0,1,0,2.62,2.62h0a2.6,2.6,0,0,0-2.59-2.62ZM45.38,24.8A2.62,2.62,0,1,0,48,27.42h0a2.56,2.56,0,0,0-2.5-2.62Zm-10.48,18a2.62,2.62,0,1,0,2.62,2.62A2.66,2.66,0,0,0,34.9,42.76ZM24.65,36.92a2.62,2.62,0,1,0,2.62,2.62h0a2.61,2.61,0,0,0-2.59-2.62ZM3.77,36.47a2.62,2.62,0,0,0,0,5.24h0a2.62,2.62,0,1,0,0-5.24ZM14.1,6.76a2.62,2.62,0,1,0,2.62,2.62h0a2.61,2.61,0,0,0-2.59-2.62Zm31.28,30A2.62,2.62,0,1,0,48,39.39a2.56,2.56,0,0,0-2.49-2.62ZM34.9,7.14a2.62,2.62,0,1,0,2.62,2.62h0a2.6,2.6,0,0,0-2.59-2.62ZM11,24.13a5.24,5.24,0,0,1-.83-1.43.26.26,0,0,0-.35-.15h0L6.91,24.27c-.15.08-.15.3-.07.45a4.44,4.44,0,0,1,.82,1.43A.26.26,0,0,0,8,26.3H8L11,24.65a.38.38,0,0,0,.08-.52ZM2.5,31.61V34.9c0,.23.15.3.3.23a3.94,3.94,0,0,1,1-.08,1.9,1.9,0,0,1,.67.08c.23,0,.37-.08.37-.3V31.68c0-.22-.15-.29-.37-.29s-.45.07-.67.07a3.93,3.93,0,0,1-1-.15A.32.32,0,0,0,2.5,31.61Zm4,10.93,3.22,1.87a.28.28,0,0,0,.36-.14h0a3.27,3.27,0,0,1,.74-1.43c.15-.14.08-.29-.07-.44L7.89,40.66a.38.38,0,0,0-.45.15,4.38,4.38,0,0,1-1,1.35C6.39,42.31,6.39,42.46,6.54,42.54ZM21.35,24.27l-3-1.64a.27.27,0,0,0-.36.13v0a3.34,3.34,0,0,1-.82,1.42c-.15.15-.08.3.07.45l3,1.72a.27.27,0,0,0,.36-.13v0a4.18,4.18,0,0,1,.82-1.49.37.37,0,0,0-.07-.46Zm20.88,0-2.84-1.64a.26.26,0,0,0-.36.13v0a4,4,0,0,1-.82,1.42c-.15.15-.08.3.07.45l2.92,1.65a.29.29,0,0,0,.37-.14h0a3.44,3.44,0,0,1,.83-1.43c.07-.14,0-.29-.15-.45ZM14.92,17.46c.22.08.3-.07.3-.29V13.72a.29.29,0,0,0-.25-.3h-.05a2.54,2.54,0,0,1-.82.08,2.58,2.58,0,0,1-.83-.08c-.22-.07-.3.08-.3.23v3.52c0,.22.15.29.3.22a2.89,2.89,0,0,1,.83-.07A3.2,3.2,0,0,0,14.92,17.46Zm2.39,25.3a3.67,3.67,0,0,1,.75,1.42.29.29,0,0,0,.36.16h0l3.07-1.79c.15-.08.15-.3.08-.45a4.54,4.54,0,0,1-.83-1.43.26.26,0,0,0-.35-.15h0l-3,1.71C17.24,42.46,17.17,42.61,17.31,42.76Zm4.05-36.6a3.67,3.67,0,0,1-.75-1.42.28.28,0,0,0-.35-.16h0L17.31,6.24c-.14.07-.14.3-.07.45a3.34,3.34,0,0,1,.82,1.42.29.29,0,0,0,.36.16h0l2.84-1.65C21.43,6.54,21.43,6.31,21.36,6.16ZM41.11,40.74l-2.92,1.72a.28.28,0,0,0-.13.38s0,0,.06.07a3.47,3.47,0,0,1,.74,1.5.28.28,0,0,0,.36.15h0l3.15-1.8c.15-.07.15-.3.08-.45a4.26,4.26,0,0,1-.9-1.35c-.07-.3-.22-.37-.45-.22ZM33.85,14v3.22c0,.22.15.3.3.22a3.55,3.55,0,0,1,1-.14,2,2,0,0,1,.68.07c.22,0,.37-.07.37-.3V14c0-.23-.15-.3-.3-.23a3.43,3.43,0,0,1-.9.08,2.4,2.4,0,0,1-.75-.08.34.34,0,0,0-.36.3ZM44.63,31.38c-.23,0-.37.08-.37.3v3.37c0,.23.15.3.37.3a2.63,2.63,0,0,1,.74-.08,2.89,2.89,0,0,1,.83.08c.15.08.3-.08.3-.22V31.68c0-.22-.15-.29-.3-.22a3.83,3.83,0,0,1-.83.08c-.22-.08-.52-.08-.74-.16ZM27.71,24.72a5,5,0,0,1,.83,1.49.27.27,0,0,0,.35.16h0L32,24.58a.28.28,0,0,0,.13-.38l0-.07a4.77,4.77,0,0,1-.82-1.5.28.28,0,0,0-.36-.15h0l-3.07,1.8c-.23.15-.23.3-.08.44Zm0,18,2.93,1.65A.26.26,0,0,0,31,44.2v0a4.13,4.13,0,0,1,.75-1.42c.14-.15.07-.3-.08-.45l-2.77-1.65a.27.27,0,0,0-.36.14h0a3.93,3.93,0,0,1-.82,1.43.23.23,0,0,0-.12.32.22.22,0,0,0,.12.13Zm-4.34-11v3.6c0,.22.15.3.3.22a4.53,4.53,0,0,1,1-.07,2.36,2.36,0,0,1,.75.07c.23,0,.37-.07.37-.3V31.68a.26.26,0,0,0-.25-.29,0,0,0,0,0-.05,0,3.21,3.21,0,0,1-.82.07,3.21,3.21,0,0,1-.82-.07C23.53,31.38,23.37,31.54,23.37,31.68ZM27.79,6.61l2.84,1.65a.35.35,0,0,0,.45-.15A4.37,4.37,0,0,1,32,6.76c.15-.15.15-.29-.08-.37L28.84,4.52a.26.26,0,0,0-.36.13v0a3.25,3.25,0,0,1-.75,1.42C27.64,6.31,27.64,6.54,27.79,6.61Z"/></svg>