<svg id="Layer_32" data-name="Layer 32" xmlns="http://www.w3.org/2000/svg" viewBox="0 0 50 50"><defs><style>.cls-1{fill:#24a7df;}</style></defs><title>icon-mm-research</title><path id="Path_361" data-name="Path 361" class="cls-1" d="M39.49,42.78a2,2,0,0,0-1.78-2.09h-.34c-1.23,0-2.46,0-3.69,0H30.23a1.55,1.55,0,0,1,.27-.24,11.89,11.89,0,0,0,4.86-17.31h0a5.81,5.81,0,0,0-3.84-7.68c-.22-.06-.43-.15-.67-.23.55-1.24,1.81-2.31,1.45-3.6l-1-.6,3.19-5.35L31.66,4,28.47,9.34,27.39,8.7a2.65,2.65,0,0,0-1.54,1.38c-2,3.37-4.11,6.73-6.17,10.09-.59,1-1.2,1.94-1.81,2.92l-1.49-.81-2.06,3.33,8.8,5.4,2.05-3.34c-.53-.37-1-.68-1.39-1l1-1.66.72-1.15a5.55,5.55,0,0,0,6.39,2.4A7.27,7.27,0,0,1,26.26,37a5.7,5.7,0,0,1-3.78-.78l1.62-.09V33.43H10v2.7c1.64,0,3.23,0,4.81,0a1.51,1.51,0,0,1,1,.35,16.45,16.45,0,0,0,4.72,4.19c-2.61,0-5.21,0-7.82,0a2,2,0,0,0-2.16,1.73,2.94,2.94,0,0,0,0,.42c0,.36,0,.72,0,1.08,0,2,.62,2.59,2.6,2.59,7.56,0,15.13-.07,22.69,0C39.61,46.6,39.57,45.58,39.49,42.78Z"/></svg>