<svg id="Layer_29" data-name="Layer 29" xmlns="http://www.w3.org/2000/svg" viewBox="0 0 50 50"><defs><style>.cls-1{fill:#24a7df;}</style></defs><title>icon-register</title><g id="Group_1337" data-name="Group 1337"><path id="Path_153" data-name="Path 153" class="cls-1" d="M45.74,18.25l-4.05-4-.81.54a4.4,4.4,0,0,1-6.14-6L35.25,8l-4-4a2.47,2.47,0,0,0-3.49,0L3.7,28.61a2.47,2.47,0,0,0,0,3.49l4.08,4,.77-.4a4.41,4.41,0,0,1,6,5.84l-.38.78,4.09,4a2.46,2.46,0,0,0,3.48,0l24-24.54A2.48,2.48,0,0,0,45.74,18.25Zm-7.3,7.51-1.53-1.5L35.21,26l1.53,1.49L20,44.57s0,0-.05,0h0l-2.88-2.82a6.83,6.83,0,0,0-8.76-8.57L5.44,30.35a0,0,0,0,1,0,0h0L22.17,13.22l1.52,1.49L25.39,13l-1.53-1.5,5.6-5.72h.05l2.7,2.65a6.82,6.82,0,0,0,9.11,8.92L44,20a0,0,0,0,1,0,0h0Z"/><g id="Group_235" data-name="Group 235"><path id="Path_154" data-name="Path 154" class="cls-1" d="M31.79,19.25,30.09,21l3.84,3.77L35.62,23Zm-5.12-5L25,16l3.84,3.76L30.51,18Z"/></g></g></svg>