<svg id="Layer_22" data-name="Layer 22" xmlns="http://www.w3.org/2000/svg" viewBox="0 0 50 50"><defs><style>.cls-1{fill:#24a7df;}</style></defs><title>icon-locations</title><path class="cls-1" d="M22,40.85a1.08,1.08,0,0,0,1-.59c.46-.73,11-18.58,11-24.84a12,12,0,0,0-24,0c0,6.26,10.54,24.11,11,24.84A1.22,1.22,0,0,0,22,40.85ZM22,5.74a9.69,9.69,0,0,1,9.68,9.68c0,4.22-6.25,16-9.68,21.94-3.43-5.93-9.68-17.79-9.68-21.94A9.69,9.69,0,0,1,22,5.74Z"/><path class="cls-1" d="M28.25,15.42A6.26,6.26,0,1,0,22,21.68h0a6.26,6.26,0,0,0,6.26-6.25Zm-6.26,4a3.95,3.95,0,1,1,4-4h0a4,4,0,0,1-4,4Z"/><path class="cls-1" d="M27.85,44.08H16.13a1.19,1.19,0,1,0,0,2.37H27.85a1.19,1.19,0,1,0,0-2.37Z"/><path class="cls-1" d="M33.91,13.91a12.65,12.65,0,0,1,.14,1.51c0,3-2.57,8.89-5.21,14.16,1.71,3.5,3.63,6.72,3.76,6.92a.69.69,0,0,0,1,.22.58.58,0,0,0,.22-.22C34.05,36,40.57,25,40.57,21.22A7.36,7.36,0,0,0,33.91,13.91Z"/></svg>