<svg id="Layer_19" data-name="Layer 19" xmlns="http://www.w3.org/2000/svg" viewBox="0 0 50 50"><defs><style>.cls-1{fill:#24a7df;}</style></defs><title>icon-network</title><path class="cls-1" d="M25,3a22.2,22.2,0,1,0,22.2,22.2A22.2,22.2,0,0,0,25,3Zm0,42.68A20.49,20.49,0,1,1,45.48,25.18h0A20.48,20.48,0,0,1,25,45.67Z"/><path class="cls-1" d="M38.3,22.21a2.46,2.46,0,0,0,.07-.6h0A2.64,2.64,0,0,0,35.88,19a26.77,26.77,0,0,0-1.4-4.54c-.14-.35-.3-.71-.45-1.06a2.64,2.64,0,0,0,1.06-2.11h0a2.16,2.16,0,0,0,0-.35c1.23-.45,2.52-.86,3.86-1.23-.4-.36-.81-.7-1.24-1-1.08.32-2.12.66-3.13,1a2.61,2.61,0,0,0-2.09-1h0a2.55,2.55,0,0,0-1,.19c-.15-.22-.3-.44-.46-.65a33,33,0,0,0-3-3.61A20.27,20.27,0,0,0,26,4.38a30.92,30.92,0,0,1,4,4.58l.47.68a2.65,2.65,0,0,0-.58,1.64h0a2.4,2.4,0,0,0,.05.46,32.45,32.45,0,0,0-4.19,2.54,29.17,29.17,0,0,0-2.86,2.34,26.13,26.13,0,0,0-7,.82q-1.2.3-2.37.72a2.64,2.64,0,0,0-1.89-.88,24.16,24.16,0,0,1-.08-2.63,31.14,31.14,0,0,1,.6-5.78,19.31,19.31,0,0,0-1.6,1.4,34.6,34.6,0,0,0-.34,4.31c0,1,0,2,.1,3A2.66,2.66,0,0,0,8.83,19.9h0a2.28,2.28,0,0,0,0,.26,32.13,32.13,0,0,0-4.59,3c-.06.59-.09,1.19-.1,1.8a29.23,29.23,0,0,1,5.17-3.51A2.62,2.62,0,0,0,11,22.48,26.06,26.06,0,0,0,14,29.54l.08.13a2.63,2.63,0,0,0-.56,1.62h0a2.62,2.62,0,0,0,1.31,2.27,31.48,31.48,0,0,0,0,4.45,32.12,32.12,0,0,0,.83,5.76c.51.26,1,.49,1.57.71a30.63,30.63,0,0,1-1.08-6.6,30.94,30.94,0,0,1,0-4h0a2.54,2.54,0,0,0,1.05-.22,27.22,27.22,0,0,0,5,4.12,33.53,33.53,0,0,0,5.12,2.73c0,.1,0,.21,0,.32h0a2.58,2.58,0,0,0,.57,1.62c-.94,1.18-2,2.36-3.1,3.53H25q.8,0,1.56-.06c.81-.88,1.58-1.78,2.29-2.67a2.66,2.66,0,0,0,1,.2h0a2.61,2.61,0,0,0,2.2-1.2q1.66.49,3.45.9c.54-.31,1.06-.65,1.57-1v0c-1.61-.32-3.14-.7-4.6-1.13v-.16h0a2.61,2.61,0,0,0-.67-1.74,34.59,34.59,0,0,0,2.57-5,26.5,26.5,0,0,0,2-10,2.62,2.62,0,0,0,1.25-.76,43.58,43.58,0,0,1,7.44,7.24c.15-.53.27-1.07.37-1.63A43.09,43.09,0,0,0,38.3,22.21Zm-7.86-9.27a2.64,2.64,0,0,0,2,1h0l.32,0a26,26,0,0,1,1.79,5.38,2.46,2.46,0,0,0-.48.31,25.6,25.6,0,0,0-9.38-2.84A30,30,0,0,1,30.44,12.94ZM15.6,28.72a2.85,2.85,0,0,0-.5.14h0a24.3,24.3,0,0,1-2.73-6.5,2.64,2.64,0,0,0,1.72-2.47h0a3.29,3.29,0,0,0-.05-.54A26,26,0,0,1,21.5,18a24.85,24.85,0,0,0-5.9,10.77Zm15.09,9.66a2.45,2.45,0,0,0-.85-.14h0a2.64,2.64,0,0,0-2.12,1.07,28.73,28.73,0,0,1-9.53-6.44,2.64,2.64,0,0,0,.53-1.58h0A2.64,2.64,0,0,0,17,28.81,23.63,23.63,0,0,1,23.34,18l.77.05a24.08,24.08,0,0,1,9.19,2.65,2.53,2.53,0,0,0-.18.94h0a2.61,2.61,0,0,0,2,2.54A27.1,27.1,0,0,1,30.69,38.38Z"/></svg>