<svg id="Layer_10" data-name="Layer 10" xmlns="http://www.w3.org/2000/svg" viewBox="0 0 50 50"><defs><style>.cls-1{fill:#24a7df;}</style></defs><title>icon-prostate</title><path class="cls-1" d="M13.26,7.58a10.06,10.06,0,0,0-7,9.75c0,6.48,7.61,11.42,12.91,13.23,2.71,1,3.73,1.95,4.14,4.95.2,1.6.61,5.15.82,7.45.06.42.13.63.4.63h.75c.34,0,.41-.21.41-.63.2-2.3.54-5.92.81-7.45.48-3,1.5-4,4.15-4.95,5.3-1.88,12.9-6.75,12.9-13.23a10,10,0,0,0-7-9.75C34.25,6.75,29.63,6.4,25,6.4S15.77,6.75,13.26,7.58ZM22.77,47a1.64,1.64,0,0,1-1.63-1.53s-.61-7-1-9.47c-.27-1.68-.41-1.68-2-2.23C11.42,31.4,3,25.41,3,17.33a13.35,13.35,0,0,1,9.31-13C15.09,3.4,20.12,3,25,3s9.91.42,12.7,1.33a13.34,13.34,0,0,1,9.31,13c0,8.15-8.42,14.07-15.15,16.44-1.56.62-1.7.62-2,2.3-.34,2.5-1,9.4-1,9.47A1.64,1.64,0,0,1,27.25,47Z"/></svg>