<svg id="Layer_34" data-name="Layer 34" xmlns="http://www.w3.org/2000/svg" viewBox="0 0 50 50"><defs><style>.cls-1{fill:#24a7df;}</style></defs><title>icon-lung</title><path class="cls-1" d="M44.82,23.5c-1-4.93-2.94-9.6-5.79-13-2.68-3.2-6.83-3.29-8.82.69a10.33,10.33,0,0,0-.95,5.36l-.18.44-2.42-2.43a1,1,0,0,1-.34-.95V5.17A1.57,1.57,0,0,0,24.59,3.7a1.53,1.53,0,0,0-1.47,1.73v8.3c0,.52,0,.69-.35.95L20.35,17.1l-.17-.43a10.5,10.5,0,0,0-.95-5.36c-2-4-6.14-3.89-8.83-.69-2.85,3.28-4.67,8-5.79,13A67.57,67.57,0,0,0,3.4,41.75c.26,3.72,2.51,5.62,6,5.19a75.91,75.91,0,0,0,8.56-1.56c2.68-.69,3.54-1.64,4.32-4.84.69-2.94.78-8.3.35-13.41A34.27,34.27,0,0,0,21.3,20l3-2.94a.63.63,0,0,1,.43-.18h0c.17,0,.26.09.43.18l3,2.94a49.17,49.17,0,0,0-1.3,7.17,46.94,46.94,0,0,0,.35,13.41c.69,3.28,1.64,4.15,4.32,4.84a75.91,75.91,0,0,0,8.56,1.56c3.46.43,5.71-1.39,6-5.19A67.36,67.36,0,0,0,44.82,23.5Zm-25.68,16c-.43,1.73-.69,2-2,2.34A53.85,53.85,0,0,1,9,43.31c-1.64.17-2.25-.26-2.42-2.08A60.49,60.49,0,0,1,7.72,24c1-4.41,2.6-8.56,5-11.41,1.21-1.39,2.68-1.73,3.63.08a6.18,6.18,0,0,1,.43,3.72h0a2.28,2.28,0,0,0,.18,1.3c1.21,2.16,2,5.71,2.33,9.51A40,40,0,0,1,19.14,39.5Zm23.69,1.82c-.17,1.73-.69,2.16-2.42,2.07a51.89,51.89,0,0,1-8.13-1.47c-1.29-.34-1.55-.6-2-2.33-.6-2.6-.69-7.53-.26-12.28.44-3.81,1.13-7.44,2.34-9.52a2.24,2.24,0,0,0,.17-1.29h0A6,6,0,0,1,33,12.78c1-1.82,2.42-1.38,3.63-.09,2.42,2.86,4.06,7,5,11.42A57.08,57.08,0,0,1,42.83,41.32Z"/></svg>