<?xml version="1.0" encoding="utf-8"?>
<!-- Generator: Adobe Illustrator 23.0.0, SVG Export Plug-In . SVG Version: 6.00 Build 0)  -->
<svg version="1.1" id="Layer_1" xmlns="http://www.w3.org/2000/svg" xmlns:xlink="http://www.w3.org/1999/xlink" x="0px" y="0px"
	 viewBox="0 0 72 72" style="enable-background:new 0 0 72 72;" xml:space="preserve">
<style type="text/css">
	.st0{fill:#FFFFFF;}
</style>
<g>
	<path class="st0" d="M61.8,42l-1.5,3.1c-0.8,1.6-2.1,2.9-3.7,3.7l-3.1,1.5l3.1,1.5c1.6,0.8,2.9,2.1,3.7,3.7l1.5,3.1l1.5-3.1
		c0.8-1.6,2.1-2.9,3.7-3.7l3.1-1.5L67,48.8c-1.6-0.8-2.9-2.1-3.7-3.7L61.8,42z"/>
	<path class="st0" d="M61.8,21.1l1.5-3.1c0.8-1.6,2.1-2.9,3.7-3.7l3.1-1.5L67,11.3c-1.6-0.8-2.9-2.1-3.7-3.7l-1.5-3.1l-1.5,3.1
		c-0.8,1.6-2.1,2.9-3.7,3.7l-3.1,1.5l3.1,1.5c1.6,0.8,2.9,2.1,3.7,3.7L61.8,21.1z"/>
	<path class="st0" d="M15.9,25.3l2.9-5.9c0.8-1.6,2.1-2.9,3.7-3.7l5.9-2.9l-5.9-2.9c-1.6-0.8-2.9-2.1-3.7-3.7l-2.9-5.9L13,6.2
		C12.1,7.7,10.8,9,9.2,9.8l-5.9,2.9l5.9,2.9c1.6,0.8,2.9,2.1,3.7,3.7L15.9,25.3z"/>
	<path class="st0" d="M49.8,24.8c-3.3-3.3-8.5-3.3-11.8,0l-32,32C2.8,60,2.8,65.3,6,68.5s8.5,3.3,11.8,0l32-31.9
		C53,33.3,53,28.1,49.8,24.8L49.8,24.8z M14.9,65.6c-1.6,1.6-4.3,1.7-5.9,0s-1.7-4.3,0-5.9l0,0l26.1-26l5.9,5.9L14.9,65.6z
		 M46.8,33.7l-3,3l-5.8-6l3-3c1.6-1.6,4.3-1.6,5.9,0C48.5,29.4,48.5,32,46.8,33.7z"/>
</g>
</svg>
