<svg id="Layer_20" data-name="Layer 20" xmlns="http://www.w3.org/2000/svg" viewBox="0 0 50 50"><defs><style>.cls-1{fill:#24a7df;}</style></defs><title>icon-chat</title><path class="cls-1" d="M37,16.87a1,1,0,0,0-.48,1.95,12.82,12.82,0,0,1,6.22,3.38A7.33,7.33,0,0,1,45,27.35a7.22,7.22,0,0,1-1.44,4.2,11.17,11.17,0,0,1-4.2,3.32,1.05,1.05,0,0,0-.53,1.21h0a9.28,9.28,0,0,0,.79,1.83c.19.37.39.71.62,1.08a9.9,9.9,0,0,1-2.57-.65,7.76,7.76,0,0,1-2.53-1.75,1.06,1.06,0,0,0-.85-.31h0l-1,.09c-.29,0-.6,0-1,0A16.57,16.57,0,0,1,25.68,35a1,1,0,0,0-.85,1.85A16.68,16.68,0,0,0,28.47,38a19.79,19.79,0,0,0,3.91.39c.34,0,.68,0,1.07,0l.57,0a9.25,9.25,0,0,0,2.84,1.86,11.43,11.43,0,0,0,4.2.87h.08c1.21,0,1.72.06,2-.71s0-1-.48-1.46c-.11-.14-.25-.28-.39-.48A10.3,10.3,0,0,1,41.37,37c-.11-.23-.23-.48-.34-.74a13.11,13.11,0,0,0,4.14-3.52A9,9,0,0,0,47,27.38a9.33,9.33,0,0,0-2.84-6.56A14.59,14.59,0,0,0,37,16.87ZM19.53,10A19.56,19.56,0,0,0,8,13.55a11.24,11.24,0,0,0-5,8.93,10.09,10.09,0,0,0,2.08,6.05,14.68,14.68,0,0,0,4.77,4.06,10.59,10.59,0,0,1-.46,1,9.39,9.39,0,0,1-1.07,1.66,6,6,0,0,1-.48.56c-.47.57-.76.88-.5,1.53s.87.76,2.17.7h.08a13.15,13.15,0,0,0,4.76-1,11.18,11.18,0,0,0,3.27-2.15c.23,0,.48,0,.7.06.43,0,.82,0,1.21,0a19.71,19.71,0,0,0,11.58-3.55,11.16,11.16,0,0,0,5-8.93,11.24,11.24,0,0,0-5-8.93A19.63,19.63,0,0,0,19.53,10ZM9.17,15.18A17.59,17.59,0,0,1,19.53,12,17.53,17.53,0,0,1,29.9,15.18,9.23,9.23,0,0,1,34,22.48a9.21,9.21,0,0,1-4.14,7.29,17.6,17.6,0,0,1-10.37,3.16c-.39,0-.76,0-1.09,0l-1.1-.08-.51-.06-.31.36a8.39,8.39,0,0,1-2.93,2,10.24,10.24,0,0,1-3.27.79,12.49,12.49,0,0,0,.88-1.43,12.3,12.3,0,0,0,.87-2.09l.28-.84-.78-.4a12.79,12.79,0,0,1-4.85-3.83A8.25,8.25,0,0,1,5,22.48a9.23,9.23,0,0,1,4.14-7.3ZM26.63,21a1.47,1.47,0,1,0,0,2.93,1.46,1.46,0,0,0,1.46-1.46A1.48,1.48,0,0,0,26.64,21ZM12.44,21a1.47,1.47,0,1,0,0,2.93,1.47,1.47,0,0,0,0-2.93Zm7.09,0A1.47,1.47,0,1,0,21,22.45,1.49,1.49,0,0,0,19.53,21Z"/></svg>