<svg id="Layer_18" data-name="Layer 18" xmlns="http://www.w3.org/2000/svg" xmlns:xlink="http://www.w3.org/1999/xlink" viewBox="0 0 50 50"><defs><style>.cls-1{fill:none;}.cls-2{clip-path:url(#clip-path);}.cls-3{fill:#24a7df;}</style><clipPath id="clip-path"><rect class="cls-1" x="2.52" y="2.52" width="44.48" height="44.48"/></clipPath></defs><title>icon-QA</title><g class="cls-2"><path class="cls-3" d="M21.34,34.88h-2l-4.14,3.33V34.88H10.91a4,4,0,0,1-4-4V12a4,4,0,0,1,4-4H29.78a4,4,0,0,1,4,4v3.7h3V12a7.06,7.06,0,0,0-7-7.06H10.91a7.05,7.05,0,0,0-7,7.06V30.86a7.05,7.05,0,0,0,7.05,7.06h1.21v6.64l4.25-3.4,4-3.24h1.52a6.52,6.52,0,0,1-.57-2.68Z"/><path class="cls-3" d="M15.21,10.48a5.59,5.59,0,0,0-5.77,6c0,4.05,2.41,6.07,5.87,6.07a7.5,7.5,0,0,0,1.34-.11,2.77,2.77,0,0,0,2.65,1.9,2.48,2.48,0,0,0,2.59-2.37c0-.13,0-.25,0-.37V20.7H20.74v.49c0,.29,0,.76-.33.76s-.62-.58-.76-1.12a6.09,6.09,0,0,0,1.43-4.29C21.08,12.92,19.25,10.48,15.21,10.48Zm.1,9.48a1.51,1.51,0,0,1-1.14-.57c.24-.69.58-1.26,1.14-1.26s.79.59.91,1.45A1.41,1.41,0,0,1,15.31,20Zm1.92-2.72a3.24,3.24,0,0,0-1.92-.67,2.68,2.68,0,0,0-2,.82,7.46,7.46,0,0,1-.06-.95c0-2,.95-3.48,2-3.46,1.27,0,2.07,1.61,2.07,3.59C17.26,16.82,17.25,17.05,17.23,17.24Z"/><path class="cls-3" d="M33.32,29.25h2l-1-3.31Z"/><path class="cls-3" d="M40.87,17.58H28a4.8,4.8,0,0,0-4.8,4.8h0V35.24A4.81,4.81,0,0,0,28,40h6.4l2.74,2.2,2.9,2.32V40.05h.83a4.8,4.8,0,0,0,4.8-4.8h0V22.4A4.83,4.83,0,0,0,40.87,17.58Zm.07,16.6H34.76v-2h1.46l-.33-1H32.74l-.32,1h1.19v2H28.72v-2h1l2.09-6.77h-.63v-2h5.92l2.73,8.76h1.07Z"/></g></svg>