<svg id="Layer_1" data-name="Layer 1" xmlns="http://www.w3.org/2000/svg" viewBox="0 0 141 144"><defs><style>.cls-1{fill:#fff;}.cls-2{fill:#24a7df;}</style></defs><title>icon-360-mobile</title><path class="cls-1" d="M75.24,49.39a7,7,0,1,1-6.92,7.15v-.11a6.88,6.88,0,0,1,6.73-7h.19m0,30.27c9.82,0,20.24,4.92,20.24,7v3.69H55V86.7c0-2.12,10.35-7,20.23-7m0-36.69A13.46,13.46,0,1,0,88.42,56.71v-.28A13.39,13.39,0,0,0,75.24,43Zm0,30.27c-8.87,0-26.49,4.51-26.49,13.46V96.81h53V86.7c0-9-17.68-13.46-26.49-13.46Z"/><path class="cls-1" d="M121.37,48a5.62,5.62,0,0,1,7.18,3.38v0a5.76,5.76,0,0,1-3.36,7.31A5.61,5.61,0,0,1,118,55.3v0A5.76,5.76,0,0,1,121.37,48Z"/><path class="cls-1" d="M110.94,39.27a5.58,5.58,0,0,1,6.35-4.71h0a5.66,5.66,0,0,1,4.63,6.5,5.58,5.58,0,0,1-6.35,4.71h0A5.66,5.66,0,0,1,110.94,39.27Z"/><path class="cls-1" d="M108.86,24.31a5.76,5.76,0,0,1,1.08,8,5.53,5.53,0,0,1-7.73,1.19l-.14-.1a5.74,5.74,0,0,1-1.08-8,5.55,5.55,0,0,1,7.75-1.18Z"/><path class="cls-1" d="M86.45,17.62a5.51,5.51,0,0,1,7.69-1.32l.1.07a5.73,5.73,0,0,1,1.23,7.93,5.51,5.51,0,0,1-7.69,1.32l-.1-.07A5.74,5.74,0,0,1,86.45,17.62Z"/><path class="cls-1" d="M73.83,12.35A5.62,5.62,0,0,1,79.41,18v0a5.58,5.58,0,1,1-11.16.18V18a5.61,5.61,0,0,1,5.55-5.67Z"/><path class="cls-1" d="M121.36,65.24a5.53,5.53,0,0,1,7.42-2.49l.09,0a5.72,5.72,0,0,1,2.41,7.64,5.55,5.55,0,0,1-7.43,2.49l-.09-.05A5.71,5.71,0,0,1,121.36,65.24Z"/><path class="cls-1" d="M126.54,76.18A5.72,5.72,0,0,1,131,82.87a5.63,5.63,0,0,1-6.58,4.51h0a5.7,5.7,0,0,1,2.15-11.2Z"/><path class="cls-1" d="M123.92,89a5.69,5.69,0,0,1,2.7,7.57v0a5.51,5.51,0,0,1-7.27,2.82l-.19-.09A5.68,5.68,0,1,1,123.92,89Z"/><path class="cls-1" d="M15.61,71.05c0-.2-.07-.34-.07-.55s.07-.34.07-.54a1.28,1.28,0,0,1,0-.55c0-.2.06-.34.06-.54v-.55c0-.21.07-.34.07-.55v-.54c0-.21.07-.35.07-.48V66.2c0-.2.06-.34.06-.48v-.54A1,1,0,0,1,16,64.7v-.55a1,1,0,0,1,.13-.48v-.54a1,1,0,0,1,.14-.48V62.1a1,1,0,0,1,.13-.48,1.64,1.64,0,0,1,.07-.54,1,1,0,0,1,.13-.48,1.7,1.7,0,0,1,.07-.55,1,1,0,0,1,.14-.48,1.63,1.63,0,0,1,.06-.54,1.74,1.74,0,0,0,.14-.48,1.69,1.69,0,0,1,.06-.55,1.56,1.56,0,0,0,.14-.48,1.41,1.41,0,0,1,.07-.54,2.55,2.55,0,0,1,.2-.48c0-.21.07-.34.07-.55s.13-.34.2-.48.06-.34.06-.48.14-.34.21-.47a1.32,1.32,0,0,0,.06-.48c.07,0,.14-.14.2-.28s.07-.34.14-.47.13-.35.2-.48.07-.34.13-.48.14-.34.21-.48.06-.34.13-.48.14-.34.2-.48.07-.34.14-.47.13-.34.2-.48.07-.34.13-.48A3.72,3.72,0,0,1,20,49c.07-.13.07-.34.14-.48a2.48,2.48,0,0,1,.27-.47c.06-.14.06-.35.13-.48a3.72,3.72,0,0,0,.27-.48c.07-.21.07-.41.13-.55a2.27,2.27,0,0,0,.27-.48c.07-.13.07-.34.2-.47s.21-.28.27-.41.14-.35.2-.48.21-.28.27-.41.14-.34.2-.48.21-.27.27-.41.14-.34.21-.48.2-.27.26-.41.14-.34.21-.48.2-.27.26-.41.14-.34.21-.48a1.86,1.86,0,0,1,.33-.41c.07-.13.14-.34.2-.47a1.69,1.69,0,0,1,.34-.41c.07-.14.13-.35.2-.48a1.9,1.9,0,0,1,.34-.41,1.52,1.52,0,0,1,.27-.48,1.86,1.86,0,0,1,.33-.41,2.27,2.27,0,0,1,.27-.48,1.65,1.65,0,0,1,.34-.41,2.9,2.9,0,0,1,.27-.48c.13-.13.2-.27.33-.41a1.62,1.62,0,0,1,.27-.41c.14-.13.2-.27.34-.41a1.22,1.22,0,0,1,.27-.41l.33-.34c.07-.13.2-.27.27-.41l.34-.34c.06-.14.2-.27.27-.41l.33-.34c.07-.14.2-.27.27-.41s.27-.21.4-.34a1.22,1.22,0,0,0,.27-.41c.14-.14.27-.21.41-.34s.2-.28.33-.41.27-.21.41-.35.2-.27.33-.41.27-.2.41-.34.2-.27.33-.41.27-.2.4-.34.21-.27.34-.41.27-.2.4-.34.21-.27.34-.41.27-.21.4-.34.21-.28.34-.41a1.38,1.38,0,0,1,.4-.28c.14-.13.2-.27.34-.41a1.56,1.56,0,0,1,.4-.27c.14-.14.2-.27.34-.34a1.34,1.34,0,0,1,.4-.27c.14-.14.2-.28.34-.35a1.56,1.56,0,0,1,.4-.27c.14-.14.2-.27.34-.34a1.34,1.34,0,0,1,.4-.27,1.9,1.9,0,0,1,.4-.35,1.62,1.62,0,0,1,.41-.27,1.85,1.85,0,0,1,.4-.34,1.06,1.06,0,0,1,.47-.27c.14-.14.27-.21.41-.34a4.48,4.48,0,0,0,.47-.28c.13-.13.27-.2.4-.34a4.39,4.39,0,0,0,.47-.27c.13-.14.27-.21.4-.34s.34-.14.47-.21.27-.2.41-.34.33-.14.47-.21a1.61,1.61,0,0,0,.4-.34c.14-.07.34-.13.47-.2s.27-.21.41-.28.33-.13.47-.2.27-.21.4-.27.34-.14.47-.21.27-.2.4-.27.34-.14.47-.21.27-.2.41-.27.33-.14.47-.21.27-.2.4-.27.34-.14.47-.2a3.24,3.24,0,0,1,.47-.28c.14-.07.34-.13.47-.2a3.24,3.24,0,0,1,.47-.28,1.32,1.32,0,0,1,.47-.13,3.24,3.24,0,0,1,.47-.28c.14-.07.34-.07.47-.13a2.87,2.87,0,0,1,.48-.28c.13-.07.33-.07.47-.13a3.35,3.35,0,0,1,.47-.21c.13-.07.33-.07.47-.13a4,4,0,0,1,.47-.21c.13-.07.33-.07.47-.14a3.9,3.9,0,0,1,.47-.2A5.56,5.56,0,0,1,61.82,19c0,.05,0,.1,0,.15a5.69,5.69,0,0,1-3.49,7.24,1,1,0,0,1-.41.07l-.4.2h-.2a2.39,2.39,0,0,0-.34.21c-.13.07-.27.07-.4.14s-.2.13-.34.2-.27.07-.4.14-.2.13-.34.2-.26.07-.4.14-.2.14-.34.2-.26.08-.4.14-.2.14-.33.21-.27.07-.41.13-.2.14-.33.21-.27.07-.41.13-.2.14-.33.21-.27.07-.41.14-.2.13-.33.2-.27.07-.41.14a1.22,1.22,0,0,0-.33.27,1,1,0,0,1-.41.14c-.13.07-.2.2-.33.27l-.41.21c-.13.07-.2.2-.33.27l-.41.2c-.13.08-.2.21-.33.28l-.4.2c-.14.07-.21.21-.34.28a1.68,1.68,0,0,0-.34.2c-.13.07-.2.21-.33.27a1.94,1.94,0,0,0-.34.21c-.13.07-.2.2-.33.27a1.2,1.2,0,0,0-.34.21c-.13.07-.2.2-.34.27a1.15,1.15,0,0,0-.33.21c-.14.07-.2.2-.34.27a1.38,1.38,0,0,0-.33.2.88.88,0,0,0-.27.28c-.14.07-.2.13-.34.2s-.2.21-.27.28a1.38,1.38,0,0,1-.33.2l-.27.27c-.14.07-.2.14-.34.21l-.27.27a1.09,1.09,0,0,0-.33.27,1.49,1.49,0,0,0-.27.35,1.27,1.27,0,0,0-.34.27c-.07.14-.2.2-.27.34a1.09,1.09,0,0,0-.33.27,1.31,1.31,0,0,1-.27.35,1.27,1.27,0,0,0-.34.27,1.27,1.27,0,0,1-.27.34,1.4,1.4,0,0,1-.33.27,1.31,1.31,0,0,1-.27.35.7.7,0,0,1-.34.27,1.27,1.27,0,0,1-.27.34.63.63,0,0,1-.33.27,1.31,1.31,0,0,1-.27.35.7.7,0,0,1-.34.27,1.27,1.27,0,0,1-.27.34c-.06.14-.2.21-.27.27s-.13.21-.2.35-.2.2-.27.27a1.45,1.45,0,0,1-.2.34.86.86,0,0,1-.27.27,1.51,1.51,0,0,1-.2.35,1.15,1.15,0,0,1-.27.27,1.45,1.45,0,0,1-.2.34c-.07.14-.2.21-.27.34a1.45,1.45,0,0,1-.2.34c-.07.14-.2.21-.27.35a1.68,1.68,0,0,1-.2.34c-.07.13-.2.2-.27.34a1.45,1.45,0,0,1-.2.34c-.07.14-.2.21-.27.34a1.45,1.45,0,0,1-.2.34c-.07.14-.2.21-.27.35l-.2.41c-.07.13-.2.2-.27.34l-.2.41a1.27,1.27,0,0,1-.27.34,1.29,1.29,0,0,1-.2.41,1.27,1.27,0,0,1-.27.34c-.07.14-.07.27-.14.41a1.1,1.1,0,0,1-.26.34c-.07.14-.07.27-.14.41s-.13.21-.2.34-.07.28-.14.41a3.79,3.79,0,0,1-.2.34c-.06.14-.06.28-.13.41s-.14.21-.2.35-.07.27-.14.41-.13.2-.2.34-.07.27-.13.41a1.45,1.45,0,0,1-.2.34c-.07.14-.07.27-.14.41a1.45,1.45,0,0,1-.2.34c-.07.14-.07.27-.13.41a1.48,1.48,0,0,1-.21.34c-.06.14-.06.28-.13.41a1.45,1.45,0,0,1-.2.34c-.07.14-.07.28-.14.41l-.2.41a1,1,0,0,0-.07.41l-.2.41c0,.14-.06.28-.06.41a1.05,1.05,0,0,0-.14.41c0,.14-.06.28-.06.41a.91.91,0,0,0-.14.41c0,.14-.07.28-.07.41a1,1,0,0,0-.13.41.83.83,0,0,1-.07.41,1,1,0,0,0-.13.41.83.83,0,0,1-.07.41c-.07.14-.07.28-.13.41A1,1,0,0,1,28,61a.84.84,0,0,1-.14.41.82.82,0,0,1-.06.41,2.31,2.31,0,0,0-.2.82,1,1,0,0,1-.14.41v.41a.94.94,0,0,1-.13.41v.41a1,1,0,0,1-.14.41v.42c0,.14-.06.27-.06.41v.41c0,.14-.07.27-.07.41v.41c0,.13-.07.27-.07.41v.41c0,.13-.06.27-.06.41v.4c0,.14-.07.28-.07.41v.41c0,.14-.07.28-.07.41V70c0,.14-.07.28-.07.41s.07.28.07.41-.07.28-.07.41.07.28.07.41a.83.83,0,0,1-.07.41c0,.14.07.28.07.41a.83.83,0,0,1-.07.41c0,.14.07.28.07.41v.41c0,.14.07.28.07.41v.41c0,.14.07.28.07.41v.42c0,.13.06.27.06.41v.41c0,.13.07.27.07.41V77c0,.13.07.27.07.4v.41c0,.14.06.28.06.41v.41a1,1,0,0,0,.14.41v.41c.06.14.06.28.13.41v.41c.07.14.07.28.14.41a.93.93,0,0,0,.06.41c.07.14.07.28.14.41a.93.93,0,0,0,.06.41.91.91,0,0,1,.14.41.83.83,0,0,0,.07.41,1,1,0,0,1,.13.41.83.83,0,0,1,.07.41,1,1,0,0,1,.13.41.83.83,0,0,1,.07.41,1,1,0,0,1,.13.41.83.83,0,0,1,.07.41,1.05,1.05,0,0,1,.14.41,1,1,0,0,1,.06.41,1.05,1.05,0,0,1,.14.41,1,1,0,0,1,.06.41l.2.41a.83.83,0,0,1,.07.41l.2.41c.07.14.07.28.14.41a1.51,1.51,0,0,0,.2.35c.07.13.07.27.13.41s.14.2.21.34.06.27.13.41.13.2.2.34.07.27.14.41.13.2.2.34.06.27.13.41.14.2.2.34.07.27.14.41a3.79,3.79,0,0,0,.2.34c.07.14.07.28.13.41s.14.21.2.34.07.28.14.41.13.21.2.35.07.27.14.41a1.06,1.06,0,0,0,.26.34,1,1,0,0,1,.14.41c.07.13.2.2.27.34l.2.41c.07.14.2.2.27.34l.2.41c.07.14.2.21.27.34l.2.41c.07.14.2.21.27.34a1.51,1.51,0,0,0,.2.35c.07.13.2.2.27.34a1.68,1.68,0,0,0,.2.34c.07.14.2.2.27.34a1.45,1.45,0,0,0,.2.34c.07.14.2.21.27.34a1.51,1.51,0,0,0,.2.35c.07.13.2.2.27.34a1.68,1.68,0,0,0,.2.34c.07.14.2.2.27.27s.14.21.2.34a1,1,0,0,0,.27.28,3.79,3.79,0,0,1,.2.34l.27.27c.07.14.14.21.2.34l.27.28a1.9,1.9,0,0,0,.61.61,1.13,1.13,0,0,0,.27.34c.13.07.2.21.33.28a1.27,1.27,0,0,0,.27.34,1.27,1.27,0,0,1,.34.27,1.13,1.13,0,0,0,.27.34,2.21,2.21,0,0,1,.6.62,1.27,1.27,0,0,1,.34.27.7.7,0,0,1,.27.34,1.26,1.26,0,0,1,.33.28.65.65,0,0,1,.27.34,1.27,1.27,0,0,1,.34.27.7.7,0,0,1,.27.34A1.26,1.26,0,0,1,43,108c.14.07.2.2.27.27s.2.14.34.2.2.21.27.28a1.38,1.38,0,0,1,.33.2l.27.28a1.68,1.68,0,0,1,.34.2c.13.07.2.21.27.27a1.85,1.85,0,0,1,.33.21c.14.07.2.2.34.27a1.42,1.42,0,0,1,.33.21c.14.07.21.2.34.27a1.36,1.36,0,0,1,.34.21c.13.07.2.2.33.27a1.45,1.45,0,0,1,.34.2c.13.08.2.21.33.28a1.45,1.45,0,0,1,.34.2c.13.07.2.21.34.28l.4.2c.13.07.2.21.33.27l.41.21A1.09,1.09,0,0,1,50,113c.14.07.27.07.41.21a1.09,1.09,0,0,1,.33.27c.14.07.27.07.41.14a1.09,1.09,0,0,1,.33.27c.14.07.27.07.41.14s.2.13.33.2.27.07.41.14.2.14.33.2.27.07.41.14.2.14.33.21.27.07.41.13.47.28.73.41a3.38,3.38,0,0,1,.81.28,5.76,5.76,0,0,1,1.08.61,8.45,8.45,0,0,1,1.21.27,6.71,6.71,0,0,1,1.48.82,4.82,4.82,0,0,1,1.68.21,6.28,6.28,0,0,1,1.88.95,5.6,5.6,0,0,1,2.08,0,5.88,5.88,0,0,1,2.36,1.1,5.19,5.19,0,0,1,2.55-.41,5.13,5.13,0,0,1,2.83,1.09,5.23,5.23,0,0,1,2.89-1,5.55,5.55,0,0,1,3.43,1,5.87,5.87,0,0,1,3.09-1.78,5.46,5.46,0,0,1,4,.82,5.78,5.78,0,0,1,3.09-2.73,5.65,5.65,0,0,1,4.71.54,5.72,5.72,0,0,1,2.76-4,5.48,5.48,0,0,1,5.51.07,5.85,5.85,0,0,1,1.88-5.26,5.49,5.49,0,0,1,6.73-.34,5.72,5.72,0,0,1,.06-6.84,5.52,5.52,0,0,1,7.73-1.06l.14.11a5.72,5.72,0,0,1,.94,8,5.53,5.53,0,0,1-7.6,1.17,5.7,5.7,0,0,1-.87,7.72,5.53,5.53,0,0,1-6.39.54,5.68,5.68,0,0,1-2.82,5.88,5.58,5.58,0,0,1-5.65-.14A5.55,5.55,0,0,1,90,127.73a5.44,5.44,0,0,1-2.15-.86,5.51,5.51,0,0,1-7.4,2.43,5.89,5.89,0,0,1-.73-.44,5.25,5.25,0,0,1-3.9,1.77,5.11,5.11,0,0,1-3.5-1.16,5.36,5.36,0,0,1-6.45-.2,4.79,4.79,0,0,1-3.1.27,5.75,5.75,0,0,1-2.35-1.09,6.8,6.8,0,0,1-2.62-.07,5.68,5.68,0,0,1-1.82-1,5.18,5.18,0,0,1-2-.34,8.36,8.36,0,0,1-1.34-.75,5.81,5.81,0,0,1-1.48-.41,9.72,9.72,0,0,1-.87-.48,3.41,3.41,0,0,1-.94-.34,2.82,2.82,0,0,0-.48-.27c-.13-.07-.33-.07-.47-.21s-.26-.2-.4-.27-.34-.14-.47-.21-.27-.2-.4-.27-.34-.14-.47-.2-.27-.21-.41-.28-.33-.13-.47-.2-.27-.21-.4-.28-.34-.13-.47-.2-.27-.2-.41-.27-.33-.14-.47-.21a1.85,1.85,0,0,1-.4-.34c-.13-.07-.34-.14-.47-.2a1.68,1.68,0,0,1-.4-.35c-.14-.07-.34-.13-.47-.2a1.9,1.9,0,0,1-.41-.34,1.72,1.72,0,0,1-.47-.28,1.61,1.61,0,0,1-.4-.34,1.69,1.69,0,0,1-.47-.27,1.9,1.9,0,0,1-.41-.34,3.24,3.24,0,0,1-.47-.28c-.13-.13-.26-.2-.4-.34a1.23,1.23,0,0,1-.4-.27c-.14-.14-.27-.21-.41-.34a1.38,1.38,0,0,1-.4-.28l-.34-.34c-.13-.07-.26-.2-.4-.27l-.34-.34c-.13-.07-.26-.21-.4-.28l-.33-.34c-.14-.07-.27-.2-.41-.27s-.2-.27-.33-.41a1.39,1.39,0,0,0-.41-.27c-.13-.14-.2-.28-.33-.41s-.27-.21-.41-.35-.2-.27-.33-.41-.27-.2-.41-.34-.2-.27-.33-.41-.27-.2-.41-.34-.2-.27-.33-.41-.27-.2-.41-.34-.2-.27-.33-.41-.27-.21-.41-.34-.2-.28-.33-.41-.27-.21-.4-.34a1.22,1.22,0,0,1-.27-.41c-.14-.14-.27-.21-.41-.35a1.46,1.46,0,0,1-.27-.41c-.13-.13-.27-.2-.33-.34a1.39,1.39,0,0,1-.27-.41c-.14-.13-.27-.2-.34-.34a1.62,1.62,0,0,1-.27-.41c-.13-.13-.27-.2-.33-.34a1.39,1.39,0,0,1-.27-.41,1.9,1.9,0,0,1-.34-.41,1.62,1.62,0,0,1-.27-.41,1.86,1.86,0,0,1-.33-.41,1.09,1.09,0,0,1-.27-.48c-.14-.13-.2-.27-.34-.41s-.17-.32-.27-.48-.2-.27-.33-.41a4.39,4.39,0,0,0-.27-.47c-.14-.14-.2-.28-.34-.41s-.13-.35-.2-.48-.2-.28-.33-.41-.14-.34-.21-.48a1.86,1.86,0,0,0-.33-.41c-.07-.14-.14-.34-.2-.48s-.2-.27-.27-.41-.14-.34-.2-.48-.2-.27-.27-.41-.14-.34-.2-.48-.21-.27-.27-.41-.14-.34-.2-.47-.21-.28-.27-.41-.14-.35-.2-.48-.21-.28-.27-.41-.14-.34-.21-.48a2.77,2.77,0,0,1-.26-.48c-.07-.14-.14-.34-.21-.48a3.1,3.1,0,0,1-.26-.47,1.2,1.2,0,0,1-.14-.48,3.72,3.72,0,0,1-.27-.48c-.07-.14-.07-.34-.13-.48a2.27,2.27,0,0,1-.27-.48c-.07-.13-.07-.34-.14-.48a3.9,3.9,0,0,1-.2-.47c-.06-.14-.06-.35-.13-.48a3.26,3.26,0,0,1-.2-.48c-.07-.14-.07-.34-.14-.48a3.45,3.45,0,0,1-.2-.48c-.07-.13-.07-.34-.13-.48a4,4,0,0,1-.21-.47c-.06-.14-.06-.35-.13-.48s-.13-.34-.2-.48a1.12,1.12,0,0,1-.07-.48c-.07-.14-.13-.34-.2-.48a1.27,1.27,0,0,1-.07-.48c-.06-.13-.13-.34-.2-.47a1.32,1.32,0,0,1-.06-.48c-.07-.14-.14-.34-.21-.48a1.69,1.69,0,0,1-.06-.55,1.33,1.33,0,0,1-.14-.48,1.41,1.41,0,0,1-.06-.54,1.16,1.16,0,0,1-.14-.48,1.7,1.7,0,0,1-.07-.55,1.32,1.32,0,0,1-.13-.47,1.46,1.46,0,0,0-.07-.55,1.32,1.32,0,0,1-.13-.48,1.49,1.49,0,0,0-.07-.55,1.32,1.32,0,0,1-.13-.47v-.55c-.07-.14-.07-.34-.14-.48v-.55c-.06-.13-.06-.34-.13-.47V78.3a1.33,1.33,0,0,0-.14-.48v-.55c0-.13-.06-.34-.06-.47v-.55c0-.21-.07-.34-.07-.48v-.55c0-.2-.07-.34-.07-.54v-.55c0-.21-.06-.34-.06-.55a1.48,1.48,0,0,1,.06-.55c0-.2-.06-.34-.06-.54a1.28,1.28,0,0,1,.06-.55c0-.2-.07-.34-.07-.54C15.54,71.39,15.61,71.19,15.61,71.05Z"/><circle class="cls-2" cx="70.99" cy="72.58" r="69.58"/><path class="cls-1" d="M72.24,49.39a7,7,0,1,1-6.92,7.15v-.11a6.88,6.88,0,0,1,6.73-7h.19m0,30.27c9.82,0,20.24,4.92,20.24,7v3.69H52V86.7c0-2.12,10.35-7,20.23-7m0-36.69A13.46,13.46,0,1,0,85.42,56.71v-.28A13.39,13.39,0,0,0,72.24,43Zm0,30.27c-8.87,0-26.49,4.51-26.49,13.46V96.81h53V86.7c0-9-17.68-13.46-26.49-13.46Z"/><path class="cls-1" d="M118.37,48a5.62,5.62,0,0,1,7.18,3.38v0a5.76,5.76,0,0,1-3.36,7.31A5.61,5.61,0,0,1,115,55.3v0A5.76,5.76,0,0,1,118.37,48Z"/><path class="cls-1" d="M107.94,39.27a5.58,5.58,0,0,1,6.35-4.71h0a5.66,5.66,0,0,1,4.63,6.5,5.58,5.58,0,0,1-6.35,4.71h0A5.66,5.66,0,0,1,107.94,39.27Z"/><path class="cls-1" d="M105.86,24.31a5.76,5.76,0,0,1,1.08,8,5.53,5.53,0,0,1-7.73,1.19l-.14-.1a5.74,5.74,0,0,1-1.08-8,5.55,5.55,0,0,1,7.75-1.18Z"/><path class="cls-1" d="M83.45,17.62a5.51,5.51,0,0,1,7.69-1.32l.1.07a5.73,5.73,0,0,1,1.23,7.93,5.51,5.51,0,0,1-7.69,1.32l-.1-.07A5.74,5.74,0,0,1,83.45,17.62Z"/><path class="cls-1" d="M70.83,12.35A5.62,5.62,0,0,1,76.41,18v0a5.58,5.58,0,1,1-11.16.18V18a5.61,5.61,0,0,1,5.55-5.67Z"/><path class="cls-1" d="M118.36,65.24a5.53,5.53,0,0,1,7.42-2.49l.09,0a5.72,5.72,0,0,1,2.41,7.64,5.55,5.55,0,0,1-7.43,2.49l-.09-.05A5.71,5.71,0,0,1,118.36,65.24Z"/><path class="cls-1" d="M123.54,76.18A5.72,5.72,0,0,1,128,82.87a5.63,5.63,0,0,1-6.58,4.51h0a5.7,5.7,0,0,1,2.15-11.2Z"/><path class="cls-1" d="M120.92,89a5.69,5.69,0,0,1,2.7,7.57v0a5.51,5.51,0,0,1-7.27,2.82l-.19-.09A5.68,5.68,0,1,1,120.92,89Z"/><path class="cls-1" d="M12.61,71.05c0-.2-.07-.34-.07-.55s.07-.34.07-.54a1.28,1.28,0,0,1,0-.55c0-.2.06-.34.06-.54v-.55c0-.21.07-.34.07-.55v-.54c0-.21.07-.35.07-.48V66.2c0-.2.06-.34.06-.48v-.54A1,1,0,0,1,13,64.7v-.55a1,1,0,0,1,.13-.48v-.54a1,1,0,0,1,.14-.48V62.1a1,1,0,0,1,.13-.48,1.64,1.64,0,0,1,.07-.54,1,1,0,0,1,.13-.48,1.7,1.7,0,0,1,.07-.55,1,1,0,0,1,.14-.48,1.63,1.63,0,0,1,.06-.54,1.74,1.74,0,0,0,.14-.48,1.69,1.69,0,0,1,.06-.55,1.56,1.56,0,0,0,.14-.48,1.41,1.41,0,0,1,.07-.54,2.55,2.55,0,0,1,.2-.48c0-.21.07-.34.07-.55s.13-.34.2-.48.06-.34.06-.48.14-.34.21-.47a1.32,1.32,0,0,0,.06-.48c.07,0,.14-.14.2-.28s.07-.34.14-.47.13-.35.2-.48.07-.34.13-.48.14-.34.21-.48.06-.34.13-.48.14-.34.2-.48.07-.34.14-.47.13-.34.2-.48.07-.34.13-.48A3.72,3.72,0,0,1,17,49c.07-.13.07-.34.14-.48a2.48,2.48,0,0,1,.27-.47c.06-.14.06-.35.13-.48a3.72,3.72,0,0,0,.27-.48c.07-.21.07-.41.13-.55a2.27,2.27,0,0,0,.27-.48c.07-.13.07-.34.2-.47s.21-.28.27-.41.14-.35.2-.48.21-.28.27-.41.14-.34.2-.48.21-.27.27-.41.14-.34.21-.48.2-.27.26-.41.14-.34.21-.48.2-.27.26-.41.14-.34.21-.48a1.86,1.86,0,0,1,.33-.41c.07-.13.14-.34.2-.47a1.69,1.69,0,0,1,.34-.41c.07-.14.13-.35.2-.48a1.9,1.9,0,0,1,.34-.41,1.52,1.52,0,0,1,.27-.48,1.86,1.86,0,0,1,.33-.41,2.27,2.27,0,0,1,.27-.48,1.65,1.65,0,0,1,.34-.41,2.9,2.9,0,0,1,.27-.48c.13-.13.2-.27.33-.41a1.62,1.62,0,0,1,.27-.41c.14-.13.2-.27.34-.41a1.22,1.22,0,0,1,.27-.41l.33-.34c.07-.13.2-.27.27-.41l.34-.34c.06-.14.2-.27.27-.41l.33-.34c.07-.14.2-.27.27-.41s.27-.21.4-.34a1.22,1.22,0,0,0,.27-.41c.14-.14.27-.21.41-.34s.2-.28.33-.41.27-.21.41-.35.2-.27.33-.41.27-.2.41-.34.2-.27.33-.41.27-.2.4-.34.21-.27.34-.41.27-.2.4-.34.21-.27.34-.41.27-.21.4-.34.21-.28.34-.41a1.38,1.38,0,0,1,.4-.28c.14-.13.2-.27.34-.41a1.56,1.56,0,0,1,.4-.27c.14-.14.2-.27.34-.34a1.34,1.34,0,0,1,.4-.27c.14-.14.2-.28.34-.35a1.56,1.56,0,0,1,.4-.27c.14-.14.2-.27.34-.34a1.34,1.34,0,0,1,.4-.27,1.9,1.9,0,0,1,.4-.35,1.62,1.62,0,0,1,.41-.27,1.85,1.85,0,0,1,.4-.34,1.06,1.06,0,0,1,.47-.27c.14-.14.27-.21.41-.34a4.48,4.48,0,0,0,.47-.28c.13-.13.27-.2.4-.34a4.39,4.39,0,0,0,.47-.27c.13-.14.27-.21.4-.34s.34-.14.47-.21.27-.2.41-.34.33-.14.47-.21a1.61,1.61,0,0,0,.4-.34c.14-.07.34-.13.47-.2s.27-.21.41-.28.33-.13.47-.2.27-.21.4-.27.34-.14.47-.21.27-.2.4-.27.34-.14.47-.21.27-.2.41-.27.33-.14.47-.21.27-.2.4-.27.34-.14.47-.2a3.24,3.24,0,0,1,.47-.28c.14-.07.34-.13.47-.2a3.24,3.24,0,0,1,.47-.28,1.32,1.32,0,0,1,.47-.13,3.24,3.24,0,0,1,.47-.28c.14-.07.34-.07.47-.13a2.87,2.87,0,0,1,.48-.28c.13-.07.33-.07.47-.13a3.35,3.35,0,0,1,.47-.21c.13-.07.33-.07.47-.13a4,4,0,0,1,.47-.21c.13-.07.33-.07.47-.14a3.9,3.9,0,0,1,.47-.2A5.56,5.56,0,0,1,58.82,19c0,.05,0,.1,0,.15a5.69,5.69,0,0,1-3.49,7.24,1,1,0,0,1-.41.07l-.4.2h-.2a2.39,2.39,0,0,0-.34.21c-.13.07-.27.07-.4.14s-.2.13-.34.2-.27.07-.4.14-.2.13-.34.2-.26.07-.4.14-.2.14-.34.2-.26.08-.4.14-.2.14-.33.21-.27.07-.41.13-.2.14-.33.21-.27.07-.41.13-.2.14-.33.21-.27.07-.41.14-.2.13-.33.2-.27.07-.41.14a1.22,1.22,0,0,0-.33.27,1,1,0,0,1-.41.14c-.13.07-.2.2-.33.27l-.41.21c-.13.07-.2.2-.33.27l-.41.2c-.13.08-.2.21-.33.28l-.4.2c-.14.07-.21.21-.34.28a1.68,1.68,0,0,0-.34.2c-.13.07-.2.21-.33.27a1.94,1.94,0,0,0-.34.21c-.13.07-.2.2-.33.27a1.2,1.2,0,0,0-.34.21c-.13.07-.2.2-.34.27a1.15,1.15,0,0,0-.33.21c-.14.07-.2.2-.34.27a1.38,1.38,0,0,0-.33.2.88.88,0,0,0-.27.28c-.14.07-.2.13-.34.2s-.2.21-.27.28a1.38,1.38,0,0,1-.33.2l-.27.27c-.14.07-.2.14-.34.21l-.27.27a1.09,1.09,0,0,0-.33.27,1.49,1.49,0,0,0-.27.35,1.27,1.27,0,0,0-.34.27c-.07.14-.2.2-.27.34a1.09,1.09,0,0,0-.33.27,1.31,1.31,0,0,1-.27.35,1.27,1.27,0,0,0-.34.27,1.27,1.27,0,0,1-.27.34,1.4,1.4,0,0,1-.33.27,1.31,1.31,0,0,1-.27.35.7.7,0,0,1-.34.27,1.27,1.27,0,0,1-.27.34.63.63,0,0,1-.33.27,1.31,1.31,0,0,1-.27.35.7.7,0,0,1-.34.27,1.27,1.27,0,0,1-.27.34c-.06.14-.2.21-.27.27s-.13.21-.2.35-.2.2-.27.27a1.45,1.45,0,0,1-.2.34.86.86,0,0,1-.27.27,1.51,1.51,0,0,1-.2.35,1.15,1.15,0,0,1-.27.27,1.45,1.45,0,0,1-.2.34c-.07.14-.2.21-.27.34a1.45,1.45,0,0,1-.2.34c-.07.14-.2.21-.27.35a1.68,1.68,0,0,1-.2.34c-.07.13-.2.2-.27.34a1.45,1.45,0,0,1-.2.34c-.07.14-.2.21-.27.34a1.45,1.45,0,0,1-.2.34c-.07.14-.2.21-.27.35l-.2.41c-.07.13-.2.2-.27.34l-.2.41a1.27,1.27,0,0,1-.27.34,1.29,1.29,0,0,1-.2.41,1.27,1.27,0,0,1-.27.34c-.07.14-.07.27-.14.41a1.1,1.1,0,0,1-.26.34c-.07.14-.07.27-.14.41s-.13.21-.2.34-.07.28-.14.41a3.79,3.79,0,0,1-.2.34c-.06.14-.06.28-.13.41s-.14.21-.2.35-.07.27-.14.41-.13.2-.2.34-.07.27-.13.41a1.45,1.45,0,0,1-.2.34c-.07.14-.07.27-.14.41a1.45,1.45,0,0,1-.2.34c-.07.14-.07.27-.13.41a1.48,1.48,0,0,1-.21.34c-.06.14-.06.28-.13.41a1.45,1.45,0,0,1-.2.34c-.07.14-.07.28-.14.41l-.2.41a1,1,0,0,0-.07.41l-.2.41c0,.14-.06.28-.06.41a1.05,1.05,0,0,0-.14.41c0,.14-.06.28-.06.41a.91.91,0,0,0-.14.41c0,.14-.07.28-.07.41a1,1,0,0,0-.13.41.83.83,0,0,1-.07.41,1,1,0,0,0-.13.41.83.83,0,0,1-.07.41c-.07.14-.07.28-.13.41A1,1,0,0,1,25,61a.84.84,0,0,1-.14.41.82.82,0,0,1-.06.41,2.31,2.31,0,0,0-.2.82,1,1,0,0,1-.14.41v.41a.94.94,0,0,1-.13.41v.41a1,1,0,0,1-.14.41v.42c0,.14-.06.27-.06.41v.41c0,.14-.07.27-.07.41v.41c0,.13-.07.27-.07.41v.41c0,.13-.06.27-.06.41v.4c0,.14-.07.28-.07.41v.41c0,.14-.07.28-.07.41V70c0,.14-.07.28-.07.41s.07.28.07.41-.07.28-.07.41.07.28.07.41a.83.83,0,0,1-.07.41c0,.14.07.28.07.41a.83.83,0,0,1-.07.41c0,.14.07.28.07.41v.41c0,.14.07.28.07.41v.41c0,.14.07.28.07.41v.42c0,.13.06.27.06.41v.41c0,.13.07.27.07.41V77c0,.13.07.27.07.4v.41c0,.14.06.28.06.41v.41a1,1,0,0,0,.14.41v.41c.06.14.06.28.13.41v.41c.07.14.07.28.14.41a.93.93,0,0,0,.06.41c.07.14.07.28.14.41a.93.93,0,0,0,.06.41.91.91,0,0,1,.14.41.83.83,0,0,0,.07.41,1,1,0,0,1,.13.41.83.83,0,0,1,.07.41,1,1,0,0,1,.13.41.83.83,0,0,1,.07.41,1,1,0,0,1,.13.41.83.83,0,0,1,.07.41,1.05,1.05,0,0,1,.14.41,1,1,0,0,1,.06.41,1.05,1.05,0,0,1,.14.41,1,1,0,0,1,.06.41l.2.41a.83.83,0,0,1,.07.41l.2.41c.07.14.07.28.14.41a1.51,1.51,0,0,0,.2.35c.07.13.07.27.13.41s.14.2.21.34.06.27.13.41.13.2.2.34.07.27.14.41.13.2.2.34.06.27.13.41.14.2.2.34.07.27.14.41a3.79,3.79,0,0,0,.2.34c.07.14.07.28.13.41s.14.21.2.34.07.28.14.41.13.21.2.35.07.27.14.41a1.06,1.06,0,0,0,.26.34,1,1,0,0,1,.14.41c.07.13.2.2.27.34l.2.41c.07.14.2.2.27.34l.2.41c.07.14.2.21.27.34l.2.41c.07.14.2.21.27.34a1.51,1.51,0,0,0,.2.35c.07.13.2.2.27.34a1.68,1.68,0,0,0,.2.34c.07.14.2.2.27.34a1.45,1.45,0,0,0,.2.34c.07.14.2.21.27.34a1.51,1.51,0,0,0,.2.35c.07.13.2.2.27.34a1.68,1.68,0,0,0,.2.34c.07.14.2.2.27.27s.14.21.2.34a1,1,0,0,0,.27.28,3.79,3.79,0,0,1,.2.34l.27.27c.07.14.14.21.2.34l.27.28a1.9,1.9,0,0,0,.61.61,1.13,1.13,0,0,0,.27.34c.13.07.2.21.33.28a1.27,1.27,0,0,0,.27.34,1.27,1.27,0,0,1,.34.27,1.13,1.13,0,0,0,.27.34,2.21,2.21,0,0,1,.6.62,1.27,1.27,0,0,1,.34.27.7.7,0,0,1,.27.34,1.26,1.26,0,0,1,.33.28.65.65,0,0,1,.27.34,1.27,1.27,0,0,1,.34.27.7.7,0,0,1,.27.34A1.26,1.26,0,0,1,40,108c.14.07.2.2.27.27s.2.14.34.2.2.21.27.28a1.38,1.38,0,0,1,.33.2l.27.28a1.68,1.68,0,0,1,.34.2c.13.07.2.21.27.27a1.85,1.85,0,0,1,.33.21c.14.07.2.2.34.27a1.42,1.42,0,0,1,.33.21c.14.07.21.2.34.27a1.36,1.36,0,0,1,.34.21c.13.07.2.2.33.27a1.45,1.45,0,0,1,.34.2c.13.08.2.21.33.28a1.45,1.45,0,0,1,.34.2c.13.07.2.21.34.28l.4.2c.13.07.2.21.33.27l.41.21A1.09,1.09,0,0,1,47,113c.14.07.27.07.41.21a1.09,1.09,0,0,1,.33.27c.14.07.27.07.41.14a1.09,1.09,0,0,1,.33.27c.14.07.27.07.41.14s.2.13.33.2.27.07.41.14.2.14.33.2.27.07.41.14.2.14.33.21.27.07.41.13.47.28.73.41a3.38,3.38,0,0,1,.81.28,5.76,5.76,0,0,1,1.08.61,8.45,8.45,0,0,1,1.21.27,6.71,6.71,0,0,1,1.48.82,4.82,4.82,0,0,1,1.68.21,6.28,6.28,0,0,1,1.88.95,5.6,5.6,0,0,1,2.08,0,5.88,5.88,0,0,1,2.36,1.1,5.19,5.19,0,0,1,2.55-.41,5.13,5.13,0,0,1,2.83,1.09,5.23,5.23,0,0,1,2.89-1,5.55,5.55,0,0,1,3.43,1,5.87,5.87,0,0,1,3.09-1.78,5.46,5.46,0,0,1,4,.82,5.78,5.78,0,0,1,3.09-2.73,5.65,5.65,0,0,1,4.71.54,5.72,5.72,0,0,1,2.76-4,5.48,5.48,0,0,1,5.51.07,5.85,5.85,0,0,1,1.88-5.26,5.49,5.49,0,0,1,6.73-.34,5.72,5.72,0,0,1,.06-6.84,5.52,5.52,0,0,1,7.73-1.06l.14.11a5.72,5.72,0,0,1,.94,8,5.53,5.53,0,0,1-7.6,1.17,5.7,5.7,0,0,1-.87,7.72,5.53,5.53,0,0,1-6.39.54,5.68,5.68,0,0,1-2.82,5.88,5.58,5.58,0,0,1-5.65-.14A5.55,5.55,0,0,1,87,127.73a5.44,5.44,0,0,1-2.15-.86,5.51,5.51,0,0,1-7.4,2.43,5.89,5.89,0,0,1-.73-.44,5.25,5.25,0,0,1-3.9,1.77,5.11,5.11,0,0,1-3.5-1.16,5.36,5.36,0,0,1-6.45-.2,4.79,4.79,0,0,1-3.1.27,5.75,5.75,0,0,1-2.35-1.09,6.8,6.8,0,0,1-2.62-.07,5.68,5.68,0,0,1-1.82-1,5.18,5.18,0,0,1-2-.34,8.36,8.36,0,0,1-1.34-.75,5.81,5.81,0,0,1-1.48-.41,9.72,9.72,0,0,1-.87-.48,3.41,3.41,0,0,1-.94-.34,2.82,2.82,0,0,0-.48-.27c-.13-.07-.33-.07-.47-.21s-.26-.2-.4-.27-.34-.14-.47-.21-.27-.2-.4-.27-.34-.14-.47-.2-.27-.21-.41-.28-.33-.13-.47-.2-.27-.21-.4-.28-.34-.13-.47-.2-.27-.2-.41-.27-.33-.14-.47-.21a1.85,1.85,0,0,1-.4-.34c-.13-.07-.34-.14-.47-.2a1.68,1.68,0,0,1-.4-.35c-.14-.07-.34-.13-.47-.2a1.9,1.9,0,0,1-.41-.34,1.72,1.72,0,0,1-.47-.28,1.61,1.61,0,0,1-.4-.34,1.69,1.69,0,0,1-.47-.27,1.9,1.9,0,0,1-.41-.34,3.24,3.24,0,0,1-.47-.28c-.13-.13-.26-.2-.4-.34a1.23,1.23,0,0,1-.4-.27c-.14-.14-.27-.21-.41-.34a1.38,1.38,0,0,1-.4-.28l-.34-.34c-.13-.07-.26-.2-.4-.27l-.34-.34c-.13-.07-.26-.21-.4-.28l-.33-.34c-.14-.07-.27-.2-.41-.27s-.2-.27-.33-.41a1.39,1.39,0,0,0-.41-.27c-.13-.14-.2-.28-.33-.41s-.27-.21-.41-.35-.2-.27-.33-.41-.27-.2-.41-.34-.2-.27-.33-.41-.27-.2-.41-.34-.2-.27-.33-.41-.27-.2-.41-.34-.2-.27-.33-.41-.27-.21-.41-.34-.2-.28-.33-.41-.27-.21-.4-.34a1.22,1.22,0,0,1-.27-.41c-.14-.14-.27-.21-.41-.35a1.46,1.46,0,0,1-.27-.41c-.13-.13-.27-.2-.33-.34a1.39,1.39,0,0,1-.27-.41c-.14-.13-.27-.2-.34-.34a1.62,1.62,0,0,1-.27-.41c-.13-.13-.27-.2-.33-.34a1.39,1.39,0,0,1-.27-.41,1.9,1.9,0,0,1-.34-.41,1.62,1.62,0,0,1-.27-.41,1.86,1.86,0,0,1-.33-.41,1.09,1.09,0,0,1-.27-.48c-.14-.13-.2-.27-.34-.41s-.17-.32-.27-.48-.2-.27-.33-.41a4.39,4.39,0,0,0-.27-.47c-.14-.14-.2-.28-.34-.41s-.13-.35-.2-.48-.2-.28-.33-.41-.14-.34-.21-.48a1.86,1.86,0,0,0-.33-.41c-.07-.14-.14-.34-.2-.48s-.2-.27-.27-.41-.14-.34-.2-.48-.2-.27-.27-.41-.14-.34-.2-.48-.21-.27-.27-.41-.14-.34-.2-.47-.21-.28-.27-.41-.14-.35-.2-.48-.21-.28-.27-.41-.14-.34-.21-.48a2.77,2.77,0,0,1-.26-.48c-.07-.14-.14-.34-.21-.48a3.1,3.1,0,0,1-.26-.47,1.2,1.2,0,0,1-.14-.48,3.72,3.72,0,0,1-.27-.48c-.07-.14-.07-.34-.13-.48a2.27,2.27,0,0,1-.27-.48c-.07-.13-.07-.34-.14-.48a3.9,3.9,0,0,1-.2-.47c-.06-.14-.06-.35-.13-.48a3.26,3.26,0,0,1-.2-.48c-.07-.14-.07-.34-.14-.48a3.45,3.45,0,0,1-.2-.48c-.07-.13-.07-.34-.13-.48a4,4,0,0,1-.21-.47c-.06-.14-.06-.35-.13-.48s-.13-.34-.2-.48a1.12,1.12,0,0,1-.07-.48c-.07-.14-.13-.34-.2-.48a1.27,1.27,0,0,1-.07-.48c-.06-.13-.13-.34-.2-.47a1.32,1.32,0,0,1-.06-.48c-.07-.14-.14-.34-.21-.48a1.69,1.69,0,0,1-.06-.55,1.33,1.33,0,0,1-.14-.48,1.41,1.41,0,0,1-.06-.54,1.16,1.16,0,0,1-.14-.48,1.7,1.7,0,0,1-.07-.55,1.32,1.32,0,0,1-.13-.47,1.46,1.46,0,0,0-.07-.55,1.32,1.32,0,0,1-.13-.48,1.49,1.49,0,0,0-.07-.55,1.32,1.32,0,0,1-.13-.47v-.55c-.07-.14-.07-.34-.14-.48v-.55c-.06-.13-.06-.34-.13-.47V78.3a1.33,1.33,0,0,0-.14-.48v-.55c0-.13-.06-.34-.06-.47v-.55c0-.21-.07-.34-.07-.48v-.55c0-.2-.07-.34-.07-.54v-.55c0-.21-.06-.34-.06-.55a1.48,1.48,0,0,1,.06-.55c0-.2-.06-.34-.06-.54a1.28,1.28,0,0,1,.06-.55c0-.2-.07-.34-.07-.54C12.54,71.39,12.61,71.19,12.61,71.05Z"/></svg>