<svg id="Layer_13" data-name="Layer 13" xmlns="http://www.w3.org/2000/svg" xmlns:xlink="http://www.w3.org/1999/xlink" viewBox="0 0 50 50"><defs><style>.cls-1{fill:none;}.cls-2{clip-path:url(#clip-path);}.cls-3{fill:#24a7df;}.cls-4{clip-path:url(#clip-path-2);}.cls-5{clip-path:url(#clip-path-3);}</style><clipPath id="clip-path"><path class="cls-1" d="M23,2h-.08a10.4,10.4,0,0,0-6.49,2.79C14.88,6.27,15,7.67,14.14,8.57a12.44,12.44,0,0,0-2.22,4.6c-.33,1.56-.74,1-1.4,4.19a6.41,6.41,0,0,0,.09,2.14,14.83,14.83,0,0,0-.9,3.94c-.25,2.39.9,3.78,1.8,5.1s.17,3.53.83,4.68a2.07,2.07,0,0,0,1.31,1,18.17,18.17,0,0,0,2,.42l-.09-.42s3.2-2.71,10.36-2.05a31.92,31.92,0,0,1,9.2,2l-.08,1.8L38,35.19c1.23-.33,1.48-.09,2.39-.42A2.43,2.43,0,0,0,42,32.89c.25-1-.82-2.22-.9-2.55s.33-.9.33-1.23-.5-.82-.41-1.07A1.9,1.9,0,0,0,41.25,27a4.3,4.3,0,0,1-.16-1.56c.08-.58,1.15-.58,1.64-.82a1,1,0,0,0,.5-1.32.8.8,0,0,0-.08-.16c-.42-.58-1-1.23-1.89-2.55A10.57,10.57,0,0,0,39,18c-.5-.41-.09-1.32.08-1.64.41-.74,0-1.07,0-1.07-.33-.58-1.07-1.89-1.56-2.8s-.9-2.13-1.32-2.71a3.51,3.51,0,0,0-.82-1.06,1.74,1.74,0,0,0,.41-1.48,2.3,2.3,0,0,0-1.15-1.4c-.66-.41-1.23-1-2.88-2a6.77,6.77,0,0,0-3.53-1A23.23,23.23,0,0,0,23.18,2Z"/></clipPath><clipPath id="clip-path-2"><path class="cls-1" d="M15.45,34,15.12,41A19.52,19.52,0,0,1,26,42.09a23.07,23.07,0,0,1,8.13,6.57l.33-3.2,3,.9L34.6,36.83,34.1,41S32,37.41,26.3,35.27a24,24,0,0,0-8.38-1.48,17,17,0,0,0-2.47.16"/></clipPath><clipPath id="clip-path-3"><path class="cls-1" d="M7.73,40c.08,2.14.33,2.63-.09,3.78a11.59,11.59,0,0,0-1,2.46h0c0,.09,0,.17.08.17.25.24,2.88-.41,4.85-2.3A12.91,12.91,0,0,0,14,41.26l.33-5.5a8.33,8.33,0,0,1-1.56-.33,2,2,0,0,1-1.23-.82s-3.95,2-3.78,5.42"/></clipPath></defs><title>icon-jeff-portrait</title><g class="cls-2"><path class="cls-3" d="M43.56,37.08,8.14,35.76,9.45.69l35.42,1.4Z"/></g><g class="cls-4"><path class="cls-3" d="M37.47,49.48l-22.92-.82L15.12,33l22.93.9Z"/></g><g class="cls-5"><path class="cls-3" d="M14.3,47l-8.14-.33.5-12.32,8.13.33Z"/></g></svg>