<svg id="Layer_15" data-name="Layer 15" xmlns="http://www.w3.org/2000/svg" viewBox="0 0 50 50"><defs><style>.cls-1{fill:#24a7df;}</style></defs><title>icon-grants</title><path class="cls-1" d="M28.31,41.24a10.32,10.32,0,0,0,2.07.29C19.46,37.94,15.07,30.24,16.29,21.72a21.47,21.47,0,0,1,2.13-6.26,12.56,12.56,0,0,0-4,8.39C13.63,32.31,20,39.33,28.31,41.24Z"/><path class="cls-1" d="M15.68,36.76a10.77,10.77,0,0,1,6.23,2.81,10.8,10.8,0,0,1-6.47,2.21A10.77,10.77,0,0,1,9.22,39,10.82,10.82,0,0,1,15.68,36.76Z"/><path class="cls-1" d="M10.22,30.34A12.89,12.89,0,0,1,16.87,35a12.91,12.91,0,0,1-8,1.15,12.88,12.88,0,0,1-6.65-4.69A12.92,12.92,0,0,1,10.22,30.34Z"/><path class="cls-1" d="M11.69,22.47a12.83,12.83,0,0,1,2.19,7.83,12.9,12.9,0,0,1-7-4.22,12.85,12.85,0,0,1-2.18-7.82A12.88,12.88,0,0,1,11.69,22.47Z"/><path class="cls-1" d="M19.6,12.77a7.6,7.6,0,0,1-3.28,3.49,7.48,7.48,0,0,1,0-4.79A7.43,7.43,0,0,1,19.61,8,7.59,7.59,0,0,1,19.6,12.77Z"/><path class="cls-1" d="M15.05,15.84a10.66,10.66,0,0,1-1.66,6.5,10.59,10.59,0,0,1-3.25-5.87A10.7,10.7,0,0,1,11.8,10,10.64,10.64,0,0,1,15.05,15.84Z"/><path class="cls-1" d="M21.86,41.24a10.23,10.23,0,0,1-2.06.29c10.91-3.59,15.31-11.29,14.08-19.81a21.47,21.47,0,0,0-2.13-6.26,12.56,12.56,0,0,1,4,8.39C36.54,32.31,30.14,39.33,21.86,41.24Z"/><path class="cls-1" d="M34.49,36.76a10.77,10.77,0,0,0-6.23,2.81,10.8,10.8,0,0,0,6.47,2.21A10.81,10.81,0,0,0,41,39,10.87,10.87,0,0,0,34.49,36.76Z"/><path class="cls-1" d="M40,30.34A12.89,12.89,0,0,0,33.31,35a12.88,12.88,0,0,0,8,1.14A12.83,12.83,0,0,0,48,31.48,12.92,12.92,0,0,0,40,30.34Z"/><path class="cls-1" d="M38.48,22.47A12.86,12.86,0,0,0,36.3,30.3a12.81,12.81,0,0,0,7-4.21,12.86,12.86,0,0,0,2.18-7.83A12.88,12.88,0,0,0,38.48,22.47Z"/><path class="cls-1" d="M30.57,12.77a7.62,7.62,0,0,0,3.29,3.49,7.62,7.62,0,0,0,0-4.79A7.53,7.53,0,0,0,30.57,8,7.59,7.59,0,0,0,30.57,12.77Z"/><path class="cls-1" d="M35.12,15.84a10.66,10.66,0,0,0,1.66,6.5A10.59,10.59,0,0,0,40,16.47,10.63,10.63,0,0,0,38.37,10,10.64,10.64,0,0,0,35.12,15.84Z"/></svg>