<svg id="Layer_7" data-name="Layer 7" xmlns="http://www.w3.org/2000/svg" viewBox="0 0 50 50"><defs><style>.cls-1{fill:#707070;}</style></defs><title>icon-search</title><path class="cls-1" d="M29.24,29a19.43,19.43,0,0,0,1.46-1.69l2,2a3.53,3.53,0,0,1,2.92,1L44.3,39A3.58,3.58,0,1,1,39.23,44l-8.7-8.7a3.47,3.47,0,0,1-1-2.92l-2-2A19.43,19.43,0,0,0,29.24,29Z"/><path class="cls-1" d="M9.27,28.06a13.47,13.47,0,1,0,0-19A13.47,13.47,0,0,0,9.27,28.06Zm1.85-17.2a10.86,10.86,0,1,1,0,15.36A10.86,10.86,0,0,1,11.12,10.86Z"/></svg>