<svg id="Layer_33" data-name="Layer 33" xmlns="http://www.w3.org/2000/svg" viewBox="0 0 50 50"><defs><style>.cls-1{fill:#24a7df;}</style></defs><title>icon-mm-community</title><path id="Path_362" data-name="Path 362" class="cls-1" d="M38.68,33.79V38.6a16.91,16.91,0,0,1-4.62,2.09V34.92l-1,6a33.43,33.43,0,0,1-8.45,1,33.22,33.22,0,0,1-8.48-1l-1-6.06v5.76a16.71,16.71,0,0,1-5-2.34V33.79c0-4.83,1.65-9.28,10.74-10.19a8.05,8.05,0,0,0,7.37,0C37.51,24.48,38.68,29,38.68,33.79ZM24.59,7.5a7.56,7.56,0,1,0,7.56,7.56A7.57,7.57,0,0,0,24.59,7.5Zm8.59,4.61a5.08,5.08,0,1,1,0,7.18c-.12-.12-.24-.25-.35-.38a8.91,8.91,0,0,0,.86-3.86A9.16,9.16,0,0,0,33.18,12.11Zm6,9.34a5.36,5.36,0,0,1-2.48.59,5.29,5.29,0,0,1-2.47-.59,12.59,12.59,0,0,0-3.77.9c8.37,1.49,9.66,6.45,9.69,11.24.79-.12,1.55-.26,2.26-.44l.67-4.07V33a11.74,11.74,0,0,0,3.1-1.41V28.33c0-3.28-.79-6.28-7-6.88ZM7.38,15.71A5.07,5.07,0,0,1,16,12.09,9,9,0,0,0,16.38,19a5.08,5.08,0,0,1-9-3.24Zm11.35,6.66a12.09,12.09,0,0,0-3.79-.92,5.4,5.4,0,0,1-2.46.59A5.59,5.59,0,0,1,10,21.45c-6.21.6-7,3.6-7,6.86v3.23A12.25,12.25,0,0,0,6.1,33v-3.9l.67,4.07a18,18,0,0,0,1.89.4c0-4.17,1.28-9.59,10.07-11.16Z"/></svg>