<svg id="Layer_16" data-name="Layer 16" xmlns="http://www.w3.org/2000/svg" viewBox="0 0 50 50"><defs><style>.cls-1{fill:#24a7df;}</style></defs><title>icon-support</title><path class="cls-1" d="M46.91,23.4,40.43,8.93a.9.9,0,0,0-1.16-.51l-.09,0-3,1.6a1.06,1.06,0,0,0-.43,1.36l6.48,14.42a.89.89,0,0,0,1.15.51l.1,0,3-1.59A1,1,0,0,0,46.91,23.4Z"/><path class="cls-1" d="M13.77,10.06l-3-1.6a.9.9,0,0,0-1.2.38.36.36,0,0,0,0,.09L3.09,23.4a1,1,0,0,0,.43,1.36l3,1.6A.89.89,0,0,0,7.68,26a.36.36,0,0,0,0-.09L14.2,11.42A1.1,1.1,0,0,0,13.77,10.06Z"/><path class="cls-1" d="M40,28.24l.64-1.55a.64.64,0,0,0,0-.57L34.93,13.35a.59.59,0,0,0-.55-.38A5.59,5.59,0,0,1,32,12.73h0c-.35-.13-3.78-1.59-6.48-1.31a6.26,6.26,0,0,0-3.6,1.46,1.11,1.11,0,0,1-.43.19h-6a.55.55,0,0,0-.52.37l-.34.75a.65.65,0,0,0,.31.88.66.66,0,0,0,.2.06h2.84a.27.27,0,0,1,.26.27.25.25,0,0,1-.05.16c-.17.23-.26.51-.34.61-.77,1.64-.52,3.52-1,5.21-.22.71-.6,1.27-.17,2a2.38,2.38,0,0,0,1.46.9h.08a4,4,0,0,0,3.74-2,6.92,6.92,0,0,0,1-2.44,2.05,2.05,0,0,1,1-1.64c1.72-1.08,4.38,1.73,4.33,1.69.86,1,1.89,1.88,2.84,2.77,1.28,1.22,2.53,2.39,3.82,3.57s2.49,2.35,3.77,3.47l.09.1a2.16,2.16,0,0,1,.08,2.44s-.64,1.17-2,.19c-2.37-1.79-4.68-3.57-7-5.4l-.86-.66a1,1,0,0,0-1.24-.14.89.89,0,0,0-.13,1,1.71,1.71,0,0,0,.77.66,45.52,45.52,0,0,1,3.69,3l3.35,2.68.17.14.08.09a1.7,1.7,0,0,1,0,1.93c0,.09-.12.14-.17.23a1.14,1.14,0,0,1-1.46-.09L27,30.49c-.38-.33-1-.42-1.24.33a1.16,1.16,0,0,0,.08.66c.13.38.52.56.82.8s.43.33.64.51c.6.47,1.24,1,1.85,1.46L31,35.75c.35.29.73.57,1.08.85a0,0,0,0,1,0,0h0c1.29,1-.3,3.14-1.63,2.11l-5.24-4.23a.91.91,0,0,0-1.28,0h0c0,.05-.09.09-.09.14a1.16,1.16,0,0,0-.08.66,2,2,0,0,0,.9,1l.86.65,1.84,1.46a1,1,0,0,1,.22.19c.47.37-.13,1-.43,1.22a1.46,1.46,0,0,1-1.55-.19l-.3-.33a1,1,0,0,1-.17-.28A1.47,1.47,0,0,0,23.86,38a.62.62,0,0,1-.26-.09l-.81-.57a.54.54,0,0,1-.26-.51,2.1,2.1,0,0,0-1-1.69H21.5A2.85,2.85,0,0,0,20,34.77a.48.48,0,0,1-.47-.19l-.08-.09a.64.64,0,0,1-.17-.47,2.08,2.08,0,0,0-.73-1.6,2.54,2.54,0,0,0-1.76-.71.47.47,0,0,1-.43-.18h0a.67.67,0,0,1-.17-.57,2.35,2.35,0,0,0-.61-2.2,2.72,2.72,0,0,0-2-.66.61.61,0,0,1-.6-.24L10.94,25a.56.56,0,0,0-.78-.13.48.48,0,0,0-.2.27l-.3.66a.69.69,0,0,0,.08.65l1.93,2.68a.68.68,0,0,1,.05.75L11,31a3.9,3.9,0,0,0-.95,2.3,2.47,2.47,0,0,0,1,2s.09,0,.13,0a2.67,2.67,0,0,0,1.72.1.59.59,0,0,1,.74.4.76.76,0,0,1,0,.21,2.43,2.43,0,0,0,.77,1.88s0,.05.09.05a2.54,2.54,0,0,0,1.89.28.62.62,0,0,1,.72.5.81.81,0,0,1,0,.16,2,2,0,0,0,.9,1.78,1.67,1.67,0,0,0,2.18,0,.6.6,0,0,1,.83.21.76.76,0,0,1,.08.21,1.9,1.9,0,0,0,1,1.41s1.33.75,2.62-1a.51.51,0,0,1,.69-.15,2.84,2.84,0,0,0,1,.29,2.77,2.77,0,0,0,2.75-1.32.57.57,0,0,1,.73-.19,6.52,6.52,0,0,0,1.67.43h.09c1.67,0,2.32-1.65,2.53-2.4a.56.56,0,0,1,.52-.42,3,3,0,0,0,2.88-3,1.09,1.09,0,0,0,0-.18.31.31,0,0,1,.26-.28,2.73,2.73,0,0,0,2.41-1.45,3.45,3.45,0,0,0-.13-4C39.91,28.71,39.91,28.47,40,28.24Z"/></svg>