<svg id="Layer_30" data-name="Layer 30" xmlns="http://www.w3.org/2000/svg" viewBox="0 0 50 50"><defs><style>.cls-1{fill:#24a7df;}</style></defs><title>icon-social-feed</title><path id="Path_359" data-name="Path 359" class="cls-1" d="M38.29,34.15a6.61,6.61,0,0,0-4.43,1.77l-15.73-9.3a3.54,3.54,0,0,0,.22-1.55,3.57,3.57,0,0,0-.22-1.55l15.73-9.08a6.17,6.17,0,0,0,4.43,1.77,6.52,6.52,0,0,0,6.64-6.4,1,1,0,0,0,0-.24,6.64,6.64,0,0,0-13.28,0,3.59,3.59,0,0,0,.22,1.55L16.14,20.2a6.17,6.17,0,0,0-4.43-1.77,6.52,6.52,0,0,0-6.64,6.4,1,1,0,0,0,0,.24,6.52,6.52,0,0,0,6.4,6.65h.24a6.2,6.2,0,0,0,4.43-1.78l15.73,9.31a2.88,2.88,0,0,0-.23,1.33,6.43,6.43,0,0,0,12.85,0,6.25,6.25,0,0,0-6.06-6.43Z"/></svg>