<svg id="Layer_17" data-name="Layer 17" xmlns="http://www.w3.org/2000/svg" viewBox="0 0 50 50"><defs><style>.cls-1{fill:#24a7df;}</style></defs><title>icon-trials</title><path class="cls-1" d="M29.18,3c-.87.54-.71,1.71-.3,2.79L8.15,35.41a6,6,0,0,0-1.08,5.2,8.45,8.45,0,0,0,3.58,4.58A8.43,8.43,0,0,0,16.19,47a6.12,6.12,0,0,0,4.52-2.79L41.44,14.62c1.15,0,2.31-.23,2.53-1.23s-.4-1.78-1.73-2.71l-9.92-7C31,2.79,29.93,2.56,29.18,3ZM21.09,19.77l4.15,2.92-.71,1-4.2-2.94.72-1Zm1.55,6.63-.72,1-4.19-2.94.71-1Zm-6.77.82L20,30.13l-.71,1-4.2-2.94.72-1Zm-2.61,3.72,4.16,2.91-.72,1-4.19-2.94.71-1Zm-2.64,3.69,4.19,2.94-.71,1L9.9,35.65Zm21-29.89,9.93,7c2.67,1.87-1.06,1.51-1.06,1.51L32.58,24.47l-9.9-6.94,1.9-2.71,4.15,2.91.72-1L25.28,13.8l1.5-2.14,4.15,2.91.72-1-4.16-2.91L29,8.5l4.16,2.91.72-1L29.71,7.47l.85-1.21S28.93,2.87,31.6,4.74Z"/></svg>