<svg id="Layer_31" data-name="Layer 31" xmlns="http://www.w3.org/2000/svg" viewBox="0 0 50 50"><defs><style>.cls-1{fill:#c7e8f6;}</style></defs><title>icon-quote</title><path id="Path_360" data-name="Path 360" class="cls-1" d="M19.11,10.69s-3.63,4.75-4,8.25l.77.26a10.32,10.32,0,0,1-.77,20.13,9.54,9.54,0,0,1-2,.21C5.89,39.54,3,33.45,3,29.18,3,18.64,14.75,11.51,19.11,10.69ZM26.5,29.18c0,4.27,2.89,10.36,10.15,10.36a9.54,9.54,0,0,0,2-.21,10.32,10.32,0,0,0,.77-20.13l-.77-.26c.38-3.5,4-8.25,4-8.25C38.25,11.51,26.5,18.64,26.5,29.18Z"/></svg>