<svg id="Layer_11" data-name="Layer 11" xmlns="http://www.w3.org/2000/svg" viewBox="0 0 50 50"><defs><style>.cls-1{fill:#24a7df;}</style></defs><title>icon-colon</title><path class="cls-1" d="M13.79,13.06a35.37,35.37,0,0,0,8.54.14,44.08,44.08,0,0,0,9.18-1.7,1.93,1.93,0,0,1,2.54,1,1.86,1.86,0,0,1,.14,1.07,18.4,18.4,0,0,0,1.63,9,14,14,0,0,1,.65,1.92c.41,2.25-1,3.89-3.5,4.37-8.12,1.51-10.32,1.51-9.1,9.51a23.53,23.53,0,0,0,1.38,4.92c.16.48.33.55,1,.55s.73-.07.89-.55a13,13,0,0,0,.57-2.47A12,12,0,0,0,27.53,37c-.41-2.12.33-4.3,3.49-3.62,3.58.75,10.82,1,12-3,.74-2.25-1-5.33-1.87-7.52-2-4.38-3-7-2-13.06a3.68,3.68,0,0,0-.48-2.73A3.81,3.81,0,0,0,38,6.29,3.29,3.29,0,0,0,37,6a4.29,4.29,0,0,0-2.28.48,34.67,34.67,0,0,1-12.35,3.63,44.92,44.92,0,0,1-12.19-.82C7.37,8.83,5.75,11,7.53,12.86a1.42,1.42,0,0,1,.41,1.44,46,46,0,0,0-1.3,10c0,1.77-.08,4,1.87,5.13,1.22.68,2.76.75,3.58-.34a3.48,3.48,0,0,1,2.68-1.58,1.72,1.72,0,0,0,1.22-2,2.32,2.32,0,0,0-.82-1.3c-2.92-3.48-4.22-5-4-9.7,0-1.1,1.22-1.58,2.6-1.37Zm2.52,17.58c-.48.67-.62.54-1.62,1-1.56,1.57-5.69,2-8.29.68C3,30.57,2.66,27.56,2.66,24.35a52.29,52.29,0,0,1,1.22-10C.71,10.06,5,5.07,10.79,6a39.21,39.21,0,0,0,11,.75A31.28,31.28,0,0,0,32.57,3.56a8.9,8.9,0,0,1,4.79-.88,7.4,7.4,0,0,1,2.69.95,7.19,7.19,0,0,1,1.87,1.78,6.89,6.89,0,0,1,1,4.85c-.89,5.27.08,7.52,1.79,11.42,1.3,3,3,6.29,2,9.5-1.71,5.54-9.59,6.56-15.36,5.68a15.11,15.11,0,0,1,.08,4.3,16.62,16.62,0,0,1-1.3,4.59A2,2,0,0,1,28.18,47H23.79A1.89,1.89,0,0,1,22,46a27.31,27.31,0,0,1-2.27-7.11c-1.3-8.55,1.05-11.35,11.46-13.12.65-.14,1.3,0,1.22-.76a9.18,9.18,0,0,0-.49-1.36c-1.22-3.36-1.87-5.06-1.87-8.35a49.74,49.74,0,0,1-7.48,1.17,47.7,47.7,0,0,1-7.56.07c.25,2.25,1.3,3.48,3.25,5.74l.25.27a5.39,5.39,0,0,1,1.22,2.33,4.52,4.52,0,0,1-.33,2.94A4.78,4.78,0,0,1,16.31,30.64Z"/></svg>