<svg id="Layer_14" data-name="Layer 14" xmlns="http://www.w3.org/2000/svg" viewBox="0 0 50 50"><defs><style>.cls-1{fill:#24a7df;}</style></defs><title>icon-awards</title><path class="cls-1" d="M25.23,10.19A10.51,10.51,0,1,0,35.74,20.7h0A10.52,10.52,0,0,0,25.23,10.19Z"/><path class="cls-1" d="M24.09,38.31a3.54,3.54,0,0,1-.73-.05,11.18,11.18,0,0,1-4.82-2c-.46-.28-.91-.6-1.37-.82s-1-.5-1.45-.73a11.44,11.44,0,0,1-4.28-2.91A10.81,10.81,0,0,1,9.53,27c-.14-.55-.27-1.09-.41-1.59s-.32-1-.5-1.5a11,11,0,0,1-1-5.14,11.27,11.27,0,0,1,2-4.83c.28-.45.6-.91.82-1.36s.5-1,.73-1.46a11.41,11.41,0,0,1,2.91-4.27,11.88,11.88,0,0,1,4.78-2c.55-.13,1.09-.27,1.59-.41s1-.32,1.5-.5a13.18,13.18,0,0,1,4.37-1,3.54,3.54,0,0,1,.73,0,11.18,11.18,0,0,1,4.82,2c.46.28.91.6,1.37.82s.95.5,1.45.73A11.44,11.44,0,0,1,39,9.55a11.74,11.74,0,0,1,2,4.78c.14.55.27,1.09.41,1.59s.32,1,.5,1.5a11.7,11.7,0,0,1,1,5.15,11.17,11.17,0,0,1-2.05,4.82c-.27.45-.59.91-.82,1.36s-.5,1-.72,1.46a11.43,11.43,0,0,1-2.92,4.28,11.82,11.82,0,0,1-4.77,1.95l-1.6.41c-.5.14-.95.32-1.5.5A14.22,14.22,0,0,1,24.09,38.31ZM26.36,5.73a9.86,9.86,0,0,0-3.45.87c-.55.18-1.1.41-1.64.54s-1.19.32-1.73.46A8.59,8.59,0,0,0,15.86,9a8.68,8.68,0,0,0-2.14,3.32,15.6,15.6,0,0,1-.78,1.59c-.27.5-.59,1-.91,1.5a9.38,9.38,0,0,0-1.64,3.64,8.44,8.44,0,0,0,.78,4c.18.55.41,1.09.54,1.64s.32,1.18.46,1.73a8.59,8.59,0,0,0,1.41,3.68,8.68,8.68,0,0,0,3.32,2.14c.54.23,1.07.49,1.59.77s1,.59,1.5.91a9.1,9.1,0,0,0,3.64,1.64h.46a10,10,0,0,0,3.46-.86c.54-.18,1.09-.41,1.63-.55s1.19-.32,1.73-.45a8.81,8.81,0,0,0,3.69-1.41,8.85,8.85,0,0,0,2.13-3.32,15.76,15.76,0,0,1,.78-1.6c.27-.5.59-1,.91-1.5a9.41,9.41,0,0,0,1.64-3.63,9.14,9.14,0,0,0-.82-3.92c-.18-.54-.41-1.09-.55-1.64s-.32-1.18-.45-1.72a8.81,8.81,0,0,0-1.41-3.69A8.83,8.83,0,0,0,33.5,9.1a16.6,16.6,0,0,1-1.59-.77c-.5-.28-1-.59-1.5-.91a9.1,9.1,0,0,0-3.64-1.64A1.13,1.13,0,0,0,26.36,5.73Z"/><path class="cls-1" d="M31.14,46.41h-.23a1.37,1.37,0,0,1-1-.78l-3.82-8.05a1.36,1.36,0,0,1,2.41-1.27.36.36,0,0,1,0,.09l3,6.23,2.6-2.73a1.29,1.29,0,0,1,.91-.41l3.73-.27-3-6.23a1.36,1.36,0,1,1,2.41-1.27.2.2,0,0,1,0,.08l3.83,8.06A1.39,1.39,0,0,1,42,41.13a1.36,1.36,0,0,1-1.09.68l-5.19.37L32.14,46A1.46,1.46,0,0,1,31.14,46.41Z"/><path class="cls-1" d="M18.63,47a1.38,1.38,0,0,1-1-.45l-3.51-3.92-5.23-.22a1.34,1.34,0,0,1-1.09-.64,1.28,1.28,0,0,1,0-1.27l4.1-8.69a1.36,1.36,0,0,1,2.5,1.09l0,.09-3.23,6.82,3.74.18a1.3,1.3,0,0,1,.95.46l2.5,2.77,3.23-6.82A1.37,1.37,0,0,1,24,37.58l-4.09,8.65a1.44,1.44,0,0,1-1.05.77Z"/></svg>