<?xml version="1.0" encoding="utf-8"?>
<!-- Generator: Adobe Illustrator 23.0.0, SVG Export Plug-In . SVG Version: 6.00 Build 0)  -->
<svg version="1.1" id="Layer_1" xmlns="http://www.w3.org/2000/svg" xmlns:xlink="http://www.w3.org/1999/xlink" x="0px" y="0px"
	 viewBox="0 0 72 72" style="enable-background:new 0 0 72 72;" xml:space="preserve">
<style type="text/css">
	.st0{fill:#FFFFFF;}
</style>
<g>
	<path class="st0" d="M19.4,7.3c1-0.9,2.1-1.8,3.3-2.7c1.2-0.8,2.5-1.6,4-2.2s3-1.2,4.7-1.5c1.7-0.4,3.5-0.6,5.4-0.6
		c2.6,0,5,0.4,7.2,1.1c2.2,0.8,4.1,1.8,5.7,3.2s2.8,3,3.8,5c0.9,1.9,1.4,4.1,1.4,6.6s-0.4,4.6-1.1,6.4c-0.7,1.8-1.7,3.4-2.8,4.7
		s-2.3,2.5-3.7,3.5s-2.6,1.9-3.7,2.8c-1.2,0.9-2.2,1.8-3,2.6c-0.8,0.9-1.3,1.8-1.4,2.9l-0.9,7.5h-6l-0.6-8.1
		c-0.1-1.5,0.1-2.7,0.8-3.8s1.6-2.1,2.7-3.1s2.3-1.9,3.7-2.8c1.3-0.9,2.6-2,3.7-3.1s2.1-2.4,2.9-3.9c0.8-1.5,1.2-3.2,1.2-5.2
		c0-1.4-0.3-2.7-0.8-3.8s-1.3-2.1-2.2-2.9c-0.9-0.8-2.1-1.4-3.3-1.8s-2.7-0.6-4.1-0.6c-2,0-3.7,0.2-5.1,0.7s-2.6,1-3.6,1.6
		s-1.8,1.1-2.4,1.6s-1.1,0.7-1.5,0.7c-0.8,0-1.5-0.4-1.9-1.1L19.4,7.3z M29,65.6c0-0.8,0.1-1.6,0.5-2.4s0.7-1.4,1.3-2s1.2-1,1.9-1.3
		c0.8-0.3,1.5-0.5,2.4-0.5c0.8,0,1.6,0.2,2.4,0.5s1.4,0.8,2,1.3c0.5,0.5,1,1.2,1.3,2s0.5,1.6,0.5,2.4c0,0.9-0.2,1.7-0.5,2.4
		c-0.3,0.7-0.8,1.4-1.3,1.9c-0.5,0.6-1.2,1-2,1.3s-1.5,0.5-2.4,0.5c-0.8,0-1.6-0.2-2.4-0.5s-1.4-0.7-1.9-1.3s-1-1.2-1.3-1.9
		S29,66.5,29,65.6z"/>
</g>
</svg>
