<svg id="Layer_35" data-name="Layer 35" xmlns="http://www.w3.org/2000/svg" viewBox="0 0 50 50"><defs><style>.cls-1{fill:#24a7df;}</style></defs><title>icon-care</title><g id="_360-ring" data-name="360-ring"><path class="cls-1" d="M42.41,16.24a2.1,2.1,0,0,1,2.68,1.26h0a2.14,2.14,0,0,1-1.25,2.72A2.09,2.09,0,0,1,41.17,19v0A2.15,2.15,0,0,1,42.41,16.24Z"/><path class="cls-1" d="M38.53,13a2.09,2.09,0,0,1,2.37-1.75h0a2.12,2.12,0,0,1,1.73,2.42,2.09,2.09,0,0,1-2.37,1.75h0A2.11,2.11,0,0,1,38.53,13Z"/><path class="cls-1" d="M37.76,7.45a2.13,2.13,0,0,1,.4,3,2.05,2.05,0,0,1-2.87.45l0,0a2.13,2.13,0,0,1-.4-3,2.07,2.07,0,0,1,2.88-.44Z"/><path class="cls-1" d="M29.42,5a2.05,2.05,0,0,1,2.87-.49l0,0a2.12,2.12,0,0,1,.46,2.94,2,2,0,0,1-2.86.49l0,0A2.14,2.14,0,0,1,29.42,5Z"/><path class="cls-1" d="M24.73,3a2.1,2.1,0,0,1,2.08,2.1h0a2.08,2.08,0,0,1-4.15.07V5.11A2.08,2.08,0,0,1,24.72,3Z"/><path class="cls-1" d="M42.41,22.67a2.06,2.06,0,0,1,2.76-.92h0a2.13,2.13,0,0,1,.89,2.85,2.06,2.06,0,0,1-2.76.92h0A2.13,2.13,0,0,1,42.41,22.67Z"/><path class="cls-1" d="M44.34,26.74A2.13,2.13,0,0,1,46,29.23a2.1,2.1,0,0,1-2.45,1.68h0a2.12,2.12,0,0,1,.8-4.17Z"/><path class="cls-1" d="M43.36,31.52a2.12,2.12,0,0,1,1,2.82h0a2,2,0,0,1-2.7,1l-.07,0a2.11,2.11,0,0,1,1.77-3.84Z"/><path class="cls-1" d="M3.07,24.83c0-.07,0-.12,0-.2s0-.13,0-.2a.74.74,0,0,1,0-.21c0-.07,0-.12,0-.2v-.2c0-.08,0-.13,0-.21v-.2c0-.07,0-.13,0-.18V23c0-.08,0-.13,0-.18v-.2a.41.41,0,0,1,.05-.18v-.2a.37.37,0,0,1,0-.18v-.2a.48.48,0,0,1,0-.18v-.2a.48.48,0,0,1,.05-.18.76.76,0,0,1,0-.21A.34.34,0,0,1,3.45,21a.5.5,0,0,1,0-.21.61.61,0,0,1,0-.18.75.75,0,0,1,0-.2,1.21,1.21,0,0,0,.05-.18.46.46,0,0,1,0-.2.41.41,0,0,0,0-.18.64.64,0,0,1,0-.2,1.34,1.34,0,0,1,.07-.18c0-.08,0-.13,0-.2L3.87,19c0-.05,0-.13,0-.18L4,18.68a.47.47,0,0,0,0-.17s0-.05.07-.11a1.09,1.09,0,0,0,0-.17c0-.05,0-.13.08-.18a1.21,1.21,0,0,1,0-.18l.07-.18a1,1,0,0,0,0-.18c0-.05,0-.12.08-.17a1.21,1.21,0,0,1,0-.18L4.57,17a1.21,1.21,0,0,0,0-.18l.1-.17a1.67,1.67,0,0,0,0-.18l.1-.18a1.21,1.21,0,0,0,0-.18.52.52,0,0,0,.1-.18c0-.07,0-.15.05-.2a.81.81,0,0,0,.1-.18s0-.12.08-.18a1.3,1.3,0,0,1,.1-.15L5.42,15a1.3,1.3,0,0,0,.1-.15s.05-.13.08-.18a1.3,1.3,0,0,1,.1-.15l.07-.18a1.3,1.3,0,0,0,.1-.15c0-.05,0-.13.08-.18a1.3,1.3,0,0,1,.1-.15l.07-.18a.93.93,0,0,1,.13-.15l.07-.18a.93.93,0,0,1,.13-.15L6.52,13a.93.93,0,0,1,.13-.15.81.81,0,0,1,.1-.18.44.44,0,0,1,.12-.15.77.77,0,0,1,.1-.18.64.64,0,0,1,.13-.15,1.62,1.62,0,0,1,.1-.18c0-.05.07-.1.12-.15a.56.56,0,0,1,.1-.15c0-.06.08-.11.13-.16a.65.65,0,0,1,.1-.15l.12-.13a1.3,1.3,0,0,0,.1-.15L8,11a1.3,1.3,0,0,1,.1-.15l.12-.13a1.3,1.3,0,0,0,.1-.15,1.74,1.74,0,0,0,.15-.13.31.31,0,0,0,.1-.15c0-.05.1-.07.15-.12s.08-.11.13-.16L9,9.92c.05-.06.07-.11.12-.16l.15-.12c.05-.05.08-.11.13-.16s.1-.07.15-.12.07-.11.12-.16l.15-.12c0-.05.08-.1.13-.16l.15-.12c.05-.05.07-.1.12-.15a.72.72,0,0,1,.15-.11l.13-.15a.4.4,0,0,1,.15-.1s.07-.1.12-.13l.15-.1a.8.8,0,0,1,.13-.13.56.56,0,0,1,.15-.1c.05,0,.07-.1.12-.13l.15-.1a.79.79,0,0,1,.15-.12.57.57,0,0,1,.16-.11.44.44,0,0,1,.15-.12.27.27,0,0,1,.17-.1A1.74,1.74,0,0,1,12.25,7l.18-.1.15-.13.17-.1.15-.13.18-.08.15-.12.17-.08a.47.47,0,0,0,.15-.13l.18-.07a1.3,1.3,0,0,1,.15-.1l.17-.08a1.3,1.3,0,0,1,.15-.1l.18-.08a1.3,1.3,0,0,0,.15-.1l.17-.08a1.3,1.3,0,0,0,.15-.1L15,5.37l.15-.11.17-.07.18-.1L15.7,5l.18-.1a.34.34,0,0,1,.17,0,.64.64,0,0,1,.18-.1,1.09,1.09,0,0,1,.17,0,1.08,1.08,0,0,1,.18-.11,1.09,1.09,0,0,0,.17,0l.18-.07a1.09,1.09,0,0,1,.17-.05l.18-.08a1.09,1.09,0,0,1,.17,0l.18-.08a2.06,2.06,0,0,1,2.63,1.27l0,0A2.13,2.13,0,0,1,19,8.24a.26.26,0,0,1-.15,0l-.15.08H18.6l-.12.07c-.05,0-.1,0-.15.06l-.13.07a.88.88,0,0,1-.15.05l-.12.08-.15.05a.91.91,0,0,0-.13.08.88.88,0,0,0-.15,0l-.12.07a.88.88,0,0,1-.15.05l-.13.08a.88.88,0,0,1-.15,0l-.12.08a.88.88,0,0,0-.15.05l-.13.07-.15.06a.38.38,0,0,0-.12.1.44.44,0,0,1-.15,0c-.05,0-.08.07-.13.1l-.15.08s-.07.07-.12.1l-.15.07c-.05,0-.08.08-.13.11L15.3,10c-.05,0-.07.08-.12.1a.57.57,0,0,0-.13.08c-.05,0-.07.08-.12.1a.57.57,0,0,0-.13.08c-.05,0-.07.07-.12.1a.35.35,0,0,0-.13.08c-.05,0-.07.07-.12.1l-.13.07c-.05,0-.07.08-.12.1a.57.57,0,0,0-.13.08C14,11,14,11,14,11l-.12.08c-.05,0-.08.08-.1.1a.57.57,0,0,1-.13.08l-.1.1-.12.07-.1.11a.41.41,0,0,0-.13.1.64.64,0,0,0-.1.13.38.38,0,0,0-.12.1s-.08.07-.1.12a.45.45,0,0,0-.13.11.28.28,0,0,1-.1.12.58.58,0,0,0-.12.1.45.45,0,0,1-.1.13.41.41,0,0,1-.13.1.31.31,0,0,1-.1.13.23.23,0,0,1-.12.1.64.64,0,0,1-.1.13.22.22,0,0,1-.13.1.41.41,0,0,1-.1.13.29.29,0,0,1-.12.1.64.64,0,0,1-.1.13s-.08.07-.1.1a1.48,1.48,0,0,0-.08.13s-.07.07-.1.1a.75.75,0,0,1-.07.12c0,.05-.08.08-.1.11l-.08.12a.24.24,0,0,1-.1.1.54.54,0,0,1-.07.13s-.08.08-.1.13l-.08.13s-.07.07-.1.12a.54.54,0,0,1-.07.13s-.08.08-.1.13a.83.83,0,0,1-.08.12s-.07.08-.1.13a.54.54,0,0,1-.07.13c0,.05-.08.07-.1.12l-.08.16c0,.05-.07.07-.1.12l-.07.16a.4.4,0,0,1-.1.12s0,.11-.08.16a.38.38,0,0,1-.1.12,1,1,0,0,1,0,.16.38.38,0,0,1-.1.12,1.42,1.42,0,0,1-.05.16c0,.05-.05.07-.07.12a.75.75,0,0,0,0,.16l-.08.12a.88.88,0,0,1-.05.15c0,.06-.05.08-.07.13a.88.88,0,0,0,0,.15,1.48,1.48,0,0,1-.08.13.88.88,0,0,1-.05.15.54.54,0,0,1-.07.13.88.88,0,0,0,0,.15.57.57,0,0,1-.08.13.88.88,0,0,1-.05.15.54.54,0,0,1-.07.13.88.88,0,0,0,0,.15.57.57,0,0,1-.08.13.88.88,0,0,1-.05.15l-.07.15a.45.45,0,0,0,0,.16l-.07.15s0,.1,0,.15a.88.88,0,0,0-.05.15c0,.06,0,.11,0,.16a.27.27,0,0,0-.05.15s0,.1,0,.15a.88.88,0,0,0-.05.15.29.29,0,0,1,0,.16.38.38,0,0,0,0,.15.39.39,0,0,1,0,.15c0,.05,0,.1-.06.15a.29.29,0,0,1,0,.16.44.44,0,0,1,0,.15.39.39,0,0,1,0,.15.53.53,0,0,1-.05.15.41.41,0,0,1,0,.16.3.3,0,0,1,0,.15V22a.25.25,0,0,1-.05.15v.16a.3.3,0,0,1,0,.15v.15c0,.06,0,.11,0,.16v.15c0,.05,0,.1,0,.15v.15c0,.05,0,.1,0,.16v.15c0,.05,0,.1,0,.15v.15c0,.05,0,.1,0,.15v.16c0,.05,0,.1,0,.15v.15c0,.05,0,.1,0,.15s0,.11,0,.16,0,.1,0,.15,0,.1,0,.15a.36.36,0,0,1,0,.15c0,.06,0,.11,0,.16a.39.39,0,0,1,0,.15c0,.05,0,.1,0,.15v.15c0,.06,0,.11,0,.16v.15c0,.05,0,.1,0,.15v.16s0,.1,0,.15v.15c0,.05,0,.1,0,.15v.16c0,.05,0,.1,0,.15v.15s0,.1,0,.15v.16a.44.44,0,0,0,0,.15V28a.88.88,0,0,1,.05.15v.16a.88.88,0,0,1,0,.15.27.27,0,0,0,0,.15.88.88,0,0,0,.05.15.3.3,0,0,0,0,.16.33.33,0,0,1,0,.15.39.39,0,0,0,0,.15.47.47,0,0,1,.06.15.41.41,0,0,1,0,.16.33.33,0,0,1,0,.15.26.26,0,0,1,0,.15.3.3,0,0,1,.05.15.29.29,0,0,1,0,.16.33.33,0,0,1,.05.15.26.26,0,0,1,0,.15.3.3,0,0,1,.05.15.29.29,0,0,1,0,.16l.07.15a.4.4,0,0,1,0,.15l.07.15a.75.75,0,0,1,.05.16l.08.12a.88.88,0,0,0,0,.15c0,.06.05.08.07.13a.88.88,0,0,1,.05.15,1.48,1.48,0,0,0,.08.13.88.88,0,0,0,0,.15c0,.05.05.08.07.13a.88.88,0,0,1,.05.15l.08.13a.88.88,0,0,0,0,.15s.05.08.07.13a.88.88,0,0,1,.05.15l.08.13a.88.88,0,0,0,0,.15s.05.08.07.13a.88.88,0,0,1,.05.15.64.64,0,0,0,.1.13.3.3,0,0,1,0,.15c0,.05.08.08.1.13l.08.15s.07.08.1.13l.07.15s.08.08.1.13l.08.15s.07.08.1.13a.47.47,0,0,0,.07.12s.08.08.1.13a.57.57,0,0,0,.08.13s.07.07.1.13a.75.75,0,0,0,.07.12s.08.08.1.13a.57.57,0,0,0,.08.13c0,.05.07.07.1.12a.54.54,0,0,0,.07.13.46.46,0,0,0,.1.1l.08.13a.24.24,0,0,0,.1.1s0,.08.07.13l.1.1.08.13.1.1a.41.41,0,0,0,.1.13l.12.1a.4.4,0,0,0,.1.12s.08.08.13.11a.38.38,0,0,0,.1.12.4.4,0,0,1,.12.1.45.45,0,0,0,.1.13l.13.1a.64.64,0,0,1,.1.13.4.4,0,0,1,.12.1.21.21,0,0,1,.1.13l.13.1a.26.26,0,0,1,.1.13.29.29,0,0,1,.12.1.19.19,0,0,1,.1.13.41.41,0,0,1,.13.1c.05,0,.07.07.1.1l.12.08a.24.24,0,0,1,.1.1l.13.07.1.11a.47.47,0,0,1,.12.07.46.46,0,0,1,.1.1.57.57,0,0,1,.13.08c.05,0,.07.08.12.1a.57.57,0,0,1,.13.08c.05,0,.07.07.12.1a.57.57,0,0,1,.13.08c.05,0,.07.07.12.1l.13.07c.05,0,.07.08.12.11l.13.07c.05,0,.07.08.12.1l.15.08c.05,0,.08.08.13.1l.15.08a.29.29,0,0,1,.12.1c.05,0,.1,0,.15.08a.41.41,0,0,1,.13.1.88.88,0,0,1,.15.05.29.29,0,0,1,.12.1.88.88,0,0,0,.15,0,.91.91,0,0,1,.13.08.88.88,0,0,1,.15.05L17,41a.88.88,0,0,0,.15,0,.91.91,0,0,0,.13.08.88.88,0,0,0,.15.05l.27.15a1.33,1.33,0,0,1,.3.11,1.71,1.71,0,0,1,.4.22,3,3,0,0,1,.45.11,2.32,2.32,0,0,1,.56.3,1.86,1.86,0,0,1,.62.08,2.3,2.3,0,0,1,.7.35,2,2,0,0,1,.78,0,2.25,2.25,0,0,1,.87.41,1.94,1.94,0,0,1,1-.15,1.91,1.91,0,0,1,1,.4,2,2,0,0,1,1.08-.35,2,2,0,0,1,1.27.38,2.2,2.2,0,0,1,1.15-.66,2,2,0,0,1,1.5.3,2.15,2.15,0,0,1,1.15-1,2.07,2.07,0,0,1,1.75.2,2.17,2.17,0,0,1,1-1.48,2,2,0,0,1,2.05,0,2.2,2.2,0,0,1,.7-2,2,2,0,0,1,2.5-.12,2.13,2.13,0,0,1,0-2.54,2,2,0,0,1,2.87-.4l.05,0a2.12,2.12,0,0,1,.35,3A2,2,0,0,1,39,39a2.13,2.13,0,0,1-.33,2.87,2.05,2.05,0,0,1-2.37.2,2.13,2.13,0,0,1-1,2.19,2.1,2.1,0,0,1-2.1-.05A2.06,2.06,0,0,1,30,45.6a2.06,2.06,0,0,1-2.76.9l-.27-.16a2,2,0,0,1-1.45.66,1.93,1.93,0,0,1-1.3-.43,2,2,0,0,1-2.4-.08,1.75,1.75,0,0,1-1.15.1,2.2,2.2,0,0,1-.88-.4,2.64,2.64,0,0,1-1,0,2.22,2.22,0,0,1-.68-.36,1.94,1.94,0,0,1-.75-.12,3.53,3.53,0,0,1-.5-.28,2.16,2.16,0,0,1-.55-.16c-.12-.05-.22-.12-.32-.17a1.48,1.48,0,0,1-.35-.13l-.18-.1s-.12,0-.17-.08a1.3,1.3,0,0,1-.15-.1L15,44.58a1.3,1.3,0,0,1-.15-.1l-.17-.07-.15-.11-.18-.07a1.3,1.3,0,0,0-.15-.1L14,44.05a1.3,1.3,0,0,0-.15-.1l-.18-.08a1.58,1.58,0,0,1-.15-.12l-.17-.08a.64.64,0,0,1-.15-.13L13,43.47l-.15-.13a1,1,0,0,1-.17-.1.64.64,0,0,1-.15-.13.52.52,0,0,1-.18-.1l-.15-.13a1,1,0,0,1-.17-.1l-.15-.13a.4.4,0,0,1-.15-.1l-.15-.13a.4.4,0,0,1-.15-.1l-.13-.12-.15-.11L11,42l-.15-.11-.13-.12a1.3,1.3,0,0,0-.15-.1s-.07-.11-.12-.16l-.15-.1-.13-.15-.15-.13C10,41.05,10,41,9.93,41l-.15-.13-.13-.15-.15-.13c-.05,0-.07-.1-.12-.15l-.15-.13-.13-.15L9,40s-.07-.1-.12-.15a1.74,1.74,0,0,1-.15-.13.31.31,0,0,1-.1-.15,1.74,1.74,0,0,1-.15-.13.31.31,0,0,1-.1-.15c-.05-.05-.1-.07-.13-.12A.54.54,0,0,1,8.1,39c0-.05-.1-.07-.12-.12a.39.39,0,0,1-.1-.16c0-.05-.1-.07-.13-.12a.54.54,0,0,1-.1-.16.44.44,0,0,1-.12-.15.36.36,0,0,1-.1-.15A.87.87,0,0,1,7.3,38a.46.46,0,0,1-.1-.18s-.07-.1-.12-.15a1.45,1.45,0,0,0-.1-.18l-.13-.15a.77.77,0,0,0-.1-.18S6.68,37,6.63,37s0-.12-.08-.17-.07-.1-.12-.16,0-.12-.08-.17a1,1,0,0,0-.12-.16s-.05-.12-.08-.17a1.4,1.4,0,0,0-.1-.16L6,35.82a1.4,1.4,0,0,1-.1-.16s0-.12-.08-.17a.86.86,0,0,0-.1-.16l-.07-.17c0-.06-.08-.11-.1-.16s0-.12-.08-.18a1.3,1.3,0,0,0-.1-.15l-.07-.18a.59.59,0,0,1-.1-.17s0-.13-.08-.18A1.62,1.62,0,0,1,5,34a.53.53,0,0,1,0-.18.77.77,0,0,1-.1-.18,1.09,1.09,0,0,0,0-.17,1.62,1.62,0,0,1-.1-.18,1.21,1.21,0,0,0,0-.18,1.34,1.34,0,0,1-.07-.18,1.09,1.09,0,0,1,0-.17,1.42,1.42,0,0,1-.08-.18,1.21,1.21,0,0,0,0-.18,1.34,1.34,0,0,1-.07-.18,1.21,1.21,0,0,1,0-.18.89.89,0,0,1-.08-.17,1,1,0,0,0,0-.18l-.07-.18a.38.38,0,0,1,0-.18L4,31.11a.47.47,0,0,1,0-.17l-.07-.18a.57.57,0,0,1,0-.18l-.07-.18a.64.64,0,0,1,0-.2.61.61,0,0,1,0-.18.44.44,0,0,1,0-.2.41.41,0,0,1-.05-.18.69.69,0,0,1,0-.2.61.61,0,0,1-.05-.18.44.44,0,0,0,0-.2.41.41,0,0,1,0-.18.76.76,0,0,0,0-.21.48.48,0,0,1-.05-.17v-.21a1.09,1.09,0,0,0,0-.17v-.21a1.21,1.21,0,0,0-.05-.18v-.2a.41.41,0,0,0,0-.18v-.2s0-.13,0-.18v-.2c0-.08,0-.13,0-.18v-.2c0-.08,0-.13,0-.21V26c0-.08,0-.13,0-.2a.76.76,0,0,1,0-.21c0-.07,0-.13,0-.2a.65.65,0,0,1,0-.2c0-.08,0-.13,0-.21S3.07,24.89,3.07,24.83Z"/></g></svg>