<svg id="Layer_38" data-name="Layer 38" xmlns="http://www.w3.org/2000/svg" viewBox="0 0 50 50"><defs><style>.cls-1{fill:#24a7df;}</style></defs><title>icon-FAQ</title><g id="Group_1381" data-name="Group 1381"><path id="Path_363" data-name="Path 363" class="cls-1" d="M37,2H13.3A8.28,8.28,0,0,0,5,10.26v22.2a8.28,8.28,0,0,0,8.27,8.29h2.31v7.82l5-4,4.72-3.82H37a8.27,8.27,0,0,0,8.29-8.26V10.29A8.29,8.29,0,0,0,37,2Zm4.7,30.46A4.71,4.71,0,0,1,37,37.17H24l-4.86,3.92V37.17H13.3a4.72,4.72,0,0,1-4.7-4.71V10.29a4.72,4.72,0,0,1,4.7-4.7H37a4.71,4.71,0,0,1,4.7,4.7Z"/><path id="Path_364" data-name="Path 364" class="cls-1" d="M11.72,18.75h.78v5.54h-.78V26h4.76v-1.7H15.17V22.67h2.42V21H15.17V18.75h1.92v1.14h2.25V17.08H11.72Z"/><path id="Path_365" data-name="Path 365" class="cls-1" d="M26.72,17.08H21.79v1.64h.53l-1.73,5.59h-.86V26h4.06V24.31h-1l.28-.86h2.62l.27.86H24.74V26h5.12V24.31H29Zm-3.18,4.84.84-2.75.83,2.75Z"/><path id="Path_366" data-name="Path 366" class="cls-1" d="M38.65,25c0,.22,0,.58-.25.58s-.47-.44-.56-.83a4.66,4.66,0,0,0,1.06-3.2c0-2.73-1.36-4.54-4.37-4.54a4.17,4.17,0,0,0-4.29,4c0,.14,0,.28,0,.42,0,3,1.78,4.51,4.37,4.51a6.74,6.74,0,0,0,1-.08,2,2,0,0,0,2,1.42,1.86,1.86,0,0,0,1.93-1.78,2,2,0,0,0,0-.25v-.64h-.83V25Zm-4.06-1a1.14,1.14,0,0,1-.86-.42c.16-.5.44-.91.86-.91s.58.44.67,1.08A1,1,0,0,1,34.59,24.06Zm1.44-2a2.33,2.33,0,0,0-1.41-.5,2,2,0,0,0-1.51.61,5.36,5.36,0,0,1,0-.7c0-1.5.69-2.58,1.47-2.58.95,0,1.56,1.19,1.56,2.67a4,4,0,0,0-.06.5Z"/></g></svg>