<svg id="Layer_23" data-name="Layer 23" xmlns="http://www.w3.org/2000/svg" viewBox="0 0 50 50"><defs><style>.cls-1{fill:#24a7df;}</style></defs><title>icon-history</title><path class="cls-1" d="M7.33,15.85A4.42,4.42,0,0,0,10,15V39.73a4.43,4.43,0,0,0,4.43,4.43H36a4.43,4.43,0,0,0,4.43-4.43.91.91,0,0,0-.9-.91H33.37s0-.06,0-.09V32.06a21,21,0,0,0,5-3.61A35.44,35.44,0,0,1,41.65,26c3-2.07,5.84-4,5.28-8.84a2.79,2.79,0,0,0-2.85-2.7H44c-2.51,0-5.91,2.19-7.71,3.5a36,36,0,0,0-2.88,2.35V11.42A4.43,4.43,0,0,0,29,7H7.33a4.43,4.43,0,0,0,0,8.86ZM36,42.35H18a4.69,4.69,0,0,0,.77-1.72H38.46A2.61,2.61,0,0,1,36,42.35Zm1.33-22.94c2.72-2,5.2-3.16,6.65-3.16.63,0,1.05.18,1.15,1.09.44,3.73-1.53,5.08-4.51,7.15a35,35,0,0,0-3.44,2.61c-2.2,2-3.78,3.08-5,3.48h0a2.42,2.42,0,0,1-.36.1l.86-1.22a32.92,32.92,0,0,1,9.86-9,.9.9,0,0,0-.88-1.58,34.64,34.64,0,0,0-10.46,9.6c-.14.18-.26.36-.39.55a14.27,14.27,0,0,1,1-3.8c.11-.27.24-.54.38-.81h0a.47.47,0,0,1,0-.1s0,0,0,0l0,0a8.25,8.25,0,0,1,.86-1.11h0A28.62,28.62,0,0,1,37.33,19.41ZM29,8.79a2.64,2.64,0,0,1,2.62,2.63V22.13a8.13,8.13,0,0,0-.83,1.1v0l-.08.12-.08.13-.08.17a16.86,16.86,0,0,0-1.61,7.39.59.59,0,0,0,0,.19.8.8,0,0,0,.14.45,23.37,23.37,0,0,0-1.27,2.36.91.91,0,0,0,.44,1.2,1,1,0,0,0,.38.08.9.9,0,0,0,.82-.52s.43-.93,1.27-2.33h.05l.11,0,.16,0h.58v6.19a.25.25,0,0,0,0,.09H17.92a.92.92,0,0,0-.92.91,2.62,2.62,0,0,1-5.24,0V11.42a1.48,1.48,0,0,0,0-.21v-.06c0-.05,0-.1,0-.15s0,0,0-.07,0-.09,0-.15,0,0,0-.06a1.08,1.08,0,0,0,0-.19h0a1.94,1.94,0,0,0-.05-.2s0,0,0-.06l0-.13a.19.19,0,0,1,0-.07s0-.09-.05-.12a.17.17,0,0,1,0-.07l-.07-.16s0,0,0,0a1.42,1.42,0,0,0-.08-.18l0,0c0-.05-.05-.09-.07-.13l0-.06-.07-.12,0-.06L11,9l0,0a1.21,1.21,0,0,1-.1-.14Zm-21.62,0a2.63,2.63,0,1,1-2.62,2.63A2.63,2.63,0,0,1,7.33,8.79Z"/></svg>