<svg id="Layer_1" data-name="Layer 1" xmlns="http://www.w3.org/2000/svg" viewBox="0 0 50 50"><defs><style>.cls-1{fill:#24a7df;}</style></defs><title>icon-breast</title><path class="cls-1" d="M17.74,26.58a2.14,2.14,0,1,1-2.13,2.13A2.13,2.13,0,0,1,17.74,26.58ZM13,23.94a6.72,6.72,0,1,0,4.77-2A6.44,6.44,0,0,0,13,23.94Zm4.7-.22a5.06,5.06,0,0,0-3.52,1.47,5,5,0,0,0-1.47,3.52,5.1,5.1,0,0,0,1.47,3.53,5,5,0,0,0,3.52,1.47,5.19,5.19,0,0,0,3.53-1.47,5.08,5.08,0,0,0,1.47-3.53,5.15,5.15,0,0,0-1.47-3.52A5,5,0,0,0,17.74,23.72ZM24.8,1A23.81,23.81,0,1,0,48.61,24.82a1.76,1.76,0,0,0-3.52,0A20.28,20.28,0,1,1,24.8,4.53a1.79,1.79,0,0,0,1.76-1.77A1.78,1.78,0,0,0,24.8,1Z"/></svg>