<svg id="Layer_12" data-name="Layer 12" xmlns="http://www.w3.org/2000/svg" viewBox="0 0 50 50"><defs><style>.cls-1{fill:#24a7df;}</style></defs><title>icon-programs</title><path class="cls-1" d="M45.91,34l-.33-.34c-3.26-3.27-7.06-3.27-10.86-2.73l-.1.57,0,.16c-.08.46-.16.9-.22,1.35a17.31,17.31,0,0,1,3.94-.13l-5.38,5.38a16.78,16.78,0,0,1,.13-3.94c.12-1,.28-1.9.45-2.87.1-.5.18-1,.26-1.52.65-4.08.92-8.21-2.58-11.71S23.56,15,19.46,15.63c-.08.54-.18,1.06-.27,1.58,0,.16-.05.32-.08.48a19.5,19.5,0,0,1,4.64-.26L17.47,23.7A19.75,19.75,0,0,1,17.73,19L18,17.61c.11-.7.35-2.08.46-2.76C19,11,19,7.11,15.73,3.8l0,0-.39-.4h0l-.75-.71L12.82,4.39l.73.73L5.13,13.54,4.4,12.8,2.66,14.54l.73.72h0l.39.4,0,0C7.07,19,10.87,19,14.69,18.41c.05-.23.08-.49.13-.72.08-.46.15-.91.22-1.35a19.21,19.21,0,0,1-3.39.16l4.88-4.88a29.28,29.28,0,0,1-.62,6.26c-.79,4.57-1.62,9.31,2.33,13.25,3.49,3.5,7.63,3.24,11.71,2.58.08-.51.18-1,.25-1.5l0-.08,0-.15a2,2,0,0,1,.06-.34,21.38,21.38,0,0,1-4.07.28L32,26.19a19.83,19.83,0,0,1-.3,4.07c-.09.66-.22,1.34-.33,2s-.27,1.59-.38,2.38c-.54,3.8-.54,7.61,2.72,10.86.11.11.22.22.35.33l1.06,1.06,1.74-1.74-.68-.68,8.42-8.42.7.69L47,35Zm-36-17.73a8.63,8.63,0,0,1-3.65-1.83l8.2-8.21a8.59,8.59,0,0,1,1.85,3.66Zm7.89,9.14,7.64-7.65a8.44,8.44,0,0,1,3.53,2L19.72,29a8.59,8.59,0,0,1-1.94-3.55Zm6.68,6.32a8.5,8.5,0,0,1-3.7-1.81l9.18-9.18a8.58,8.58,0,0,1,1.8,3.71ZM35.24,43.47a8.5,8.5,0,0,1-2-3.5L40,33.22a8.61,8.61,0,0,1,3.5,2Z"/></svg>