<?xml version="1.0" encoding="utf-8"?>
<!-- Generator: Adobe Illustrator 23.0.0, SVG Export Plug-In . SVG Version: 6.00 Build 0)  -->
<svg version="1.1" id="Layer_1" xmlns="http://www.w3.org/2000/svg" xmlns:xlink="http://www.w3.org/1999/xlink" x="0px" y="0px"
	 viewBox="0 0 72 72" style="enable-background:new 0 0 72 72;" xml:space="preserve">
<style type="text/css">
	.st0{fill:#579BCA;}
</style>
<g>
	<path class="st0" d="M61.78,42l-1.54,3.08c-0.81,1.62-2.12,2.92-3.73,3.73l-3.08,1.54l3.08,1.54c1.62,0.81,2.93,2.12,3.73,3.73
		l1.54,3.08l1.54-3.08c0.81-1.62,2.12-2.93,3.73-3.73l3.08-1.54l-3.08-1.54c-1.62-0.81-2.92-2.12-3.73-3.73L61.78,42z"/>
	<path class="st0" d="M61.79,21.13l1.54-3.08c0.81-1.62,2.12-2.93,3.73-3.73l3.08-1.54l-3.08-1.54c-1.62-0.81-2.92-2.12-3.73-3.73
		l-1.54-3.08l-1.54,3.08c-0.81,1.62-2.12,2.92-3.73,3.73l-3.08,1.54l3.08,1.54c1.62,0.81,2.93,2.12,3.73,3.73L61.79,21.13z"/>
	<path class="st0" d="M15.88,25.3l2.93-5.86c0.81-1.62,2.12-2.92,3.73-3.73l5.86-2.93l-5.86-2.93c-1.62-0.81-2.92-2.12-3.73-3.73
		l-2.93-5.86l-2.93,5.86c-0.81,1.62-2.12,2.92-3.73,3.73l-5.86,2.93l5.86,2.93c1.62,0.81,2.92,2.12,3.73,3.73L15.88,25.3z"/>
	<path class="st0" d="M49.77,24.79c-3.26-3.26-8.54-3.26-11.8,0L6.01,56.74c-3.26,3.26-3.26,8.54,0,11.8s8.54,3.26,11.8,0
		L49.77,36.6C53.03,33.34,53.03,28.06,49.77,24.79L49.77,24.79z M14.86,65.6c-1.62,1.64-4.26,1.66-5.9,0.04
		c-1.64-1.62-1.66-4.26-0.04-5.9c0.01-0.01,0.03-0.03,0.04-0.04l26.06-26.05l5.9,5.9L14.86,65.6z M46.82,33.65l-2.95,2.95l-5.9-5.9
		l2.95-2.95c1.63-1.63,4.27-1.63,5.9,0C48.45,29.38,48.45,32.02,46.82,33.65z"/>
</g>
</svg>
